<svg width="512" height="512" viewBox="0 0 512 512" fill="none" xmlns="http://www.w3.org/2000/svg">
<path d="M23.8936 249.37C27.1833 224.234 50.2212 206.566 75.3506 209.906C100.48 213.247 118.185 236.332 114.896 261.469C111.606 286.605 88.5678 304.273 63.4385 300.933C38.3089 297.592 20.6039 274.506 23.8936 249.37ZM74.5723 215.855C52.7275 212.951 32.7005 228.311 29.8408 250.161C26.9813 272.012 42.3721 292.079 64.2168 294.983C86.0615 297.887 106.089 282.528 108.948 260.678C111.808 238.827 96.4169 218.76 74.5723 215.855Z" fill="#ECFBA9"/>
<path d="M99.5322 234.114L65.023 237.133L84.8922 265.509L99.5322 234.114ZM34 280L35.7207 282.457L79.1358 252.058L77.4151 249.6L75.6943 247.143L32.2793 277.543L34 280Z" fill="#ECFBA9"/>
<path d="M150.131 278H145.33L159.216 240.182H163.943L177.83 278H173.028L161.727 246.165H161.432L150.131 278ZM151.903 263.227H171.256V267.29H151.903V263.227ZM193.839 278.591C191.476 278.591 189.389 277.994 187.58 276.8C185.77 275.593 184.354 273.894 183.332 271.703C182.311 269.5 181.8 266.896 181.8 263.892C181.8 260.913 182.311 258.328 183.332 256.136C184.354 253.945 185.776 252.252 187.598 251.058C189.42 249.864 191.525 249.267 193.913 249.267C195.76 249.267 197.219 249.575 198.29 250.19C199.373 250.794 200.198 251.483 200.764 252.259C201.343 253.022 201.792 253.65 202.112 254.142H202.482V240.182H206.839V278H202.629V273.642H202.112C201.792 274.159 201.337 274.812 200.746 275.599C200.155 276.375 199.312 277.071 198.216 277.686C197.12 278.289 195.661 278.591 193.839 278.591ZM194.43 274.676C196.179 274.676 197.656 274.221 198.862 273.31C200.069 272.386 200.986 271.112 201.614 269.487C202.241 267.85 202.555 265.96 202.555 263.818C202.555 261.701 202.248 259.848 201.632 258.26C201.017 256.66 200.106 255.416 198.899 254.53C197.693 253.631 196.203 253.182 194.43 253.182C192.584 253.182 191.045 253.656 189.814 254.604C188.595 255.539 187.678 256.813 187.062 258.426C186.459 260.027 186.158 261.824 186.158 263.818C186.158 265.837 186.465 267.671 187.081 269.321C187.709 270.958 188.632 272.263 189.851 273.236C191.082 274.196 192.608 274.676 194.43 274.676ZM248.96 259.091C248.96 263.166 248.197 266.656 246.67 269.561C245.156 272.454 243.088 274.67 240.466 276.209C237.856 277.748 234.895 278.517 231.584 278.517C228.272 278.517 225.305 277.748 222.683 276.209C220.073 274.658 218.005 272.436 216.479 269.543C214.964 266.637 214.207 263.153 214.207 259.091C214.207 255.016 214.964 251.532 216.479 248.639C218.005 245.734 220.073 243.512 222.683 241.973C225.305 240.434 228.272 239.665 231.584 239.665C234.895 239.665 237.856 240.434 240.466 241.973C243.088 243.512 245.156 245.734 246.67 248.639C248.197 251.532 248.96 255.016 248.96 259.091ZM242.072 259.091C242.072 256.223 241.623 253.804 240.724 251.834C239.838 249.852 238.607 248.356 237.031 247.347C235.455 246.325 233.64 245.814 231.584 245.814C229.528 245.814 227.712 246.325 226.136 247.347C224.561 248.356 223.323 249.852 222.425 251.834C221.538 253.804 221.095 256.223 221.095 259.091C221.095 261.959 221.538 264.384 222.425 266.366C223.323 268.336 224.561 269.832 226.136 270.854C227.712 271.863 229.528 272.368 231.584 272.368C233.64 272.368 235.455 271.863 237.031 270.854C238.607 269.832 239.838 268.336 240.724 266.366C241.623 264.384 242.072 261.959 242.072 259.091ZM255.142 288.636V249.636H261.716V254.327H262.103C262.448 253.637 262.934 252.905 263.562 252.129C264.19 251.341 265.039 250.67 266.11 250.116C267.181 249.55 268.548 249.267 270.21 249.267C272.401 249.267 274.377 249.827 276.137 250.947C277.91 252.055 279.314 253.699 280.348 255.878C281.394 258.045 281.917 260.704 281.917 263.855C281.917 266.97 281.406 269.616 280.385 271.795C279.363 273.974 277.972 275.636 276.211 276.781C274.451 277.926 272.457 278.499 270.228 278.499C268.603 278.499 267.255 278.228 266.184 277.686C265.113 277.144 264.252 276.492 263.599 275.729C262.959 274.953 262.46 274.221 262.103 273.531H261.826V288.636H255.142ZM261.697 263.818C261.697 265.652 261.956 267.259 262.473 268.638C263.002 270.017 263.759 271.094 264.744 271.869C265.741 272.633 266.948 273.014 268.363 273.014C269.841 273.014 271.078 272.62 272.075 271.832C273.072 271.032 273.823 269.943 274.328 268.564C274.845 267.173 275.103 265.591 275.103 263.818C275.103 262.058 274.851 260.494 274.346 259.128C273.842 257.761 273.091 256.69 272.093 255.915C271.096 255.139 269.853 254.751 268.363 254.751C266.935 254.751 265.723 255.127 264.725 255.878C263.728 256.629 262.971 257.681 262.454 259.036C261.949 260.39 261.697 261.984 261.697 263.818ZM301.805 249.636V254.807H285.5V249.636H301.805ZM289.525 242.841H296.21V269.469C296.21 270.367 296.345 271.057 296.616 271.537C296.899 272.005 297.269 272.325 297.724 272.497C298.18 272.67 298.684 272.756 299.238 272.756C299.657 272.756 300.038 272.725 300.383 272.663C300.74 272.602 301.011 272.546 301.196 272.497L302.322 277.723C301.965 277.846 301.454 277.982 300.789 278.129C300.137 278.277 299.337 278.363 298.389 278.388C296.715 278.437 295.207 278.185 293.865 277.631C292.523 277.064 291.458 276.19 290.67 275.009C289.895 273.827 289.513 272.349 289.525 270.577V242.841ZM307.396 278V249.636H314.08V278H307.396ZM310.756 245.611C309.698 245.611 308.787 245.26 308.023 244.558C307.26 243.844 306.879 242.989 306.879 241.991C306.879 240.982 307.26 240.126 308.023 239.425C308.787 238.711 309.698 238.354 310.756 238.354C311.827 238.354 312.738 238.711 313.489 239.425C314.253 240.126 314.634 240.982 314.634 241.991C314.634 242.989 314.253 243.844 313.489 244.558C312.738 245.26 311.827 245.611 310.756 245.611ZM320.954 278V249.636H327.343V254.456H327.676C328.267 252.831 329.245 251.563 330.612 250.652C331.978 249.729 333.609 249.267 335.505 249.267C337.426 249.267 339.045 249.735 340.362 250.67C341.691 251.594 342.627 252.856 343.169 254.456H343.464C344.092 252.88 345.151 251.625 346.64 250.689C348.142 249.741 349.921 249.267 351.977 249.267C354.587 249.267 356.717 250.092 358.366 251.741C360.016 253.391 360.841 255.798 360.841 258.962V278H354.137V259.996C354.137 258.235 353.67 256.949 352.734 256.136C351.798 255.312 350.654 254.899 349.299 254.899C347.687 254.899 346.425 255.404 345.514 256.413C344.615 257.411 344.166 258.709 344.166 260.31V278H337.61V259.719C337.61 258.254 337.167 257.084 336.281 256.21C335.407 255.336 334.262 254.899 332.846 254.899C331.886 254.899 331.012 255.145 330.224 255.638C329.436 256.118 328.808 256.801 328.341 257.688C327.873 258.562 327.639 259.583 327.639 260.753V278H320.954ZM367.622 278V249.636H374.307V278H367.622ZM370.983 245.611C369.924 245.611 369.013 245.26 368.25 244.558C367.487 243.844 367.105 242.989 367.105 241.991C367.105 240.982 367.487 240.126 368.25 239.425C369.013 238.711 369.924 238.354 370.983 238.354C372.054 238.354 372.965 238.711 373.716 239.425C374.479 240.126 374.861 240.982 374.861 241.991C374.861 242.989 374.479 243.844 373.716 244.558C372.965 245.26 372.054 245.611 370.983 245.611ZM380.811 278V273.753L395.436 255.416V255.176H381.292V249.636H403.617V254.197L389.694 272.22V272.46H404.097V278H380.811ZM422.124 278.554C419.281 278.554 416.825 277.963 414.756 276.781C412.701 275.587 411.119 273.901 410.011 271.722C408.903 269.53 408.349 266.951 408.349 263.984C408.349 261.067 408.903 258.506 410.011 256.303C411.131 254.087 412.694 252.363 414.701 251.132C416.708 249.889 419.065 249.267 421.773 249.267C423.522 249.267 425.171 249.55 426.722 250.116C428.286 250.67 429.665 251.532 430.859 252.702C432.065 253.871 433.013 255.361 433.702 257.17C434.392 258.968 434.737 261.11 434.737 263.597V265.646H411.488V261.141H428.329C428.317 259.86 428.04 258.722 427.498 257.724C426.956 256.715 426.199 255.921 425.227 255.342C424.266 254.764 423.146 254.474 421.866 254.474C420.499 254.474 419.299 254.807 418.265 255.472C417.231 256.124 416.424 256.986 415.846 258.057C415.28 259.116 414.99 260.279 414.978 261.547V265.48C414.978 267.13 415.28 268.545 415.883 269.727C416.486 270.897 417.329 271.795 418.413 272.423C419.496 273.039 420.764 273.347 422.217 273.347C423.189 273.347 424.069 273.211 424.857 272.94C425.645 272.657 426.328 272.245 426.907 271.703C427.486 271.161 427.923 270.491 428.218 269.69L434.46 270.392C434.066 272.042 433.315 273.482 432.207 274.713C431.111 275.932 429.708 276.88 427.996 277.557C426.285 278.222 424.328 278.554 422.124 278.554Z" fill="#FCFCFC"/>
<path d="M150.131 278V278.5H150.484L150.602 278.167L150.131 278ZM145.33 278L144.86 277.828L144.613 278.5H145.33V278ZM159.216 240.182V239.682H158.867L158.747 240.009L159.216 240.182ZM163.943 240.182L164.413 240.009L164.292 239.682H163.943V240.182ZM177.83 278V278.5H178.546L178.299 277.828L177.83 278ZM173.028 278L172.557 278.167L172.675 278.5H173.028V278ZM161.727 246.165L162.198 245.998L162.08 245.665H161.727V246.165ZM161.432 246.165V245.665H161.079L160.961 245.998L161.432 246.165ZM151.903 263.227V262.727H151.403V263.227H151.903ZM171.256 263.227H171.756V262.727H171.256V263.227ZM171.256 267.29V267.79H171.756V267.29H171.256ZM151.903 267.29H151.403V267.79H151.903V267.29ZM150.131 278V277.5H145.33V278V278.5H150.131V278ZM145.33 278L145.799 278.172L159.685 240.354L159.216 240.182L158.747 240.009L144.86 277.828L145.33 278ZM159.216 240.182V240.682H163.943V240.182V239.682H159.216V240.182ZM163.943 240.182L163.474 240.354L177.36 278.172L177.83 278L178.299 277.828L164.413 240.009L163.943 240.182ZM177.83 278V277.5H173.028V278V278.5H177.83V278ZM173.028 278L173.5 277.833L162.198 245.998L161.727 246.165L161.256 246.332L172.557 278.167L173.028 278ZM161.727 246.165V245.665H161.432V246.165V246.665H161.727V246.165ZM161.432 246.165L160.961 245.998L149.659 277.833L150.131 278L150.602 278.167L161.903 246.332L161.432 246.165ZM151.903 263.227V263.727H171.256V263.227V262.727H151.903V263.227ZM171.256 263.227H170.756V267.29H171.256H171.756V263.227H171.256ZM171.256 267.29V266.79H151.903V267.29V267.79H171.256V267.29ZM151.903 267.29H152.403V263.227H151.903H151.403V267.29H151.903ZM187.58 276.8L187.302 277.216L187.304 277.217L187.58 276.8ZM183.332 271.703L182.879 271.913L182.879 271.914L183.332 271.703ZM183.332 256.136L182.879 255.925V255.925L183.332 256.136ZM187.598 251.058L187.324 250.64V250.64L187.598 251.058ZM198.29 250.19L198.041 250.624L198.047 250.627L198.29 250.19ZM200.764 252.259L200.36 252.553L200.366 252.561L200.764 252.259ZM202.112 254.142L201.693 254.415L201.841 254.642H202.112V254.142ZM202.482 254.142V254.642H202.982V254.142H202.482ZM202.482 240.182V239.682H201.982V240.182H202.482ZM206.839 240.182H207.339V239.682H206.839V240.182ZM206.839 278V278.5H207.339V278H206.839ZM202.629 278H202.129V278.5H202.629V278ZM202.629 273.642H203.129V273.142H202.629V273.642ZM202.112 273.642V273.142H201.834L201.687 273.379L202.112 273.642ZM200.746 275.599L201.143 275.902L201.146 275.899L200.746 275.599ZM198.216 277.686L198.457 278.124L198.461 278.122L198.216 277.686ZM198.862 273.31L199.164 273.709L199.166 273.707L198.862 273.31ZM201.614 269.487L202.08 269.667L202.08 269.666L201.614 269.487ZM201.632 258.26L201.165 258.439L201.166 258.441L201.632 258.26ZM198.899 254.53L198.6 254.931L198.603 254.933L198.899 254.53ZM189.814 254.604L190.118 255L190.119 255L189.814 254.604ZM187.062 258.426L186.595 258.248L186.595 258.25L187.062 258.426ZM187.081 269.321L186.612 269.496L186.614 269.5L187.081 269.321ZM189.851 273.236L189.539 273.627L189.543 273.63L189.851 273.236ZM193.839 278.591V278.091C191.565 278.091 189.576 277.518 187.855 276.382L187.58 276.8L187.304 277.217C189.203 278.47 191.387 279.091 193.839 279.091V278.591ZM187.58 276.8L187.857 276.384C186.132 275.234 184.773 273.61 183.786 271.492L183.332 271.703L182.879 271.914C183.935 274.179 185.408 275.953 187.302 277.216L187.58 276.8ZM183.332 271.703L183.786 271.493C182.801 269.369 182.3 266.84 182.3 263.892H181.8H181.3C181.3 266.952 181.82 269.63 182.879 271.913L183.332 271.703ZM181.8 263.892H182.3C182.3 260.969 182.801 258.459 183.786 256.348L183.332 256.136L182.879 255.925C181.82 258.196 181.3 260.856 181.3 263.892H181.8ZM183.332 256.136L183.786 256.348C184.772 254.231 186.136 252.614 187.872 251.476L187.598 251.058L187.324 250.64C185.416 251.891 183.936 253.659 182.879 255.925L183.332 256.136ZM187.598 251.058L187.872 251.476C189.605 250.341 191.613 249.767 193.913 249.767V249.267V248.767C191.437 248.767 189.235 249.387 187.324 250.64L187.598 251.058ZM193.913 249.267V249.767C195.713 249.767 197.074 250.068 198.041 250.624L198.29 250.19L198.539 249.757C197.364 249.081 195.807 248.767 193.913 248.767V249.267ZM198.29 250.19L198.047 250.627C199.084 251.205 199.847 251.851 200.36 252.553L200.764 252.259L201.168 251.964C200.549 251.115 199.662 250.382 198.533 249.753L198.29 250.19ZM200.764 252.259L200.366 252.561C200.941 253.319 201.382 253.936 201.693 254.415L202.112 254.142L202.531 253.87C202.202 253.363 201.745 252.724 201.163 251.956L200.764 252.259ZM202.112 254.142V254.642H202.482V254.142V253.642H202.112V254.142ZM202.482 254.142H202.982V240.182H202.482H201.982V254.142H202.482ZM202.482 240.182V240.682H206.839V240.182V239.682H202.482V240.182ZM206.839 240.182H206.339V278H206.839H207.339V240.182H206.839ZM206.839 278V277.5H202.629V278V278.5H206.839V278ZM202.629 278H203.129V273.642H202.629H202.129V278H202.629ZM202.629 273.642V273.142H202.112V273.642V274.142H202.629V273.642ZM202.112 273.642L201.687 273.379C201.378 273.878 200.932 274.517 200.346 275.299L200.746 275.599L201.146 275.899C201.741 275.106 202.206 274.44 202.537 273.905L202.112 273.642ZM200.746 275.599L200.348 275.296C199.809 276.004 199.024 276.659 197.971 277.25L198.216 277.686L198.461 278.122C199.599 277.482 200.501 276.746 201.143 275.902L200.746 275.599ZM198.216 277.686L197.975 277.248C196.979 277.796 195.613 278.091 193.839 278.091V278.591V279.091C195.71 279.091 197.261 278.782 198.457 278.124L198.216 277.686ZM194.43 274.676V275.176C196.27 275.176 197.857 274.695 199.164 273.709L198.862 273.31L198.561 272.911C197.454 273.746 196.087 274.176 194.43 274.176V274.676ZM198.862 273.31L199.166 273.707C200.456 272.72 201.424 271.365 202.08 269.667L201.614 269.487L201.147 269.307C200.548 270.859 199.681 272.053 198.558 272.913L198.862 273.31ZM201.614 269.487L202.08 269.666C202.735 267.961 203.055 266.008 203.055 263.818H202.555H202.055C202.055 265.912 201.748 267.739 201.147 269.308L201.614 269.487ZM202.555 263.818H203.055C203.055 261.653 202.741 259.737 202.098 258.079L201.632 258.26L201.166 258.441C201.754 259.959 202.055 261.748 202.055 263.818H202.555ZM201.632 258.26L202.099 258.08C201.454 256.404 200.489 255.078 199.195 254.127L198.899 254.53L198.603 254.933C199.722 255.755 200.579 256.915 201.165 258.439L201.632 258.26ZM198.899 254.53L199.198 254.129C197.89 253.155 196.291 252.682 194.43 252.682V253.182V253.682C196.115 253.682 197.495 254.107 198.6 254.931L198.899 254.53ZM194.43 253.182V252.682C192.495 252.682 190.843 253.18 189.509 254.208L189.814 254.604L190.119 255C191.247 254.131 192.673 253.682 194.43 253.682V253.182ZM189.814 254.604L189.509 254.207C188.209 255.206 187.24 256.56 186.595 258.248L187.062 258.426L187.53 258.604C188.116 257.067 188.982 255.873 190.118 255L189.814 254.604ZM187.062 258.426L186.595 258.25C185.967 259.915 185.658 261.773 185.658 263.818H186.158H186.658C186.658 261.874 186.952 260.138 187.53 258.602L187.062 258.426ZM186.158 263.818H185.658C185.658 265.888 185.973 267.783 186.613 269.496L187.081 269.321L187.549 269.146C186.958 267.56 186.658 265.786 186.658 263.818H186.158ZM187.081 269.321L186.614 269.5C187.27 271.21 188.242 272.592 189.539 273.627L189.851 273.236L190.163 272.845C189.022 271.935 188.148 270.707 187.548 269.142L187.081 269.321ZM189.851 273.236L189.543 273.63C190.876 274.67 192.516 275.176 194.43 275.176V274.676V274.176C192.7 274.176 191.287 273.722 190.158 272.842L189.851 273.236ZM246.67 269.561L246.228 269.329L246.227 269.329L246.67 269.561ZM240.466 276.209L240.213 275.778L240.212 275.778L240.466 276.209ZM222.683 276.209L222.428 276.639L222.43 276.64L222.683 276.209ZM216.479 269.543L216.035 269.774L216.036 269.776L216.479 269.543ZM216.479 248.639L216.036 248.407L216.036 248.407L216.479 248.639ZM222.683 241.973L222.43 241.542L222.429 241.542L222.683 241.973ZM240.466 241.973L240.212 242.404L240.213 242.404L240.466 241.973ZM246.67 248.639L246.227 248.87L246.228 248.873L246.67 248.639ZM240.724 251.834L240.268 252.038L240.27 252.041L240.724 251.834ZM237.031 247.347L236.759 247.766L236.762 247.768L237.031 247.347ZM226.136 247.347L226.406 247.768L226.408 247.766L226.136 247.347ZM222.425 251.834L221.969 251.627L221.969 251.629L222.425 251.834ZM222.425 266.366L221.968 266.571L221.97 266.574L222.425 266.366ZM226.136 270.854L225.864 271.273L225.867 271.275L226.136 270.854ZM237.031 270.854L237.301 271.275L237.303 271.273L237.031 270.854ZM240.724 266.366L240.269 266.16L240.268 266.161L240.724 266.366ZM248.96 259.091H248.46C248.46 263.104 247.709 266.51 246.228 269.329L246.67 269.561L247.113 269.794C248.685 266.801 249.46 263.228 249.46 259.091H248.96ZM246.67 269.561L246.227 269.329C244.753 272.146 242.748 274.29 240.213 275.778L240.466 276.209L240.719 276.64C243.428 275.05 245.559 272.762 247.113 269.793L246.67 269.561ZM240.466 276.209L240.212 275.778C237.686 277.267 234.815 278.017 231.584 278.017V278.517V279.017C234.976 279.017 238.026 278.228 240.72 276.64L240.466 276.209ZM231.584 278.517V278.017C228.353 278.017 225.475 277.267 222.936 275.778L222.683 276.209L222.43 276.64C225.136 278.228 228.191 279.017 231.584 279.017V278.517ZM222.683 276.209L222.939 275.779C220.414 274.279 218.408 272.127 216.921 269.309L216.479 269.543L216.036 269.776C217.603 272.744 219.733 275.037 222.428 276.639L222.683 276.209ZM216.479 269.543L216.922 269.312C215.453 266.493 214.707 263.092 214.707 259.091H214.207H213.707C213.707 263.215 214.476 266.782 216.035 269.774L216.479 269.543ZM214.207 259.091H214.707C214.707 255.077 215.453 251.677 216.922 248.871L216.479 248.639L216.036 248.407C214.476 251.387 213.707 254.955 213.707 259.091H214.207ZM216.479 248.639L216.921 248.872C218.408 246.042 220.414 243.891 222.937 242.404L222.683 241.973L222.429 241.542C219.733 243.132 217.602 245.426 216.036 248.407L216.479 248.639ZM222.683 241.973L222.936 242.404C225.475 240.914 228.353 240.165 231.584 240.165V239.665V239.165C228.191 239.165 225.136 239.954 222.43 241.542L222.683 241.973ZM231.584 239.665V240.165C234.815 240.165 237.686 240.914 240.212 242.404L240.466 241.973L240.72 241.542C238.026 239.954 234.976 239.165 231.584 239.165V239.665ZM240.466 241.973L240.213 242.404C242.748 243.892 244.753 246.042 246.227 248.87L246.67 248.639L247.114 248.408C245.56 245.426 243.428 243.132 240.719 241.542L240.466 241.973ZM246.67 248.639L246.228 248.873C247.709 251.678 248.46 255.078 248.46 259.091H248.96H249.46C249.46 254.954 248.685 251.386 247.113 248.406L246.67 248.639ZM242.072 259.091H242.572C242.572 256.173 242.116 253.679 241.179 251.626L240.724 251.834L240.27 252.041C241.13 253.928 241.572 256.272 241.572 259.091H242.072ZM240.724 251.834L241.181 251.63C240.261 249.573 238.971 247.996 237.301 246.926L237.031 247.347L236.762 247.768C238.243 248.717 239.415 250.13 240.268 252.038L240.724 251.834ZM237.031 247.347L237.303 246.927C235.639 245.848 233.727 245.314 231.584 245.314V245.814V246.314C233.553 246.314 235.272 246.802 236.759 247.766L237.031 247.347ZM231.584 245.814V245.314C229.441 245.314 227.529 245.848 225.864 246.927L226.136 247.347L226.408 247.766C227.896 246.802 229.615 246.314 231.584 246.314V245.814ZM226.136 247.347L225.867 246.926C224.197 247.995 222.901 249.572 221.969 251.627L222.425 251.834L222.88 252.04C223.746 250.132 224.924 248.717 226.406 247.768L226.136 247.347ZM222.425 251.834L221.969 251.629C221.046 253.68 220.595 256.174 220.595 259.091H221.095H221.595C221.595 256.271 222.031 253.927 222.881 252.039L222.425 251.834ZM221.095 259.091H220.595C220.595 262.008 221.046 264.507 221.968 266.571L222.425 266.366L222.881 266.162C222.031 264.262 221.595 261.91 221.595 259.091H221.095ZM222.425 266.366L221.97 266.574C222.902 268.617 224.197 270.192 225.864 271.273L226.136 270.854L226.408 270.434C224.924 269.472 223.745 268.056 222.88 266.159L222.425 266.366ZM226.136 270.854L225.867 271.275C227.531 272.341 229.442 272.868 231.584 272.868V272.368V271.868C229.614 271.868 227.893 271.386 226.406 270.433L226.136 270.854ZM231.584 272.368V272.868C233.726 272.868 235.637 272.341 237.301 271.275L237.031 270.854L236.762 270.433C235.274 271.386 233.554 271.868 231.584 271.868V272.368ZM237.031 270.854L237.303 271.273C238.971 270.192 240.261 268.616 241.18 266.572L240.724 266.366L240.268 266.161C239.415 268.057 238.243 269.472 236.759 270.434L237.031 270.854ZM240.724 266.366L241.18 266.573C242.116 264.509 242.572 262.009 242.572 259.091H242.072H241.572C241.572 261.91 241.131 264.26 240.269 266.16L240.724 266.366ZM255.142 288.636H254.642V289.136H255.142V288.636ZM255.142 249.636V249.136H254.642V249.636H255.142ZM261.716 249.636H262.216V249.136H261.716V249.636ZM261.716 254.327H261.216V254.827H261.716V254.327ZM262.103 254.327V254.827H262.412L262.551 254.55L262.103 254.327ZM263.562 252.129L263.951 252.444L263.953 252.441L263.562 252.129ZM266.11 250.116L266.34 250.561L266.344 250.558L266.11 250.116ZM276.137 250.947L275.869 251.369L275.872 251.371L276.137 250.947ZM280.348 255.878L279.896 256.092L279.897 256.095L280.348 255.878ZM280.385 271.795L279.932 271.583V271.583L280.385 271.795ZM276.211 276.781L276.484 277.2L276.211 276.781ZM266.184 277.686L265.959 278.132V278.132L266.184 277.686ZM263.599 275.729L263.213 276.047L263.219 276.054L263.599 275.729ZM262.103 273.531L262.547 273.301L262.407 273.031H262.103V273.531ZM261.826 273.531V273.031H261.326V273.531H261.826ZM261.826 288.636V289.136H262.326V288.636H261.826ZM262.473 268.638L262.004 268.813L262.006 268.817L262.473 268.638ZM264.744 271.869L264.435 272.262L264.44 272.266L264.744 271.869ZM272.075 271.832L272.385 272.225L272.388 272.222L272.075 271.832ZM274.328 268.564L273.859 268.39L273.858 268.392L274.328 268.564ZM274.346 259.128L274.815 258.955V258.955L274.346 259.128ZM272.093 255.915L272.4 255.52V255.52L272.093 255.915ZM264.725 255.878L265.026 256.277V256.277L264.725 255.878ZM262.454 259.036L261.987 258.857L261.986 258.861L262.454 259.036ZM255.142 288.636H255.642V249.636H255.142H254.642V288.636H255.142ZM255.142 249.636V250.136H261.716V249.636V249.136H255.142V249.636ZM261.716 249.636H261.216V254.327H261.716H262.216V249.636H261.716ZM261.716 254.327V254.827H262.103V254.327V253.827H261.716V254.327ZM262.103 254.327L262.551 254.55C262.875 253.901 263.339 253.199 263.951 252.444L263.562 252.129L263.174 251.815C262.529 252.611 262.021 253.373 261.656 254.103L262.103 254.327ZM263.562 252.129L263.953 252.441C264.529 251.718 265.32 251.088 266.34 250.561L266.11 250.116L265.881 249.672C264.759 250.252 263.851 250.965 263.171 251.818L263.562 252.129ZM266.11 250.116L266.344 250.558C267.321 250.042 268.601 249.767 270.21 249.767V249.267V248.767C268.495 248.767 267.042 249.059 265.877 249.674L266.11 250.116ZM270.21 249.267V249.767C272.311 249.767 274.193 250.303 275.869 251.369L276.137 250.947L276.406 250.526C274.561 249.352 272.491 248.767 270.21 248.767V249.267ZM276.137 250.947L275.872 251.371C277.552 252.421 278.896 253.986 279.896 256.092L280.348 255.878L280.799 255.663C279.731 253.412 278.268 251.689 276.402 250.523L276.137 250.947ZM280.348 255.878L279.897 256.095C280.903 258.177 281.417 260.757 281.417 263.855H281.917H282.417C282.417 260.651 281.886 257.912 280.798 255.66L280.348 255.878ZM281.917 263.855H281.417C281.417 266.917 280.915 269.487 279.932 271.583L280.385 271.795L280.837 272.008C281.898 269.746 282.417 267.022 282.417 263.855H281.917ZM280.385 271.795L279.932 271.583C278.944 273.69 277.61 275.275 275.939 276.362L276.211 276.781L276.484 277.2C278.333 275.998 279.782 274.259 280.837 272.008L280.385 271.795ZM276.211 276.781L275.939 276.362C274.264 277.451 272.366 277.999 270.228 277.999V278.499V278.999C272.547 278.999 274.637 278.401 276.484 277.2L276.211 276.781ZM270.228 278.499V277.999C268.655 277.999 267.391 277.736 266.41 277.24L266.184 277.686L265.959 278.132C267.12 278.72 268.551 278.999 270.228 278.999V278.499ZM266.184 277.686L266.41 277.24C265.387 276.722 264.581 276.108 263.979 275.404L263.599 275.729L263.219 276.054C263.922 276.876 264.84 277.566 265.959 278.132L266.184 277.686ZM263.599 275.729L263.985 275.41C263.361 274.655 262.884 273.952 262.547 273.301L262.103 273.531L261.659 273.761C262.037 274.49 262.557 275.252 263.213 276.047L263.599 275.729ZM262.103 273.531V273.031H261.826V273.531V274.031H262.103V273.531ZM261.826 273.531H261.326V288.636H261.826H262.326V273.531H261.826ZM261.826 288.636V288.136H255.142V288.636V289.136H261.826V288.636ZM261.697 263.818H261.197C261.197 265.698 261.462 267.367 262.004 268.813L262.473 268.638L262.941 268.462C262.449 267.151 262.197 265.607 262.197 263.818H261.697ZM262.473 268.638L262.006 268.817C262.562 270.265 263.367 271.422 264.435 272.262L264.744 271.869L265.053 271.477C264.151 270.766 263.442 269.768 262.939 268.459L262.473 268.638ZM264.744 271.869L264.44 272.266C265.535 273.105 266.852 273.514 268.363 273.514V273.014V272.514C267.043 272.514 265.947 272.16 265.048 271.472L264.744 271.869ZM268.363 273.014V273.514C269.934 273.514 271.286 273.093 272.385 272.225L272.075 271.832L271.765 271.44C270.87 272.147 269.747 272.514 268.363 272.514V273.014ZM272.075 271.832L272.388 272.222C273.466 271.357 274.266 270.187 274.797 268.736L274.328 268.564L273.858 268.392C273.38 269.698 272.678 270.707 271.762 271.442L272.075 271.832ZM274.328 268.564L274.796 268.738C275.338 267.282 275.603 265.639 275.603 263.818H275.103H274.603C274.603 265.543 274.352 267.064 273.859 268.39L274.328 268.564ZM275.103 263.818H275.603C275.603 262.011 275.344 260.387 274.815 258.955L274.346 259.128L273.877 259.301C274.358 260.602 274.603 262.105 274.603 263.818H275.103ZM274.346 259.128L274.815 258.955C274.283 257.514 273.482 256.361 272.4 255.52L272.093 255.915L271.786 256.309C272.699 257.019 273.4 258.008 273.877 259.301L274.346 259.128ZM272.093 255.915L272.4 255.52C271.3 254.665 269.943 254.251 268.363 254.251V254.751V255.251C269.762 255.251 270.892 255.614 271.786 256.309L272.093 255.915ZM268.363 254.751V254.251C266.843 254.251 265.521 254.653 264.425 255.478L264.725 255.878L265.026 256.277C265.925 255.601 267.027 255.251 268.363 255.251V254.751ZM264.725 255.878L264.425 255.478C263.341 256.295 262.532 257.43 261.987 258.857L262.454 259.036L262.921 259.214C263.41 257.933 264.116 256.963 265.026 256.277L264.725 255.878ZM262.454 259.036L261.986 258.861C261.455 260.284 261.197 261.94 261.197 263.818H261.697H262.197C262.197 262.028 262.444 260.496 262.923 259.21L262.454 259.036ZM301.805 249.636H302.305V249.136H301.805V249.636ZM301.805 254.807V255.307H302.305V254.807H301.805ZM285.5 254.807H285V255.307H285.5V254.807ZM285.5 249.636V249.136H285V249.636H285.5ZM289.525 242.841V242.341H289.025V242.841H289.525ZM296.21 242.841H296.71V242.341H296.21V242.841ZM296.616 271.537L296.181 271.783L296.184 271.789L296.188 271.796L296.616 271.537ZM297.724 272.497L297.547 272.965V272.965L297.724 272.497ZM300.383 272.663L300.298 272.171L300.295 272.171L300.383 272.663ZM301.196 272.497L301.684 272.392L301.574 271.879L301.067 272.014L301.196 272.497ZM302.322 277.723L302.485 278.196L302.904 278.051L302.811 277.618L302.322 277.723ZM300.789 278.129L300.681 277.641L300.679 277.642L300.789 278.129ZM298.389 278.388L298.376 277.888L298.374 277.888L298.389 278.388ZM293.865 277.631L293.67 278.091L293.674 278.093L293.865 277.631ZM290.67 275.009L290.252 275.283L290.254 275.286L290.67 275.009ZM289.525 270.577L290.025 270.58V270.577H289.525ZM301.805 249.636H301.305V254.807H301.805H302.305V249.636H301.805ZM301.805 254.807V254.307H285.5V254.807V255.307H301.805V254.807ZM285.5 254.807H286V249.636H285.5H285V254.807H285.5ZM285.5 249.636V250.136H301.805V249.636V249.136H285.5V249.636ZM289.525 242.841V243.341H296.21V242.841V242.341H289.525V242.841ZM296.21 242.841H295.71V269.469H296.21H296.71V242.841H296.21ZM296.21 269.469H295.71C295.71 270.405 295.849 271.194 296.181 271.783L296.616 271.537L297.052 271.291C296.842 270.919 296.71 270.33 296.71 269.469H296.21ZM296.616 271.537L296.188 271.796C296.522 272.347 296.974 272.748 297.547 272.965L297.724 272.497L297.901 272.03C297.563 271.902 297.277 271.663 297.044 271.278L296.616 271.537ZM297.724 272.497L297.547 272.965C298.066 273.161 298.632 273.256 299.238 273.256V272.756V272.256C298.737 272.256 298.293 272.178 297.901 272.03L297.724 272.497ZM299.238 272.756V273.256C299.681 273.256 300.092 273.223 300.471 273.156L300.383 272.663L300.295 272.171C299.985 272.227 299.633 272.256 299.238 272.256V272.756ZM300.383 272.663L300.468 273.156C300.829 273.094 301.118 273.035 301.324 272.98L301.196 272.497L301.067 272.014C300.904 272.057 300.651 272.11 300.298 272.171L300.383 272.663ZM301.196 272.497L300.707 272.603L301.833 277.828L302.322 277.723L302.811 277.618L301.684 272.392L301.196 272.497ZM302.322 277.723L302.159 277.25C301.829 277.364 301.339 277.495 300.681 277.641L300.789 278.129L300.898 278.617C301.569 278.468 302.101 278.328 302.485 278.196L302.322 277.723ZM300.789 278.129L300.679 277.642C300.069 277.78 299.303 277.864 298.376 277.888L298.389 278.388L298.402 278.888C299.37 278.862 300.205 278.774 300.9 278.617L300.789 278.129ZM298.389 278.388L298.374 277.888C296.76 277.935 295.323 277.692 294.055 277.169L293.865 277.631L293.674 278.093C295.09 278.678 296.67 278.939 298.404 278.888L298.389 278.388ZM293.865 277.631L294.059 277.17C292.805 276.641 291.818 275.829 291.086 274.731L290.67 275.009L290.254 275.286C291.098 276.551 292.241 277.488 293.67 278.091L293.865 277.631ZM290.67 275.009L291.088 274.734C290.379 273.654 290.013 272.279 290.025 270.58L289.525 270.577L289.025 270.573C289.012 272.42 289.41 274 290.252 275.283L290.67 275.009ZM289.525 270.577H290.025V242.841H289.525H289.025V270.577H289.525ZM307.396 278H306.896V278.5H307.396V278ZM307.396 249.636V249.136H306.896V249.636H307.396ZM314.08 249.636H314.58V249.136H314.08V249.636ZM314.08 278V278.5H314.58V278H314.08ZM308.023 244.558L307.682 244.923L307.685 244.926L308.023 244.558ZM308.023 239.425L308.362 239.793L308.365 239.79L308.023 239.425ZM313.489 239.425L313.145 239.787L313.151 239.793L313.489 239.425ZM313.489 244.558L313.831 244.924L313.831 244.923L313.489 244.558ZM307.396 278H307.896V249.636H307.396H306.896V278H307.396ZM307.396 249.636V250.136H314.08V249.636V249.136H307.396V249.636ZM314.08 249.636H313.58V278H314.08H314.58V249.636H314.08ZM314.08 278V277.5H307.396V278V278.5H314.08V278ZM310.756 245.611V245.111C309.82 245.111 309.031 244.805 308.362 244.19L308.023 244.558L307.685 244.926C308.543 245.715 309.575 246.111 310.756 246.111V245.611ZM308.023 244.558L308.365 244.193C307.697 243.569 307.379 242.843 307.379 241.991H306.879H306.379C306.379 243.134 306.823 244.12 307.682 244.923L308.023 244.558ZM306.879 241.991H307.379C307.379 241.126 307.698 240.403 308.362 239.793L308.023 239.425L307.685 239.057C306.822 239.85 306.379 240.838 306.379 241.991H306.879ZM308.023 239.425L308.365 239.79C309.034 239.164 309.823 238.854 310.756 238.854V238.354V237.854C309.573 237.854 308.539 238.258 307.682 239.06L308.023 239.425ZM310.756 238.354V238.854C311.704 238.854 312.49 239.165 313.145 239.787L313.489 239.425L313.834 239.062C312.987 238.257 311.951 237.854 310.756 237.854V238.354ZM313.489 239.425L313.151 239.793C313.814 240.403 314.134 241.126 314.134 241.991H314.634H315.134C315.134 240.838 314.691 239.85 313.828 239.057L313.489 239.425ZM314.634 241.991H314.134C314.134 242.843 313.815 243.569 313.148 244.193L313.489 244.558L313.831 244.923C314.69 244.12 315.134 243.134 315.134 241.991H314.634ZM313.489 244.558L313.148 244.193C312.494 244.804 311.707 245.111 310.756 245.111V245.611V246.111C311.948 246.111 312.983 245.716 313.831 244.924L313.489 244.558ZM320.954 278H320.454V278.5H320.954V278ZM320.954 249.636V249.136H320.454V249.636H320.954ZM327.343 249.636H327.843V249.136H327.343V249.636ZM327.343 254.456H326.843V254.956H327.343V254.456ZM327.676 254.456V254.956H328.026L328.146 254.627L327.676 254.456ZM330.612 250.652L330.889 251.068L330.892 251.066L330.612 250.652ZM340.362 250.67L340.072 251.078L340.077 251.081L340.362 250.67ZM343.169 254.456L342.695 254.616L342.81 254.956H343.169V254.456ZM343.464 254.456V254.956H343.803L343.929 254.641L343.464 254.456ZM346.64 250.689L346.906 251.112L346.907 251.112L346.64 250.689ZM360.841 278V278.5H361.341V278H360.841ZM354.137 278H353.637V278.5H354.137V278ZM352.734 256.136L352.403 256.511L352.406 256.514L352.734 256.136ZM345.514 256.413L345.143 256.078L345.142 256.079L345.514 256.413ZM344.166 278V278.5H344.666V278H344.166ZM337.61 278H337.11V278.5H337.61V278ZM336.281 256.21L335.927 256.564L335.93 256.566L336.281 256.21ZM330.224 255.638L330.484 256.065L330.489 256.062L330.224 255.638ZM328.341 257.688L328.781 257.923L328.783 257.921L328.341 257.688ZM327.639 278V278.5H328.139V278H327.639ZM320.954 278H321.454V249.636H320.954H320.454V278H320.954ZM320.954 249.636V250.136H327.343V249.636V249.136H320.954V249.636ZM327.343 249.636H326.843V254.456H327.343H327.843V249.636H327.343ZM327.343 254.456V254.956H327.676V254.456V253.956H327.343V254.456ZM327.676 254.456L328.146 254.627C328.702 253.096 329.616 251.917 330.889 251.068L330.612 250.652L330.335 250.236C328.874 251.209 327.831 252.566 327.206 254.285L327.676 254.456ZM330.612 250.652L330.892 251.066C332.164 250.207 333.694 249.767 335.505 249.767V249.267V248.767C333.525 248.767 331.793 249.251 330.332 250.238L330.612 250.652ZM335.505 249.267V249.767C337.342 249.767 338.855 250.213 340.072 251.078L340.362 250.67L340.651 250.263C339.235 249.256 337.509 248.767 335.505 248.767V249.267ZM340.362 250.67L340.077 251.081C341.314 251.941 342.186 253.113 342.695 254.616L343.169 254.456L343.642 254.296C343.068 252.599 342.069 251.247 340.647 250.26L340.362 250.67ZM343.169 254.456V254.956H343.464V254.456V253.956H343.169V254.456ZM343.464 254.456L343.929 254.641C344.516 253.168 345.503 251.994 346.906 251.112L346.64 250.689L346.374 250.266C344.799 251.255 343.668 252.593 343 254.271L343.464 254.456ZM346.64 250.689L346.907 251.112C348.317 250.222 350 249.767 351.977 249.767V249.267V248.767C349.842 248.767 347.967 249.26 346.373 250.266L346.64 250.689ZM351.977 249.267V249.767C354.471 249.767 356.468 250.551 358.013 252.095L358.366 251.741L358.72 251.388C356.965 249.633 354.702 248.767 351.977 248.767V249.267ZM358.366 251.741L358.013 252.095C359.539 253.621 360.341 255.882 360.341 258.962H360.841H361.341C361.341 255.714 360.493 253.161 358.72 251.388L358.366 251.741ZM360.841 258.962H360.341V278H360.841H361.341V258.962H360.841ZM360.841 278V277.5H354.137V278V278.5H360.841V278ZM354.137 278H354.637V259.996H354.137H353.637V278H354.137ZM354.137 259.996H354.637C354.637 258.153 354.147 256.701 353.062 255.759L352.734 256.136L352.406 256.514C353.193 257.197 353.637 258.317 353.637 259.996H354.137ZM352.734 256.136L353.065 255.761C352.03 254.849 350.764 254.399 349.299 254.399V254.899V255.399C350.543 255.399 351.567 255.774 352.403 256.511L352.734 256.136ZM349.299 254.899V254.399C347.574 254.399 346.166 254.944 345.143 256.078L345.514 256.413L345.885 256.748C346.684 255.864 347.799 255.399 349.299 255.399V254.899ZM345.514 256.413L345.142 256.079C344.146 257.185 343.666 258.611 343.666 260.31H344.166H344.666C344.666 258.808 345.085 257.636 345.885 256.748L345.514 256.413ZM344.166 260.31H343.666V278H344.166H344.666V260.31H344.166ZM344.166 278V277.5H337.61V278V278.5H344.166V278ZM337.61 278H338.11V259.719H337.61H337.11V278H337.61ZM337.61 259.719H338.11C338.11 258.146 337.63 256.839 336.632 255.854L336.281 256.21L335.93 256.566C336.704 257.33 337.11 258.362 337.11 259.719H337.61ZM336.281 256.21L336.634 255.857C335.653 254.875 334.374 254.399 332.846 254.399V254.899V255.399C334.15 255.399 335.161 255.797 335.927 256.564L336.281 256.21ZM332.846 254.899V254.399C331.796 254.399 330.829 254.67 329.959 255.214L330.224 255.638L330.489 256.062C331.195 255.621 331.976 255.399 332.846 255.399V254.899ZM330.224 255.638L329.964 255.211C329.092 255.742 328.405 256.495 327.898 257.454L328.341 257.688L328.783 257.921C329.212 257.107 329.78 256.494 330.484 256.065L330.224 255.638ZM328.341 257.688L327.9 257.452C327.387 258.41 327.139 259.516 327.139 260.753H327.639H328.139C328.139 259.651 328.359 258.713 328.781 257.923L328.341 257.688ZM327.639 260.753H327.139V278H327.639H328.139V260.753H327.639ZM327.639 278V277.5H320.954V278V278.5H327.639V278ZM367.622 278H367.122V278.5H367.622V278ZM367.622 249.636V249.136H367.122V249.636H367.622ZM374.307 249.636H374.807V249.136H374.307V249.636ZM374.307 278V278.5H374.807V278H374.307ZM368.25 244.558L367.908 244.923L367.912 244.926L368.25 244.558ZM368.25 239.425L368.588 239.793L368.592 239.79L368.25 239.425ZM373.716 239.425L373.371 239.787L373.378 239.793L373.716 239.425ZM373.716 244.558L374.057 244.924L374.057 244.923L373.716 244.558ZM367.622 278H368.122V249.636H367.622H367.122V278H367.622ZM367.622 249.636V250.136H374.307V249.636V249.136H367.622V249.636ZM374.307 249.636H373.807V278H374.307H374.807V249.636H374.307ZM374.307 278V277.5H367.622V278V278.5H374.307V278ZM370.983 245.611V245.111C370.047 245.111 369.257 244.805 368.588 244.19L368.25 244.558L367.912 244.926C368.769 245.715 369.802 246.111 370.983 246.111V245.611ZM368.25 244.558L368.592 244.193C367.924 243.569 367.605 242.843 367.605 241.991H367.105H366.605C366.605 243.134 367.05 244.12 367.908 244.923L368.25 244.558ZM367.105 241.991H367.605C367.605 241.126 367.925 240.403 368.588 239.793L368.25 239.425L367.912 239.057C367.049 239.85 366.605 240.838 366.605 241.991H367.105ZM368.25 239.425L368.592 239.79C369.261 239.164 370.049 238.854 370.983 238.854V238.354V237.854C369.799 237.854 368.766 238.258 367.908 239.06L368.25 239.425ZM370.983 238.354V238.854C371.931 238.854 372.717 239.165 373.371 239.787L373.716 239.425L374.06 239.062C373.213 238.257 372.177 237.854 370.983 237.854V238.354ZM373.716 239.425L373.378 239.793C374.041 240.403 374.361 241.126 374.361 241.991H374.861H375.361C375.361 240.838 374.917 239.85 374.054 239.057L373.716 239.425ZM374.861 241.991H374.361C374.361 242.843 374.042 243.569 373.374 244.193L373.716 244.558L374.057 244.923C374.916 244.12 375.361 243.134 375.361 241.991H374.861ZM373.716 244.558L373.375 244.193C372.72 244.804 371.933 245.111 370.983 245.111V245.611V246.111C372.175 246.111 373.21 245.716 374.057 244.924L373.716 244.558ZM380.811 278H380.311V278.5H380.811V278ZM380.811 273.753L380.421 273.441L380.311 273.578V273.753H380.811ZM395.436 255.416L395.827 255.728L395.936 255.591V255.416H395.436ZM395.436 255.176H395.936V254.676H395.436V255.176ZM381.292 255.176H380.792V255.676H381.292V255.176ZM381.292 249.636V249.136H380.792V249.636H381.292ZM403.617 249.636H404.117V249.136H403.617V249.636ZM403.617 254.197L404.013 254.503L404.117 254.368V254.197H403.617ZM389.694 272.22L389.298 271.914L389.194 272.05V272.22H389.694ZM389.694 272.46H389.194V272.96H389.694V272.46ZM404.097 272.46H404.597V271.96H404.097V272.46ZM404.097 278V278.5H404.597V278H404.097ZM380.811 278H381.311V273.753H380.811H380.311V278H380.811ZM380.811 273.753L381.202 274.065L395.827 255.728L395.436 255.416L395.046 255.104L380.421 273.441L380.811 273.753ZM395.436 255.416H395.936V255.176H395.436H394.936V255.416H395.436ZM395.436 255.176V254.676H381.292V255.176V255.676H395.436V255.176ZM381.292 255.176H381.792V249.636H381.292H380.792V255.176H381.292ZM381.292 249.636V250.136H403.617V249.636V249.136H381.292V249.636ZM403.617 249.636H403.117V254.197H403.617H404.117V249.636H403.617ZM403.617 254.197L403.221 253.892L389.298 271.914L389.694 272.22L390.089 272.526L404.013 254.503L403.617 254.197ZM389.694 272.22H389.194V272.46H389.694H390.194V272.22H389.694ZM389.694 272.46V272.96H404.097V272.46V271.96H389.694V272.46ZM404.097 272.46H403.597V278H404.097H404.597V272.46H404.097ZM404.097 278V277.5H380.811V278V278.5H404.097V278ZM414.756 276.781L414.505 277.214L414.508 277.215L414.756 276.781ZM410.011 271.722L409.564 271.947L409.565 271.948L410.011 271.722ZM410.011 256.303L409.564 256.077L409.564 256.078L410.011 256.303ZM414.701 251.132L414.962 251.558L414.964 251.557L414.701 251.132ZM426.722 250.116L426.551 250.586L426.555 250.588L426.722 250.116ZM430.859 252.702L430.509 253.059L430.511 253.061L430.859 252.702ZM433.702 257.17L433.235 257.348L433.236 257.35L433.702 257.17ZM434.737 265.646V266.146H435.237V265.646H434.737ZM411.488 265.646H410.988V266.146H411.488V265.646ZM411.488 261.141V260.641H410.988V261.141H411.488ZM428.329 261.141V261.641H428.834L428.829 261.136L428.329 261.141ZM427.498 257.724L427.057 257.961L427.059 257.963L427.498 257.724ZM425.227 255.342L424.969 255.771L424.971 255.772L425.227 255.342ZM418.265 255.472L418.532 255.894L418.535 255.892L418.265 255.472ZM415.846 258.057L415.406 257.819L415.405 257.821L415.846 258.057ZM414.978 261.547L414.478 261.542V261.547H414.978ZM415.883 269.727L415.437 269.955L415.438 269.956L415.883 269.727ZM418.413 272.423L418.162 272.856L418.166 272.858L418.413 272.423ZM424.857 272.94L425.02 273.413L425.026 273.411L424.857 272.94ZM426.907 271.703L426.565 271.338L426.907 271.703ZM428.218 269.69L428.274 269.193L427.885 269.15L427.749 269.517L428.218 269.69ZM434.46 270.392L434.946 270.508L435.077 269.958L434.515 269.895L434.46 270.392ZM432.207 274.713L431.835 274.379L431.835 274.379L432.207 274.713ZM427.996 277.557L428.178 278.023L428.18 278.022L427.996 277.557ZM422.124 278.554V278.054C419.351 278.054 416.984 277.478 415.004 276.347L414.756 276.781L414.508 277.215C416.665 278.448 419.21 279.054 422.124 279.054V278.554ZM414.756 276.781L415.008 276.349C413.037 275.205 411.522 273.591 410.456 271.495L410.011 271.722L409.565 271.948C410.715 274.211 412.364 275.97 414.505 277.214L414.756 276.781ZM410.011 271.722L410.457 271.496C409.391 269.388 408.849 266.889 408.849 263.984H408.349H407.849C407.849 267.013 408.414 269.673 409.564 271.947L410.011 271.722ZM408.349 263.984H408.849C408.849 261.131 409.39 258.649 410.457 256.527L410.011 256.303L409.564 256.078C408.415 258.363 407.849 261.003 407.849 263.984H408.349ZM410.011 256.303L410.457 256.528C411.538 254.39 413.039 252.738 414.962 251.558L414.701 251.132L414.44 250.706C412.35 251.988 410.724 253.783 409.564 256.077L410.011 256.303ZM414.701 251.132L414.964 251.557C416.881 250.37 419.144 249.767 421.773 249.767V249.267V248.767C418.986 248.767 416.534 249.408 414.438 250.707L414.701 251.132ZM421.773 249.267V249.767C423.467 249.767 425.058 250.041 426.551 250.586L426.722 250.116L426.894 249.647C425.285 249.059 423.577 248.767 421.773 248.767V249.267ZM426.722 250.116L426.555 250.588C428.05 251.117 429.366 251.94 430.509 253.059L430.859 252.702L431.209 252.344C429.963 251.125 428.522 250.224 426.889 249.645L426.722 250.116ZM430.859 252.702L430.511 253.061C431.657 254.172 432.568 255.597 433.235 257.348L433.702 257.17L434.17 256.992C433.458 255.125 432.473 253.57 431.207 252.343L430.859 252.702ZM433.702 257.17L433.236 257.35C433.898 259.076 434.237 261.154 434.237 263.597H434.737H435.237C435.237 261.066 434.886 258.86 434.169 256.991L433.702 257.17ZM434.737 263.597H434.237V265.646H434.737H435.237V263.597H434.737ZM434.737 265.646V265.146H411.488V265.646V266.146H434.737V265.646ZM411.488 265.646H411.988V261.141H411.488H410.988V265.646H411.488ZM411.488 261.141V261.641H428.329V261.141V260.641H411.488V261.141ZM428.329 261.141L428.829 261.136C428.816 259.784 428.523 258.564 427.937 257.486L427.498 257.724L427.059 257.963C427.556 258.88 427.817 259.936 427.829 261.145L428.329 261.141ZM427.498 257.724L427.938 257.488C427.354 256.4 426.534 255.538 425.482 254.913L425.227 255.342L424.971 255.772C425.864 256.304 426.558 257.03 427.057 257.961L427.498 257.724ZM425.227 255.342L425.485 254.914C424.436 254.282 423.224 253.974 421.866 253.974V254.474V254.974C423.068 254.974 424.097 255.245 424.969 255.771L425.227 255.342ZM421.866 254.474V253.974C420.414 253.974 419.118 254.329 417.995 255.051L418.265 255.472L418.535 255.892C419.48 255.285 420.584 254.974 421.866 254.974V254.474ZM418.265 255.472L417.998 255.049C416.892 255.747 416.026 256.672 415.406 257.819L415.846 258.057L416.286 258.294C416.823 257.299 417.57 256.501 418.532 255.894L418.265 255.472ZM415.846 258.057L415.405 257.821C414.799 258.955 414.491 260.198 414.478 261.542L414.978 261.547L415.478 261.552C415.49 260.36 415.761 259.276 416.287 258.293L415.846 258.057ZM414.978 261.547H414.478V265.48H414.978H415.478V261.547H414.978ZM414.978 265.48H414.478C414.478 267.19 414.791 268.687 415.437 269.955L415.883 269.727L416.328 269.5C415.769 268.404 415.478 267.07 415.478 265.48H414.978ZM415.883 269.727L415.438 269.956C416.083 271.206 416.992 272.178 418.162 272.856L418.413 272.423L418.663 271.991C417.667 271.413 416.889 270.587 416.327 269.498L415.883 269.727ZM418.413 272.423L418.166 272.858C419.336 273.523 420.692 273.847 422.217 273.847V273.347V272.847C420.836 272.847 419.656 272.555 418.66 271.989L418.413 272.423ZM422.217 273.347V273.847C423.235 273.847 424.172 273.705 425.02 273.413L424.857 272.94L424.695 272.467C423.967 272.718 423.143 272.847 422.217 272.847V273.347ZM424.857 272.94L425.026 273.411C425.875 273.106 426.618 272.659 427.249 272.068L426.907 271.703L426.565 271.338C426.039 271.831 425.416 272.208 424.688 272.47L424.857 272.94ZM426.907 271.703L427.249 272.068C427.888 271.469 428.367 270.731 428.687 269.864L428.218 269.69L427.749 269.517C427.478 270.25 427.083 270.854 426.565 271.338L426.907 271.703ZM428.218 269.69L428.162 270.187L434.404 270.889L434.46 270.392L434.515 269.895L428.274 269.193L428.218 269.69ZM434.46 270.392L433.973 270.276C433.598 271.846 432.886 273.211 431.835 274.379L432.207 274.713L432.578 275.048C433.744 273.753 434.533 272.237 434.946 270.508L434.46 270.392ZM432.207 274.713L431.835 274.379C430.797 275.533 429.461 276.44 427.812 277.092L427.996 277.557L428.18 278.022C429.955 277.32 431.425 276.33 432.579 275.047L432.207 274.713ZM427.996 277.557L427.815 277.091C426.172 277.729 424.278 278.054 422.124 278.054V278.554V279.054C424.378 279.054 426.398 278.714 428.178 278.023L427.996 277.557Z" fill="#FCFCFC"/>
</svg>
