<svg width="512" height="512" viewBox="0 0 512 512" fill="none" xmlns="http://www.w3.org/2000/svg">
<path d="M24.3798 247.999C27.5562 223.727 49.8021 206.666 74.0673 209.892C98.3324 213.118 115.428 235.409 112.252 259.681C109.075 283.952 86.8294 301.013 62.5643 297.787C38.2995 294.561 21.2037 272.27 24.3798 247.999ZM73.2889 215.841C52.3086 213.052 33.0735 227.804 30.327 248.79C27.5811 269.776 42.3627 289.048 63.3427 291.838C84.3229 294.627 103.558 279.876 106.305 258.891C109.051 237.905 94.2692 218.63 73.2889 215.841Z" fill="#00454A"/>
<path d="M99.032 232.114L64.5228 235.133L84.3921 263.509L99.032 232.114ZM33.4999 278L35.2206 280.457L78.6357 250.058L76.9149 247.6L75.1942 245.143L31.7791 275.543L33.4999 278Z" fill="#00454A"/>
<path d="M148.631 276H143.829L157.716 238.182H162.443L176.329 276H171.528L160.227 244.165H159.932L148.631 276ZM150.403 261.227H169.756V265.29H150.403V261.227ZM192.339 276.591C189.976 276.591 187.889 275.994 186.079 274.8C184.27 273.593 182.854 271.894 181.832 269.703C180.81 267.5 180.3 264.896 180.3 261.892C180.3 258.913 180.81 256.328 181.832 254.136C182.854 251.945 184.276 250.252 186.098 249.058C187.92 247.864 190.025 247.267 192.413 247.267C194.26 247.267 195.719 247.575 196.79 248.19C197.873 248.794 198.698 249.483 199.264 250.259C199.843 251.022 200.292 251.65 200.612 252.142H200.981V238.182H205.339V276H201.129V271.642H200.612C200.292 272.159 199.837 272.812 199.246 273.599C198.655 274.375 197.811 275.071 196.716 275.686C195.62 276.289 194.161 276.591 192.339 276.591ZM192.93 272.676C194.678 272.676 196.156 272.221 197.362 271.31C198.569 270.386 199.486 269.112 200.114 267.487C200.741 265.85 201.055 263.96 201.055 261.818C201.055 259.701 200.748 257.848 200.132 256.26C199.516 254.66 198.605 253.416 197.399 252.53C196.193 251.631 194.703 251.182 192.93 251.182C191.084 251.182 189.545 251.656 188.314 252.604C187.095 253.539 186.178 254.813 185.562 256.426C184.959 258.027 184.658 259.824 184.658 261.818C184.658 263.837 184.965 265.671 185.581 267.321C186.209 268.958 187.132 270.263 188.351 271.236C189.582 272.196 191.108 272.676 192.93 272.676ZM247.46 257.091C247.46 261.166 246.697 264.656 245.17 267.561C243.656 270.454 241.588 272.67 238.966 274.209C236.356 275.748 233.395 276.517 230.084 276.517C226.772 276.517 223.805 275.748 221.183 274.209C218.573 272.658 216.505 270.436 214.979 267.543C213.464 264.637 212.707 261.153 212.707 257.091C212.707 253.016 213.464 249.532 214.979 246.639C216.505 243.734 218.573 241.512 221.183 239.973C223.805 238.434 226.772 237.665 230.084 237.665C233.395 237.665 236.356 238.434 238.966 239.973C241.588 241.512 243.656 243.734 245.17 246.639C246.697 249.532 247.46 253.016 247.46 257.091ZM240.572 257.091C240.572 254.223 240.123 251.804 239.224 249.834C238.338 247.852 237.107 246.356 235.531 245.347C233.955 244.325 232.14 243.814 230.084 243.814C228.028 243.814 226.212 244.325 224.636 245.347C223.06 246.356 221.823 247.852 220.925 249.834C220.038 251.804 219.595 254.223 219.595 257.091C219.595 259.959 220.038 262.384 220.925 264.366C221.823 266.336 223.06 267.832 224.636 268.854C226.212 269.863 228.028 270.368 230.084 270.368C232.14 270.368 233.955 269.863 235.531 268.854C237.107 267.832 238.338 266.336 239.224 264.366C240.123 262.384 240.572 259.959 240.572 257.091ZM253.642 286.636V247.636H260.215V252.327H260.603C260.948 251.637 261.434 250.905 262.062 250.129C262.69 249.341 263.539 248.67 264.61 248.116C265.681 247.55 267.048 247.267 268.71 247.267C270.901 247.267 272.877 247.827 274.637 248.947C276.41 250.055 277.813 251.699 278.848 253.878C279.894 256.045 280.417 258.704 280.417 261.855C280.417 264.97 279.906 267.616 278.884 269.795C277.863 271.974 276.472 273.636 274.711 274.781C272.951 275.926 270.956 276.499 268.728 276.499C267.103 276.499 265.755 276.228 264.684 275.686C263.613 275.144 262.751 274.492 262.099 273.729C261.459 272.953 260.96 272.221 260.603 271.531H260.326V286.636H253.642ZM260.197 261.818C260.197 263.652 260.455 265.259 260.973 266.638C261.502 268.017 262.259 269.094 263.244 269.869C264.241 270.633 265.447 271.014 266.863 271.014C268.34 271.014 269.578 270.62 270.575 269.832C271.572 269.032 272.323 267.943 272.828 266.564C273.345 265.173 273.603 263.591 273.603 261.818C273.603 260.058 273.351 258.494 272.846 257.128C272.341 255.761 271.59 254.69 270.593 253.915C269.596 253.139 268.353 252.751 266.863 252.751C265.435 252.751 264.223 253.127 263.225 253.878C262.228 254.629 261.471 255.681 260.954 257.036C260.449 258.39 260.197 259.984 260.197 261.818ZM300.305 247.636V252.807H284V247.636H300.305ZM288.025 240.841H294.71V267.469C294.71 268.367 294.845 269.057 295.116 269.537C295.399 270.005 295.768 270.325 296.224 270.497C296.679 270.67 297.184 270.756 297.738 270.756C298.157 270.756 298.538 270.725 298.883 270.663C299.24 270.602 299.511 270.546 299.696 270.497L300.822 275.723C300.465 275.846 299.954 275.982 299.289 276.129C298.637 276.277 297.837 276.363 296.889 276.388C295.214 276.437 293.706 276.185 292.365 275.631C291.023 275.064 289.958 274.19 289.17 273.009C288.394 271.827 288.013 270.349 288.025 268.577V240.841ZM305.895 276V247.636H312.58V276H305.895ZM309.256 243.611C308.198 243.611 307.287 243.26 306.523 242.558C305.76 241.844 305.378 240.989 305.378 239.991C305.378 238.982 305.76 238.126 306.523 237.425C307.287 236.711 308.198 236.354 309.256 236.354C310.327 236.354 311.238 236.711 311.989 237.425C312.752 238.126 313.134 238.982 313.134 239.991C313.134 240.989 312.752 241.844 311.989 242.558C311.238 243.26 310.327 243.611 309.256 243.611ZM319.454 276V247.636H325.843V252.456H326.176C326.767 250.831 327.745 249.563 329.112 248.652C330.478 247.729 332.109 247.267 334.005 247.267C335.926 247.267 337.545 247.735 338.862 248.67C340.191 249.594 341.127 250.856 341.669 252.456H341.964C342.592 250.88 343.651 249.625 345.14 248.689C346.642 247.741 348.421 247.267 350.477 247.267C353.087 247.267 355.216 248.092 356.866 249.741C358.516 251.391 359.34 253.798 359.34 256.962V276H352.637V257.996C352.637 256.235 352.17 254.949 351.234 254.136C350.298 253.312 349.153 252.899 347.799 252.899C346.187 252.899 344.925 253.404 344.014 254.413C343.115 255.411 342.666 256.709 342.666 258.31V276H336.11V257.719C336.11 256.254 335.667 255.084 334.781 254.21C333.907 253.336 332.762 252.899 331.346 252.899C330.386 252.899 329.512 253.145 328.724 253.638C327.936 254.118 327.308 254.801 326.84 255.688C326.373 256.562 326.139 257.583 326.139 258.753V276H319.454ZM366.122 276V247.636H372.807V276H366.122ZM369.483 243.611C368.424 243.611 367.513 243.26 366.75 242.558C365.987 241.844 365.605 240.989 365.605 239.991C365.605 238.982 365.987 238.126 366.75 237.425C367.513 236.711 368.424 236.354 369.483 236.354C370.554 236.354 371.465 236.711 372.216 237.425C372.979 238.126 373.361 238.982 373.361 239.991C373.361 240.989 372.979 241.844 372.216 242.558C371.465 243.26 370.554 243.611 369.483 243.611ZM379.311 276V271.753L393.936 253.416V253.176H379.791V247.636H402.117V252.197L388.193 270.22V270.46H402.597V276H379.311ZM420.624 276.554C417.78 276.554 415.324 275.963 413.256 274.781C411.2 273.587 409.618 271.901 408.511 269.722C407.403 267.53 406.849 264.951 406.849 261.984C406.849 259.067 407.403 256.506 408.511 254.303C409.631 252.087 411.194 250.363 413.201 249.132C415.208 247.889 417.565 247.267 420.273 247.267C422.021 247.267 423.671 247.55 425.222 248.116C426.786 248.67 428.164 249.532 429.359 250.702C430.565 251.871 431.513 253.361 432.202 255.17C432.892 256.968 433.236 259.11 433.236 261.597V263.646H409.988V259.141H426.829C426.816 257.86 426.539 256.722 425.998 255.724C425.456 254.715 424.699 253.921 423.726 253.342C422.766 252.764 421.646 252.474 420.366 252.474C418.999 252.474 417.799 252.807 416.765 253.472C415.731 254.124 414.924 254.986 414.346 256.057C413.779 257.116 413.49 258.279 413.478 259.547V263.48C413.478 265.13 413.779 266.545 414.383 267.727C414.986 268.897 415.829 269.795 416.913 270.423C417.996 271.039 419.264 271.347 420.717 271.347C421.689 271.347 422.569 271.211 423.357 270.94C424.145 270.657 424.828 270.245 425.407 269.703C425.985 269.161 426.422 268.491 426.718 267.69L432.959 268.392C432.565 270.042 431.815 271.482 430.707 272.713C429.611 273.932 428.208 274.88 426.496 275.557C424.785 276.222 422.828 276.554 420.624 276.554Z" fill="#060606"/>
<path d="M148.631 276V276.5H148.984L149.102 276.167L148.631 276ZM143.829 276L143.36 275.828L143.113 276.5H143.829V276ZM157.716 238.182V237.682H157.367L157.246 238.009L157.716 238.182ZM162.443 238.182L162.912 238.009L162.792 237.682H162.443V238.182ZM176.329 276V276.5H177.046L176.799 275.828L176.329 276ZM171.528 276L171.057 276.167L171.175 276.5H171.528V276ZM160.227 244.165L160.698 243.998L160.58 243.665H160.227V244.165ZM159.932 244.165V243.665H159.579L159.461 243.998L159.932 244.165ZM150.403 261.227V260.727H149.903V261.227H150.403ZM169.756 261.227H170.256V260.727H169.756V261.227ZM169.756 265.29V265.79H170.256V265.29H169.756ZM150.403 265.29H149.903V265.79H150.403V265.29ZM148.631 276V275.5H143.829V276V276.5H148.631V276ZM143.829 276L144.299 276.172L158.185 238.354L157.716 238.182L157.246 238.009L143.36 275.828L143.829 276ZM157.716 238.182V238.682H162.443V238.182V237.682H157.716V238.182ZM162.443 238.182L161.974 238.354L175.86 276.172L176.329 276L176.799 275.828L162.912 238.009L162.443 238.182ZM176.329 276V275.5H171.528V276V276.5H176.329V276ZM171.528 276L171.999 275.833L160.698 243.998L160.227 244.165L159.756 244.332L171.057 276.167L171.528 276ZM160.227 244.165V243.665H159.932V244.165V244.665H160.227V244.165ZM159.932 244.165L159.461 243.998L148.159 275.833L148.631 276L149.102 276.167L160.403 244.332L159.932 244.165ZM150.403 261.227V261.727H169.756V261.227V260.727H150.403V261.227ZM169.756 261.227H169.256V265.29H169.756H170.256V261.227H169.756ZM169.756 265.29V264.79H150.403V265.29V265.79H169.756V265.29ZM150.403 265.29H150.903V261.227H150.403H149.903V265.29H150.403ZM186.079 274.8L185.802 275.216L185.804 275.217L186.079 274.8ZM181.832 269.703L181.379 269.913L181.379 269.914L181.832 269.703ZM181.832 254.136L181.379 253.925V253.925L181.832 254.136ZM186.098 249.058L185.824 248.64V248.64L186.098 249.058ZM196.79 248.19L196.54 248.624L196.546 248.627L196.79 248.19ZM199.264 250.259L198.86 250.553L198.866 250.561L199.264 250.259ZM200.612 252.142L200.193 252.415L200.341 252.642H200.612V252.142ZM200.981 252.142V252.642H201.481V252.142H200.981ZM200.981 238.182V237.682H200.481V238.182H200.981ZM205.339 238.182H205.839V237.682H205.339V238.182ZM205.339 276V276.5H205.839V276H205.339ZM201.129 276H200.629V276.5H201.129V276ZM201.129 271.642H201.629V271.142H201.129V271.642ZM200.612 271.642V271.142H200.334L200.187 271.379L200.612 271.642ZM199.246 273.599L199.643 273.902L199.646 273.899L199.246 273.599ZM196.716 275.686L196.957 276.124L196.961 276.122L196.716 275.686ZM197.362 271.31L197.663 271.709L197.666 271.707L197.362 271.31ZM200.114 267.487L200.58 267.667L200.58 267.666L200.114 267.487ZM200.132 256.26L199.665 256.439L199.666 256.441L200.132 256.26ZM197.399 252.53L197.1 252.931L197.103 252.933L197.399 252.53ZM188.314 252.604L188.618 253L188.619 253L188.314 252.604ZM185.562 256.426L185.095 256.248L185.095 256.25L185.562 256.426ZM185.581 267.321L185.112 267.496L185.114 267.5L185.581 267.321ZM188.351 271.236L188.039 271.627L188.043 271.63L188.351 271.236ZM192.339 276.591V276.091C190.064 276.091 188.075 275.518 186.355 274.382L186.079 274.8L185.804 275.217C187.703 276.47 189.887 277.091 192.339 277.091V276.591ZM186.079 274.8L186.357 274.384C184.632 273.234 183.273 271.61 182.285 269.492L181.832 269.703L181.379 269.914C182.435 272.179 183.908 273.953 185.802 275.216L186.079 274.8ZM181.832 269.703L182.286 269.493C181.301 267.369 180.8 264.84 180.8 261.892H180.3H179.8C179.8 264.952 180.32 267.63 181.379 269.913L181.832 269.703ZM180.3 261.892H180.8C180.8 258.969 181.301 256.459 182.285 254.348L181.832 254.136L181.379 253.925C180.32 256.196 179.8 258.856 179.8 261.892H180.3ZM181.832 254.136L182.285 254.348C183.272 252.231 184.636 250.614 186.372 249.476L186.098 249.058L185.824 248.64C183.916 249.891 182.436 251.659 181.379 253.925L181.832 254.136ZM186.098 249.058L186.372 249.476C188.105 248.341 190.113 247.767 192.413 247.767V247.267V246.767C189.937 246.767 187.735 247.387 185.824 248.64L186.098 249.058ZM192.413 247.267V247.767C194.212 247.767 195.574 248.068 196.541 248.624L196.79 248.19L197.039 247.757C195.863 247.081 194.307 246.767 192.413 246.767V247.267ZM196.79 248.19L196.546 248.627C197.584 249.205 198.347 249.851 198.86 250.553L199.264 250.259L199.668 249.964C199.048 249.115 198.162 248.382 197.033 247.753L196.79 248.19ZM199.264 250.259L198.866 250.561C199.441 251.319 199.882 251.936 200.193 252.415L200.612 252.142L201.031 251.87C200.702 251.363 200.245 250.724 199.663 249.956L199.264 250.259ZM200.612 252.142V252.642H200.981V252.142V251.642H200.612V252.142ZM200.981 252.142H201.481V238.182H200.981H200.481V252.142H200.981ZM200.981 238.182V238.682H205.339V238.182V237.682H200.981V238.182ZM205.339 238.182H204.839V276H205.339H205.839V238.182H205.339ZM205.339 276V275.5H201.129V276V276.5H205.339V276ZM201.129 276H201.629V271.642H201.129H200.629V276H201.129ZM201.129 271.642V271.142H200.612V271.642V272.142H201.129V271.642ZM200.612 271.642L200.187 271.379C199.878 271.878 199.432 272.517 198.846 273.299L199.246 273.599L199.646 273.899C200.241 273.106 200.706 272.44 201.037 271.905L200.612 271.642ZM199.246 273.599L198.848 273.296C198.308 274.004 197.524 274.659 196.471 275.25L196.716 275.686L196.961 276.122C198.099 275.482 199.001 274.746 199.643 273.902L199.246 273.599ZM196.716 275.686L196.475 275.248C195.479 275.796 194.113 276.091 192.339 276.091V276.591V277.091C194.21 277.091 195.761 276.782 196.957 276.124L196.716 275.686ZM192.93 272.676V273.176C194.769 273.176 196.357 272.695 197.663 271.709L197.362 271.31L197.061 270.911C195.954 271.746 194.587 272.176 192.93 272.176V272.676ZM197.362 271.31L197.666 271.707C198.956 270.72 199.924 269.365 200.58 267.667L200.114 267.487L199.647 267.307C199.047 268.859 198.181 270.053 197.058 270.913L197.362 271.31ZM200.114 267.487L200.58 267.666C201.234 265.961 201.555 264.008 201.555 261.818H201.055H200.555C200.555 263.912 200.248 265.739 199.647 267.308L200.114 267.487ZM201.055 261.818H201.555C201.555 259.653 201.241 257.737 200.598 256.079L200.132 256.26L199.666 256.441C200.254 257.959 200.555 259.748 200.555 261.818H201.055ZM200.132 256.26L200.599 256.08C199.954 254.404 198.989 253.078 197.695 252.127L197.399 252.53L197.103 252.933C198.222 253.755 199.079 254.915 199.665 256.439L200.132 256.26ZM197.399 252.53L197.698 252.129C196.39 251.155 194.791 250.682 192.93 250.682V251.182V251.682C194.615 251.682 195.995 252.107 197.1 252.931L197.399 252.53ZM192.93 251.182V250.682C190.995 250.682 189.343 251.18 188.009 252.208L188.314 252.604L188.619 253C189.747 252.131 191.173 251.682 192.93 251.682V251.182ZM188.314 252.604L188.009 252.207C186.708 253.206 185.74 254.56 185.095 256.248L185.562 256.426L186.03 256.604C186.616 255.067 187.482 253.873 188.618 253L188.314 252.604ZM185.562 256.426L185.095 256.25C184.467 257.915 184.158 259.773 184.158 261.818H184.658H185.158C185.158 259.874 185.451 258.138 186.03 256.602L185.562 256.426ZM184.658 261.818H184.158C184.158 263.888 184.473 265.783 185.112 267.496L185.581 267.321L186.049 267.146C185.457 265.56 185.158 263.786 185.158 261.818H184.658ZM185.581 267.321L185.114 267.5C185.77 269.21 186.742 270.592 188.039 271.627L188.351 271.236L188.663 270.845C187.522 269.935 186.648 268.707 186.048 267.142L185.581 267.321ZM188.351 271.236L188.043 271.63C189.376 272.67 191.016 273.176 192.93 273.176V272.676V272.176C191.2 272.176 189.787 271.722 188.658 270.842L188.351 271.236ZM245.17 267.561L244.728 267.329L244.727 267.329L245.17 267.561ZM238.966 274.209L238.713 273.778L238.712 273.778L238.966 274.209ZM221.183 274.209L220.928 274.639L220.93 274.64L221.183 274.209ZM214.979 267.543L214.535 267.774L214.536 267.776L214.979 267.543ZM214.979 246.639L214.536 246.407L214.536 246.407L214.979 246.639ZM221.183 239.973L220.93 239.542L220.929 239.542L221.183 239.973ZM238.966 239.973L238.712 240.404L238.713 240.404L238.966 239.973ZM245.17 246.639L244.727 246.87L244.728 246.873L245.17 246.639ZM239.224 249.834L238.768 250.038L238.769 250.041L239.224 249.834ZM235.531 245.347L235.259 245.766L235.261 245.768L235.531 245.347ZM224.636 245.347L224.906 245.768L224.908 245.766L224.636 245.347ZM220.925 249.834L220.469 249.627L220.469 249.629L220.925 249.834ZM220.925 264.366L220.468 264.571L220.47 264.574L220.925 264.366ZM224.636 268.854L224.364 269.273L224.367 269.275L224.636 268.854ZM235.531 268.854L235.801 269.275L235.803 269.273L235.531 268.854ZM239.224 264.366L238.769 264.16L238.768 264.161L239.224 264.366ZM247.46 257.091H246.96C246.96 261.104 246.209 264.51 244.728 267.329L245.17 267.561L245.613 267.794C247.185 264.801 247.96 261.228 247.96 257.091H247.46ZM245.17 267.561L244.727 267.329C243.253 270.146 241.248 272.29 238.713 273.778L238.966 274.209L239.219 274.64C241.928 273.05 244.059 270.762 245.613 267.793L245.17 267.561ZM238.966 274.209L238.712 273.778C236.186 275.267 233.314 276.017 230.084 276.017V276.517V277.017C233.476 277.017 236.526 276.228 239.22 274.64L238.966 274.209ZM230.084 276.517V276.017C226.853 276.017 223.975 275.267 221.436 273.778L221.183 274.209L220.93 274.64C223.636 276.228 226.691 277.017 230.084 277.017V276.517ZM221.183 274.209L221.439 273.779C218.914 272.279 216.908 270.127 215.421 267.309L214.979 267.543L214.536 267.776C216.102 270.744 218.233 273.037 220.928 274.639L221.183 274.209ZM214.979 267.543L215.422 267.312C213.953 264.493 213.207 261.092 213.207 257.091H212.707H212.207C212.207 261.215 212.976 264.782 214.535 267.774L214.979 267.543ZM212.707 257.091H213.207C213.207 253.077 213.953 249.677 215.422 246.871L214.979 246.639L214.536 246.407C212.976 249.387 212.207 252.955 212.207 257.091H212.707ZM214.979 246.639L215.421 246.872C216.908 244.042 218.914 241.891 221.437 240.404L221.183 239.973L220.929 239.542C218.233 241.132 216.102 243.426 214.536 246.407L214.979 246.639ZM221.183 239.973L221.436 240.404C223.975 238.914 226.853 238.165 230.084 238.165V237.665V237.165C226.691 237.165 223.636 237.954 220.93 239.542L221.183 239.973ZM230.084 237.665V238.165C233.314 238.165 236.186 238.914 238.712 240.404L238.966 239.973L239.22 239.542C236.526 237.954 233.476 237.165 230.084 237.165V237.665ZM238.966 239.973L238.713 240.404C241.248 241.892 243.253 244.042 244.727 246.87L245.17 246.639L245.614 246.408C244.06 243.426 241.928 241.132 239.219 239.542L238.966 239.973ZM245.17 246.639L244.728 246.873C246.208 249.678 246.96 253.078 246.96 257.091H247.46H247.96C247.96 252.954 247.185 249.386 245.613 246.406L245.17 246.639ZM240.572 257.091H241.072C241.072 254.173 240.616 251.679 239.679 249.626L239.224 249.834L238.769 250.041C239.63 251.928 240.072 254.272 240.072 257.091H240.572ZM239.224 249.834L239.681 249.63C238.761 247.573 237.471 245.996 235.801 244.926L235.531 245.347L235.261 245.768C236.743 246.717 237.915 248.13 238.768 250.038L239.224 249.834ZM235.531 245.347L235.803 244.927C234.139 243.848 232.227 243.314 230.084 243.314V243.814V244.314C232.053 244.314 233.772 244.802 235.259 245.766L235.531 245.347ZM230.084 243.814V243.314C227.941 243.314 226.029 243.848 224.364 244.927L224.636 245.347L224.908 245.766C226.395 244.802 228.115 244.314 230.084 244.314V243.814ZM224.636 245.347L224.367 244.926C222.697 245.995 221.401 247.572 220.469 249.627L220.925 249.834L221.38 250.04C222.245 248.132 223.424 246.717 224.906 245.768L224.636 245.347ZM220.925 249.834L220.469 249.629C219.545 251.68 219.095 254.174 219.095 257.091H219.595H220.095C220.095 254.271 220.531 251.927 221.381 250.039L220.925 249.834ZM219.595 257.091H219.095C219.095 260.008 219.545 262.507 220.468 264.571L220.925 264.366L221.381 264.162C220.531 262.262 220.095 259.91 220.095 257.091H219.595ZM220.925 264.366L220.47 264.574C221.402 266.617 222.697 268.192 224.364 269.273L224.636 268.854L224.908 268.434C223.424 267.472 222.245 266.056 221.379 264.159L220.925 264.366ZM224.636 268.854L224.367 269.275C226.031 270.341 227.942 270.868 230.084 270.868V270.368V269.868C228.114 269.868 226.393 269.386 224.906 268.433L224.636 268.854ZM230.084 270.368V270.868C232.225 270.868 234.137 270.341 235.801 269.275L235.531 268.854L235.261 268.433C233.774 269.386 232.054 269.868 230.084 269.868V270.368ZM235.531 268.854L235.803 269.273C237.471 268.192 238.761 266.616 239.68 264.572L239.224 264.366L238.768 264.161C237.915 266.057 236.743 267.472 235.259 268.434L235.531 268.854ZM239.224 264.366L239.68 264.573C240.616 262.509 241.072 260.009 241.072 257.091H240.572H240.072C240.072 259.91 239.63 262.26 238.769 264.16L239.224 264.366ZM253.642 286.636H253.142V287.136H253.642V286.636ZM253.642 247.636V247.136H253.142V247.636H253.642ZM260.215 247.636H260.715V247.136H260.215V247.636ZM260.215 252.327H259.715V252.827H260.215V252.327ZM260.603 252.327V252.827H260.912L261.05 252.55L260.603 252.327ZM262.062 250.129L262.451 250.444L262.453 250.441L262.062 250.129ZM264.61 248.116L264.84 248.561L264.844 248.558L264.61 248.116ZM274.637 248.947L274.369 249.369L274.372 249.371L274.637 248.947ZM278.848 253.878L278.396 254.092L278.397 254.095L278.848 253.878ZM278.884 269.795L278.432 269.583V269.583L278.884 269.795ZM274.711 274.781L274.984 275.2L274.711 274.781ZM264.684 275.686L264.459 276.132V276.132L264.684 275.686ZM262.099 273.729L261.713 274.047L261.719 274.054L262.099 273.729ZM260.603 271.531L261.047 271.301L260.907 271.031H260.603V271.531ZM260.326 271.531V271.031H259.826V271.531H260.326ZM260.326 286.636V287.136H260.826V286.636H260.326ZM260.973 266.638L260.504 266.813L260.506 266.817L260.973 266.638ZM263.244 269.869L262.934 270.262L262.94 270.266L263.244 269.869ZM270.575 269.832L270.885 270.225L270.888 270.222L270.575 269.832ZM272.828 266.564L272.359 266.39L272.358 266.392L272.828 266.564ZM272.846 257.128L273.315 256.955V256.955L272.846 257.128ZM270.593 253.915L270.9 253.52V253.52L270.593 253.915ZM263.225 253.878L263.526 254.277V254.277L263.225 253.878ZM260.954 257.036L260.487 256.857L260.486 256.861L260.954 257.036ZM253.642 286.636H254.142V247.636H253.642H253.142V286.636H253.642ZM253.642 247.636V248.136H260.215V247.636V247.136H253.642V247.636ZM260.215 247.636H259.715V252.327H260.215H260.715V247.636H260.215ZM260.215 252.327V252.827H260.603V252.327V251.827H260.215V252.327ZM260.603 252.327L261.05 252.55C261.375 251.901 261.839 251.199 262.451 250.444L262.062 250.129L261.673 249.815C261.029 250.611 260.521 251.373 260.156 252.103L260.603 252.327ZM262.062 250.129L262.453 250.441C263.029 249.718 263.819 249.088 264.84 248.561L264.61 248.116L264.381 247.672C263.259 248.252 262.35 248.965 261.671 249.818L262.062 250.129ZM264.61 248.116L264.844 248.558C265.821 248.042 267.101 247.767 268.71 247.767V247.267V246.767C266.995 246.767 265.541 247.059 264.377 247.674L264.61 248.116ZM268.71 247.267V247.767C270.811 247.767 272.693 248.303 274.369 249.369L274.637 248.947L274.906 248.526C273.061 247.352 270.991 246.767 268.71 246.767V247.267ZM274.637 248.947L274.372 249.371C276.052 250.421 277.396 251.986 278.396 254.092L278.848 253.878L279.299 253.663C278.231 251.412 276.768 249.689 274.902 248.523L274.637 248.947ZM278.848 253.878L278.397 254.095C279.402 256.177 279.917 258.757 279.917 261.855H280.417H280.917C280.917 258.651 280.385 255.912 279.298 253.66L278.848 253.878ZM280.417 261.855H279.917C279.917 264.917 279.415 267.487 278.432 269.583L278.884 269.795L279.337 270.008C280.398 267.746 280.917 265.022 280.917 261.855H280.417ZM278.884 269.795L278.432 269.583C277.444 271.69 276.11 273.275 274.439 274.362L274.711 274.781L274.984 275.2C276.833 273.998 278.282 272.259 279.337 270.008L278.884 269.795ZM274.711 274.781L274.439 274.362C272.764 275.451 270.866 275.999 268.728 275.999V276.499V276.999C271.047 276.999 273.137 276.401 274.984 275.2L274.711 274.781ZM268.728 276.499V275.999C267.155 275.999 265.891 275.736 264.91 275.24L264.684 275.686L264.459 276.132C265.62 276.72 267.051 276.999 268.728 276.999V276.499ZM264.684 275.686L264.91 275.24C263.887 274.722 263.081 274.108 262.479 273.404L262.099 273.729L261.719 274.054C262.422 274.876 263.34 275.566 264.459 276.132L264.684 275.686ZM262.099 273.729L262.485 273.41C261.861 272.655 261.384 271.952 261.047 271.301L260.603 271.531L260.159 271.761C260.536 272.49 261.057 273.252 261.713 274.047L262.099 273.729ZM260.603 271.531V271.031H260.326V271.531V272.031H260.603V271.531ZM260.326 271.531H259.826V286.636H260.326H260.826V271.531H260.326ZM260.326 286.636V286.136H253.642V286.636V287.136H260.326V286.636ZM260.197 261.818H259.697C259.697 263.698 259.962 265.367 260.504 266.813L260.973 266.638L261.441 266.462C260.949 265.151 260.697 263.607 260.697 261.818H260.197ZM260.973 266.638L260.506 266.817C261.062 268.265 261.867 269.422 262.935 270.262L263.244 269.869L263.553 269.477C262.651 268.766 261.942 267.768 261.439 266.459L260.973 266.638ZM263.244 269.869L262.94 270.266C264.035 271.105 265.352 271.514 266.863 271.514V271.014V270.514C265.543 270.514 264.447 270.16 263.548 269.472L263.244 269.869ZM266.863 271.014V271.514C268.434 271.514 269.785 271.093 270.885 270.225L270.575 269.832L270.265 269.44C269.37 270.147 268.247 270.514 266.863 270.514V271.014ZM270.575 269.832L270.888 270.222C271.966 269.357 272.766 268.187 273.297 266.736L272.828 266.564L272.358 266.392C271.88 267.698 271.178 268.707 270.262 269.442L270.575 269.832ZM272.828 266.564L273.296 266.738C273.838 265.282 274.103 263.639 274.103 261.818H273.603H273.103C273.103 263.543 272.852 265.064 272.359 266.39L272.828 266.564ZM273.603 261.818H274.103C274.103 260.011 273.844 258.387 273.315 256.955L272.846 257.128L272.377 257.301C272.858 258.602 273.103 260.105 273.103 261.818H273.603ZM272.846 257.128L273.315 256.955C272.783 255.514 271.982 254.361 270.9 253.52L270.593 253.915L270.286 254.309C271.199 255.019 271.9 256.008 272.377 257.301L272.846 257.128ZM270.593 253.915L270.9 253.52C269.8 252.665 268.443 252.251 266.863 252.251V252.751V253.251C268.262 253.251 269.392 253.614 270.286 254.309L270.593 253.915ZM266.863 252.751V252.251C265.343 252.251 264.021 252.653 262.925 253.478L263.225 253.878L263.526 254.277C264.424 253.601 265.527 253.251 266.863 253.251V252.751ZM263.225 253.878L262.925 253.478C261.841 254.295 261.032 255.43 260.487 256.857L260.954 257.036L261.421 257.214C261.91 255.933 262.616 254.963 263.526 254.277L263.225 253.878ZM260.954 257.036L260.486 256.861C259.955 258.284 259.697 259.94 259.697 261.818H260.197H260.697C260.697 260.028 260.943 258.496 261.423 257.21L260.954 257.036ZM300.305 247.636H300.805V247.136H300.305V247.636ZM300.305 252.807V253.307H300.805V252.807H300.305ZM284 252.807H283.5V253.307H284V252.807ZM284 247.636V247.136H283.5V247.636H284ZM288.025 240.841V240.341H287.525V240.841H288.025ZM294.71 240.841H295.21V240.341H294.71V240.841ZM295.116 269.537L294.681 269.783L294.684 269.789L294.688 269.796L295.116 269.537ZM296.224 270.497L296.047 270.965V270.965L296.224 270.497ZM298.883 270.663L298.798 270.171L298.795 270.171L298.883 270.663ZM299.696 270.497L300.184 270.392L300.074 269.879L299.567 270.014L299.696 270.497ZM300.822 275.723L300.985 276.196L301.404 276.051L301.311 275.618L300.822 275.723ZM299.289 276.129L299.181 275.641L299.179 275.642L299.289 276.129ZM296.889 276.388L296.876 275.888L296.874 275.888L296.889 276.388ZM292.365 275.631L292.17 276.091L292.174 276.093L292.365 275.631ZM289.17 273.009L288.752 273.283L288.754 273.286L289.17 273.009ZM288.025 268.577L288.525 268.58V268.577H288.025ZM300.305 247.636H299.805V252.807H300.305H300.805V247.636H300.305ZM300.305 252.807V252.307H284V252.807V253.307H300.305V252.807ZM284 252.807H284.5V247.636H284H283.5V252.807H284ZM284 247.636V248.136H300.305V247.636V247.136H284V247.636ZM288.025 240.841V241.341H294.71V240.841V240.341H288.025V240.841ZM294.71 240.841H294.21V267.469H294.71H295.21V240.841H294.71ZM294.71 267.469H294.21C294.21 268.405 294.349 269.194 294.681 269.783L295.116 269.537L295.551 269.291C295.342 268.919 295.21 268.33 295.21 267.469H294.71ZM295.116 269.537L294.688 269.796C295.022 270.347 295.474 270.748 296.047 270.965L296.224 270.497L296.401 270.03C296.063 269.902 295.776 269.663 295.544 269.278L295.116 269.537ZM296.224 270.497L296.047 270.965C296.566 271.161 297.132 271.256 297.738 271.256V270.756V270.256C297.236 270.256 296.793 270.178 296.401 270.03L296.224 270.497ZM297.738 270.756V271.256C298.181 271.256 298.592 271.223 298.971 271.156L298.883 270.663L298.795 270.171C298.484 270.227 298.133 270.256 297.738 270.256V270.756ZM298.883 270.663L298.968 271.156C299.329 271.094 299.618 271.035 299.824 270.98L299.696 270.497L299.567 270.014C299.404 270.057 299.151 270.11 298.798 270.171L298.883 270.663ZM299.696 270.497L299.207 270.603L300.333 275.828L300.822 275.723L301.311 275.618L300.184 270.392L299.696 270.497ZM300.822 275.723L300.659 275.25C300.329 275.364 299.839 275.495 299.181 275.641L299.289 276.129L299.398 276.617C300.069 276.468 300.601 276.328 300.985 276.196L300.822 275.723ZM299.289 276.129L299.179 275.642C298.569 275.78 297.803 275.864 296.876 275.888L296.889 276.388L296.902 276.888C297.87 276.862 298.705 276.774 299.4 276.617L299.289 276.129ZM296.889 276.388L296.874 275.888C295.259 275.935 293.823 275.692 292.555 275.169L292.365 275.631L292.174 276.093C293.59 276.678 295.17 276.939 296.903 276.888L296.889 276.388ZM292.365 275.631L292.559 275.17C291.305 274.641 290.318 273.829 289.586 272.731L289.17 273.009L288.754 273.286C289.598 274.551 290.741 275.488 292.17 276.091L292.365 275.631ZM289.17 273.009L289.588 272.734C288.879 271.654 288.513 270.279 288.525 268.58L288.025 268.577L287.525 268.573C287.512 270.42 287.91 272 288.752 273.283L289.17 273.009ZM288.025 268.577H288.525V240.841H288.025H287.525V268.577H288.025ZM305.895 276H305.395V276.5H305.895V276ZM305.895 247.636V247.136H305.395V247.636H305.895ZM312.58 247.636H313.08V247.136H312.58V247.636ZM312.58 276V276.5H313.08V276H312.58ZM306.523 242.558L306.182 242.923L306.185 242.926L306.523 242.558ZM306.523 237.425L306.862 237.793L306.865 237.79L306.523 237.425ZM311.989 237.425L311.645 237.787L311.651 237.793L311.989 237.425ZM311.989 242.558L312.331 242.924L312.331 242.923L311.989 242.558ZM305.895 276H306.395V247.636H305.895H305.395V276H305.895ZM305.895 247.636V248.136H312.58V247.636V247.136H305.895V247.636ZM312.58 247.636H312.08V276H312.58H313.08V247.636H312.58ZM312.58 276V275.5H305.895V276V276.5H312.58V276ZM309.256 243.611V243.111C308.32 243.111 307.531 242.805 306.862 242.19L306.523 242.558L306.185 242.926C307.043 243.715 308.075 244.111 309.256 244.111V243.611ZM306.523 242.558L306.865 242.193C306.197 241.569 305.878 240.843 305.878 239.991H305.378H304.878C304.878 241.134 305.323 242.12 306.182 242.923L306.523 242.558ZM305.378 239.991H305.878C305.878 239.126 306.198 238.403 306.862 237.793L306.523 237.425L306.185 237.057C305.322 237.85 304.878 238.838 304.878 239.991H305.378ZM306.523 237.425L306.865 237.79C307.534 237.164 308.323 236.854 309.256 236.854V236.354V235.854C308.073 235.854 307.039 236.258 306.182 237.06L306.523 237.425ZM309.256 236.354V236.854C310.204 236.854 310.99 237.165 311.645 237.787L311.989 237.425L312.334 237.062C311.486 236.257 310.451 235.854 309.256 235.854V236.354ZM311.989 237.425L311.651 237.793C312.314 238.403 312.634 239.126 312.634 239.991H313.134H313.634C313.634 238.838 313.191 237.85 312.328 237.057L311.989 237.425ZM313.134 239.991H312.634C312.634 240.843 312.315 241.569 311.648 242.193L311.989 242.558L312.331 242.923C313.19 242.12 313.634 241.134 313.634 239.991H313.134ZM311.989 242.558L311.648 242.193C310.994 242.804 310.206 243.111 309.256 243.111V243.611V244.111C310.448 244.111 311.483 243.716 312.331 242.924L311.989 242.558ZM319.454 276H318.954V276.5H319.454V276ZM319.454 247.636V247.136H318.954V247.636H319.454ZM325.843 247.636H326.343V247.136H325.843V247.636ZM325.843 252.456H325.343V252.956H325.843V252.456ZM326.176 252.456V252.956H326.526L326.646 252.627L326.176 252.456ZM329.112 248.652L329.389 249.068L329.392 249.066L329.112 248.652ZM338.862 248.67L338.572 249.078L338.577 249.081L338.862 248.67ZM341.669 252.456L341.195 252.616L341.31 252.956H341.669V252.456ZM341.964 252.456V252.956H342.303L342.429 252.641L341.964 252.456ZM345.14 248.689L345.406 249.112L345.407 249.112L345.14 248.689ZM359.34 276V276.5H359.84V276H359.34ZM352.637 276H352.137V276.5H352.637V276ZM351.234 254.136L350.903 254.511L350.906 254.514L351.234 254.136ZM344.014 254.413L343.643 254.078L343.642 254.079L344.014 254.413ZM342.666 276V276.5H343.166V276H342.666ZM336.11 276H335.61V276.5H336.11V276ZM334.781 254.21L334.427 254.564L334.43 254.566L334.781 254.21ZM328.724 253.638L328.984 254.065L328.989 254.062L328.724 253.638ZM326.84 255.688L327.281 255.923L327.283 255.921L326.84 255.688ZM326.139 276V276.5H326.639V276H326.139ZM319.454 276H319.954V247.636H319.454H318.954V276H319.454ZM319.454 247.636V248.136H325.843V247.636V247.136H319.454V247.636ZM325.843 247.636H325.343V252.456H325.843H326.343V247.636H325.843ZM325.843 252.456V252.956H326.176V252.456V251.956H325.843V252.456ZM326.176 252.456L326.646 252.627C327.202 251.096 328.116 249.917 329.389 249.068L329.112 248.652L328.834 248.236C327.374 249.209 326.331 250.566 325.706 252.285L326.176 252.456ZM329.112 248.652L329.392 249.066C330.664 248.207 332.194 247.767 334.005 247.767V247.267V246.767C332.025 246.767 330.293 247.251 328.832 248.238L329.112 248.652ZM334.005 247.267V247.767C335.842 247.767 337.355 248.213 338.572 249.078L338.862 248.67L339.151 248.263C337.734 247.256 336.009 246.767 334.005 246.767V247.267ZM338.862 248.67L338.577 249.081C339.814 249.941 340.686 251.113 341.195 252.616L341.669 252.456L342.142 252.296C341.568 250.599 340.569 249.247 339.147 248.26L338.862 248.67ZM341.669 252.456V252.956H341.964V252.456V251.956H341.669V252.456ZM341.964 252.456L342.429 252.641C343.016 251.168 344.003 249.994 345.406 249.112L345.14 248.689L344.874 248.266C343.298 249.255 342.168 250.593 341.5 252.271L341.964 252.456ZM345.14 248.689L345.407 249.112C346.817 248.222 348.5 247.767 350.477 247.767V247.267V246.767C348.342 246.767 346.467 247.26 344.873 248.266L345.14 248.689ZM350.477 247.267V247.767C352.971 247.767 354.968 248.551 356.512 250.095L356.866 249.741L357.22 249.388C355.465 247.633 353.202 246.767 350.477 246.767V247.267ZM356.866 249.741L356.512 250.095C358.039 251.621 358.84 253.882 358.84 256.962H359.34H359.84C359.84 253.714 358.992 251.161 357.22 249.388L356.866 249.741ZM359.34 256.962H358.84V276H359.34H359.84V256.962H359.34ZM359.34 276V275.5H352.637V276V276.5H359.34V276ZM352.637 276H353.137V257.996H352.637H352.137V276H352.637ZM352.637 257.996H353.137C353.137 256.153 352.647 254.701 351.562 253.759L351.234 254.136L350.906 254.514C351.692 255.197 352.137 256.317 352.137 257.996H352.637ZM351.234 254.136L351.565 253.761C350.529 252.849 349.264 252.399 347.799 252.399V252.899V253.399C349.043 253.399 350.067 253.774 350.903 254.511L351.234 254.136ZM347.799 252.899V252.399C346.074 252.399 344.666 252.944 343.643 254.078L344.014 254.413L344.385 254.748C345.183 253.864 346.299 253.399 347.799 253.399V252.899ZM344.014 254.413L343.642 254.079C342.645 255.185 342.166 256.611 342.166 258.31H342.666H343.166C343.166 256.808 343.585 255.636 344.385 254.748L344.014 254.413ZM342.666 258.31H342.166V276H342.666H343.166V258.31H342.666ZM342.666 276V275.5H336.11V276V276.5H342.666V276ZM336.11 276H336.61V257.719H336.11H335.61V276H336.11ZM336.11 257.719H336.61C336.61 256.146 336.13 254.839 335.132 253.854L334.781 254.21L334.43 254.566C335.204 255.33 335.61 256.362 335.61 257.719H336.11ZM334.781 254.21L335.134 253.857C334.153 252.875 332.874 252.399 331.346 252.399V252.899V253.399C332.65 253.399 333.661 253.797 334.427 254.564L334.781 254.21ZM331.346 252.899V252.399C330.295 252.399 329.329 252.67 328.459 253.214L328.724 253.638L328.989 254.062C329.695 253.621 330.476 253.399 331.346 253.399V252.899ZM328.724 253.638L328.464 253.211C327.592 253.742 326.904 254.495 326.398 255.454L326.84 255.688L327.283 255.921C327.712 255.107 328.28 254.494 328.984 254.065L328.724 253.638ZM326.84 255.688L326.4 255.452C325.887 256.41 325.639 257.516 325.639 258.753H326.139H326.639C326.639 257.651 326.859 256.713 327.281 255.923L326.84 255.688ZM326.139 258.753H325.639V276H326.139H326.639V258.753H326.139ZM326.139 276V275.5H319.454V276V276.5H326.139V276ZM366.122 276H365.622V276.5H366.122V276ZM366.122 247.636V247.136H365.622V247.636H366.122ZM372.807 247.636H373.307V247.136H372.807V247.636ZM372.807 276V276.5H373.307V276H372.807ZM366.75 242.558L366.408 242.923L366.411 242.926L366.75 242.558ZM366.75 237.425L367.088 237.793L367.091 237.79L366.75 237.425ZM372.216 237.425L371.871 237.787L371.877 237.793L372.216 237.425ZM372.216 242.558L372.557 242.924L372.557 242.923L372.216 242.558ZM366.122 276H366.622V247.636H366.122H365.622V276H366.122ZM366.122 247.636V248.136H372.807V247.636V247.136H366.122V247.636ZM372.807 247.636H372.307V276H372.807H373.307V247.636H372.807ZM372.807 276V275.5H366.122V276V276.5H372.807V276ZM369.483 243.611V243.111C368.547 243.111 367.757 242.805 367.088 242.19L366.75 242.558L366.411 242.926C367.269 243.715 368.302 244.111 369.483 244.111V243.611ZM366.75 242.558L367.091 242.193C366.424 241.569 366.105 240.843 366.105 239.991H365.605H365.105C365.105 241.134 365.549 242.12 366.408 242.923L366.75 242.558ZM365.605 239.991H366.105C366.105 239.126 366.425 238.403 367.088 237.793L366.75 237.425L366.411 237.057C365.548 237.85 365.105 238.838 365.105 239.991H365.605ZM366.75 237.425L367.091 237.79C367.761 237.164 368.549 236.854 369.483 236.854V236.354V235.854C368.299 235.854 367.266 236.258 366.408 237.06L366.75 237.425ZM369.483 236.354V236.854C370.43 236.854 371.217 237.165 371.871 237.787L372.216 237.425L372.56 237.062C371.713 236.257 370.677 235.854 369.483 235.854V236.354ZM372.216 237.425L371.877 237.793C372.541 238.403 372.861 239.126 372.861 239.991H373.361H373.861C373.861 238.838 373.417 237.85 372.554 237.057L372.216 237.425ZM373.361 239.991H372.861C372.861 240.843 372.542 241.569 371.874 242.193L372.216 242.558L372.557 242.923C373.416 242.12 373.861 241.134 373.861 239.991H373.361ZM372.216 242.558L371.874 242.193C371.22 242.804 370.433 243.111 369.483 243.111V243.611V244.111C370.675 244.111 371.709 243.716 372.557 242.924L372.216 242.558ZM379.311 276H378.811V276.5H379.311V276ZM379.311 271.753L378.92 271.441L378.811 271.578V271.753H379.311ZM393.936 253.416L394.327 253.728L394.436 253.591V253.416H393.936ZM393.936 253.176H394.436V252.676H393.936V253.176ZM379.791 253.176H379.291V253.676H379.791V253.176ZM379.791 247.636V247.136H379.291V247.636H379.791ZM402.117 247.636H402.617V247.136H402.117V247.636ZM402.117 252.197L402.512 252.503L402.617 252.368V252.197H402.117ZM388.193 270.22L387.798 269.914L387.693 270.05V270.22H388.193ZM388.193 270.46H387.693V270.96H388.193V270.46ZM402.597 270.46H403.097V269.96H402.597V270.46ZM402.597 276V276.5H403.097V276H402.597ZM379.311 276H379.811V271.753H379.311H378.811V276H379.311ZM379.311 271.753L379.702 272.065L394.327 253.728L393.936 253.416L393.545 253.104L378.92 271.441L379.311 271.753ZM393.936 253.416H394.436V253.176H393.936H393.436V253.416H393.936ZM393.936 253.176V252.676H379.791V253.176V253.676H393.936V253.176ZM379.791 253.176H380.291V247.636H379.791H379.291V253.176H379.791ZM379.791 247.636V248.136H402.117V247.636V247.136H379.791V247.636ZM402.117 247.636H401.617V252.197H402.117H402.617V247.636H402.117ZM402.117 252.197L401.721 251.892L387.798 269.914L388.193 270.22L388.589 270.526L402.512 252.503L402.117 252.197ZM388.193 270.22H387.693V270.46H388.193H388.693V270.22H388.193ZM388.193 270.46V270.96H402.597V270.46V269.96H388.193V270.46ZM402.597 270.46H402.097V276H402.597H403.097V270.46H402.597ZM402.597 276V275.5H379.311V276V276.5H402.597V276ZM413.256 274.781L413.005 275.214L413.008 275.215L413.256 274.781ZM408.511 269.722L408.064 269.947L408.065 269.948L408.511 269.722ZM408.511 254.303L408.064 254.077L408.064 254.078L408.511 254.303ZM413.201 249.132L413.462 249.558L413.464 249.557L413.201 249.132ZM425.222 248.116L425.051 248.586L425.055 248.588L425.222 248.116ZM429.359 250.702L429.009 251.059L429.011 251.061L429.359 250.702ZM432.202 255.17L431.735 255.348L431.735 255.35L432.202 255.17ZM433.236 263.646V264.146H433.736V263.646H433.236ZM409.988 263.646H409.488V264.146H409.988V263.646ZM409.988 259.141V258.641H409.488V259.141H409.988ZM426.829 259.141V259.641H427.334L427.329 259.136L426.829 259.141ZM425.998 255.724L425.557 255.961L425.558 255.963L425.998 255.724ZM423.726 253.342L423.468 253.771L423.471 253.772L423.726 253.342ZM416.765 253.472L417.032 253.894L417.035 253.892L416.765 253.472ZM414.346 256.057L413.906 255.819L413.905 255.821L414.346 256.057ZM413.478 259.547L412.978 259.542V259.547H413.478ZM414.383 267.727L413.937 267.955L413.938 267.956L414.383 267.727ZM416.913 270.423L416.662 270.856L416.666 270.858L416.913 270.423ZM423.357 270.94L423.52 271.413L423.526 271.411L423.357 270.94ZM425.407 269.703L425.065 269.338L425.407 269.703ZM426.718 267.69L426.774 267.193L426.385 267.15L426.249 267.517L426.718 267.69ZM432.959 268.392L433.446 268.508L433.577 267.958L433.015 267.895L432.959 268.392ZM430.707 272.713L430.335 272.379L430.335 272.379L430.707 272.713ZM426.496 275.557L426.677 276.023L426.68 276.022L426.496 275.557ZM420.624 276.554V276.054C417.851 276.054 415.484 275.478 413.504 274.347L413.256 274.781L413.008 275.215C415.165 276.448 417.71 277.054 420.624 277.054V276.554ZM413.256 274.781L413.507 274.349C411.537 273.205 410.022 271.591 408.956 269.495L408.511 269.722L408.065 269.948C409.215 272.211 410.864 273.97 413.005 275.214L413.256 274.781ZM408.511 269.722L408.957 269.496C407.891 267.388 407.349 264.889 407.349 261.984H406.849H406.349C406.349 265.013 406.914 267.673 408.064 269.947L408.511 269.722ZM406.849 261.984H407.349C407.349 259.131 407.89 256.649 408.957 254.527L408.511 254.303L408.064 254.078C406.915 256.363 406.349 259.003 406.349 261.984H406.849ZM408.511 254.303L408.957 254.528C410.038 252.39 411.539 250.738 413.462 249.558L413.201 249.132L412.939 248.706C410.849 249.988 409.224 251.783 408.064 254.077L408.511 254.303ZM413.201 249.132L413.464 249.557C415.381 248.37 417.644 247.767 420.273 247.767V247.267V246.767C417.486 246.767 415.034 247.408 412.938 248.707L413.201 249.132ZM420.273 247.267V247.767C421.966 247.767 423.558 248.041 425.051 248.586L425.222 248.116L425.394 247.647C423.784 247.059 422.076 246.767 420.273 246.767V247.267ZM425.222 248.116L425.055 248.588C426.55 249.117 427.866 249.94 429.009 251.059L429.359 250.702L429.708 250.344C428.463 249.125 427.022 248.224 425.389 247.645L425.222 248.116ZM429.359 250.702L429.011 251.061C430.157 252.172 431.068 253.597 431.735 255.348L432.202 255.17L432.67 254.992C431.958 253.125 430.973 251.57 429.707 250.343L429.359 250.702ZM432.202 255.17L431.735 255.35C432.398 257.076 432.736 259.154 432.736 261.597H433.236H433.736C433.736 259.066 433.386 256.86 432.669 254.991L432.202 255.17ZM433.236 261.597H432.736V263.646H433.236H433.736V261.597H433.236ZM433.236 263.646V263.146H409.988V263.646V264.146H433.236V263.646ZM409.988 263.646H410.488V259.141H409.988H409.488V263.646H409.988ZM409.988 259.141V259.641H426.829V259.141V258.641H409.988V259.141ZM426.829 259.141L427.329 259.136C427.316 257.784 427.023 256.564 426.437 255.486L425.998 255.724L425.558 255.963C426.056 256.88 426.317 257.936 426.329 259.145L426.829 259.141ZM425.998 255.724L426.438 255.488C425.854 254.4 425.034 253.538 423.982 252.913L423.726 253.342L423.471 253.772C424.364 254.304 425.058 255.03 425.557 255.961L425.998 255.724ZM423.726 253.342L423.985 252.914C422.936 252.282 421.724 251.974 420.366 251.974V252.474V252.974C421.568 252.974 422.597 253.245 423.468 253.771L423.726 253.342ZM420.366 252.474V251.974C418.914 251.974 417.618 252.329 416.494 253.051L416.765 253.472L417.035 253.892C417.98 253.285 419.084 252.974 420.366 252.974V252.474ZM416.765 253.472L416.498 253.049C415.392 253.747 414.525 254.672 413.906 255.819L414.346 256.057L414.786 256.294C415.323 255.299 416.07 254.501 417.032 253.894L416.765 253.472ZM414.346 256.057L413.905 255.821C413.298 256.955 412.991 258.198 412.978 259.542L413.478 259.547L413.978 259.552C413.989 258.36 414.261 257.276 414.787 256.293L414.346 256.057ZM413.478 259.547H412.978V263.48H413.478H413.978V259.547H413.478ZM413.478 263.48H412.978C412.978 265.19 413.291 266.687 413.937 267.955L414.383 267.727L414.828 267.5C414.268 266.404 413.978 265.07 413.978 263.48H413.478ZM414.383 267.727L413.938 267.956C414.583 269.206 415.492 270.178 416.662 270.856L416.913 270.423L417.163 269.991C416.167 269.413 415.389 268.587 414.827 267.498L414.383 267.727ZM416.913 270.423L416.666 270.858C417.836 271.523 419.192 271.847 420.716 271.847V271.347V270.847C419.336 270.847 418.156 270.555 417.16 269.989L416.913 270.423ZM420.716 271.347V271.847C421.735 271.847 422.672 271.705 423.52 271.413L423.357 270.94L423.195 270.467C422.467 270.718 421.643 270.847 420.716 270.847V271.347ZM423.357 270.94L423.526 271.411C424.375 271.106 425.117 270.659 425.749 270.068L425.407 269.703L425.065 269.338C424.539 269.831 423.915 270.208 423.188 270.47L423.357 270.94ZM425.407 269.703L425.749 270.068C426.388 269.469 426.867 268.731 427.187 267.864L426.718 267.69L426.249 267.517C425.978 268.25 425.583 268.854 425.065 269.338L425.407 269.703ZM426.718 267.69L426.662 268.187L432.904 268.889L432.959 268.392L433.015 267.895L426.774 267.193L426.718 267.69ZM432.959 268.392L432.473 268.276C432.098 269.846 431.386 271.211 430.335 272.379L430.707 272.713L431.078 273.048C432.243 271.753 433.033 270.237 433.446 268.508L432.959 268.392ZM430.707 272.713L430.335 272.379C429.297 273.533 427.961 274.44 426.312 275.092L426.496 275.557L426.68 276.022C428.454 275.32 429.925 274.33 431.078 273.047L430.707 272.713ZM426.496 275.557L426.315 275.091C424.672 275.729 422.778 276.054 420.624 276.054V276.554V277.054C422.878 277.054 424.898 276.714 426.677 276.023L426.496 275.557Z" fill="#060606"/>
</svg>
