<svg width="439" height="87" viewBox="0 0 439 87" fill="none" xmlns="http://www.w3.org/2000/svg">
<path fill-rule="evenodd" clip-rule="evenodd" d="M0.369121 37.4147C3.45636 13.8261 25.0768 -2.75462 48.6592 0.380557C72.2413 3.51589 88.8554 25.1797 85.7685 48.7683C82.6813 72.3568 61.0617 88.9384 37.4795 85.8034C13.8972 82.6681 -2.71783 61.0034 0.369121 37.4147ZM47.8808 6.32978C27.5834 3.63132 8.97381 17.902 6.31639 38.2048C3.65929 58.5079 17.9611 77.1557 38.2588 79.8542C58.5561 82.5522 77.1642 68.2801 79.8213 47.9772C82.4781 27.6745 68.178 9.02853 47.8808 6.32978Z" fill="#00454A"/>
<path d="M72.858 22.0217L38.3488 25.0409L58.2181 53.4171L72.858 22.0217ZM9.30392 66.5228L11.0247 68.9802L52.4616 39.9657L50.7409 37.5083L49.0202 35.0508L7.5832 64.0653L9.30392 66.5228Z" fill="#00454A"/>
<path d="M110.131 62H105.33L119.216 24.1818H123.943L137.83 62H133.028L121.727 30.1648H121.432L110.131 62ZM111.903 47.2273H131.256V51.2898H111.903V47.2273ZM153.839 62.5909C151.476 62.5909 149.389 61.9938 147.58 60.7997C145.77 59.5933 144.354 57.8944 143.332 55.7031C142.311 53.4995 141.8 50.8958 141.8 47.892C141.8 44.9129 142.311 42.3277 143.332 40.1364C144.354 37.9451 145.776 36.2524 147.598 35.0582C149.42 33.8641 151.525 33.267 153.913 33.267C155.76 33.267 157.219 33.5748 158.29 34.1903C159.373 34.7936 160.198 35.483 160.764 36.2585C161.343 37.0218 161.792 37.6496 162.112 38.142H162.482V24.1818H166.839V62H162.629V57.642H162.112C161.792 58.1591 161.337 58.8116 160.746 59.5994C160.155 60.375 159.312 61.0705 158.216 61.6861C157.12 62.2893 155.661 62.5909 153.839 62.5909ZM154.43 58.6761C156.179 58.6761 157.656 58.2206 158.862 57.3097C160.069 56.3864 160.986 55.1122 161.614 53.4872C162.241 51.8499 162.555 49.9602 162.555 47.8182C162.555 45.7008 162.248 43.848 161.632 42.2599C161.017 40.6596 160.106 39.4162 158.899 38.5298C157.693 37.6312 156.203 37.1818 154.43 37.1818C152.584 37.1818 151.045 37.6558 149.814 38.6037C148.595 39.5393 147.678 40.8134 147.062 42.4261C146.459 44.0265 146.158 45.8239 146.158 47.8182C146.158 49.8371 146.465 51.6714 147.081 53.321C147.709 54.9583 148.632 56.2633 149.851 57.2358C151.082 58.196 152.608 58.6761 154.43 58.6761ZM208.96 43.0909C208.96 47.1657 208.197 50.6558 206.67 53.5611C205.156 56.4541 203.088 58.67 200.466 60.2088C197.856 61.7476 194.895 62.517 191.584 62.517C188.272 62.517 185.305 61.7476 182.683 60.2088C180.073 58.6577 178.005 56.4356 176.479 53.5426C174.964 50.6373 174.207 47.1534 174.207 43.0909C174.207 39.0161 174.964 35.5322 176.479 32.6392C178.005 29.7339 180.073 27.5118 182.683 25.973C185.305 24.4342 188.272 23.6648 191.584 23.6648C194.895 23.6648 197.856 24.4342 200.466 25.973C203.088 27.5118 205.156 29.7339 206.67 32.6392C208.197 35.5322 208.96 39.0161 208.96 43.0909ZM202.072 43.0909C202.072 40.2225 201.623 37.8035 200.724 35.8338C199.838 33.8518 198.607 32.3561 197.031 31.3466C195.455 30.3248 193.64 29.8139 191.584 29.8139C189.528 29.8139 187.712 30.3248 186.136 31.3466C184.561 32.3561 183.323 33.8518 182.425 35.8338C181.538 37.8035 181.095 40.2225 181.095 43.0909C181.095 45.9593 181.538 48.3845 182.425 50.3665C183.323 52.3362 184.561 53.8319 186.136 54.8537C187.712 55.8632 189.528 56.3679 191.584 56.3679C193.64 56.3679 195.455 55.8632 197.031 54.8537C198.607 53.8319 199.838 52.3362 200.724 50.3665C201.623 48.3845 202.072 45.9593 202.072 43.0909ZM215.142 72.6364V33.6364H221.716V38.3267H222.103C222.448 37.6373 222.934 36.9048 223.562 36.1293C224.19 35.3414 225.039 34.6705 226.11 34.1165C227.181 33.5502 228.548 33.267 230.21 33.267C232.401 33.267 234.377 33.8272 236.137 34.9474C237.91 36.0554 239.314 37.6989 240.348 39.8778C241.394 42.0445 241.917 44.7036 241.917 47.8551C241.917 50.9697 241.406 53.6165 240.385 55.7955C239.363 57.9744 237.972 59.6364 236.211 60.7812C234.451 61.9261 232.457 62.4986 230.228 62.4986C228.603 62.4986 227.255 62.2277 226.184 61.6861C225.113 61.1444 224.252 60.492 223.599 59.7287C222.959 58.9531 222.46 58.2206 222.103 57.5312H221.826V72.6364H215.142ZM221.697 47.8182C221.697 49.6525 221.956 51.259 222.473 52.6378C223.002 54.0166 223.759 55.0937 224.744 55.8693C225.741 56.6326 226.948 57.0142 228.363 57.0142C229.841 57.0142 231.078 56.6203 232.075 55.8324C233.072 55.0322 233.823 53.9427 234.328 52.5639C234.845 51.1728 235.103 49.5909 235.103 47.8182C235.103 46.0578 234.851 44.4943 234.346 43.1278C233.842 41.7614 233.091 40.6903 232.093 39.9148C231.096 39.1392 229.853 38.7514 228.363 38.7514C226.935 38.7514 225.723 39.1269 224.725 39.8778C223.728 40.6288 222.971 41.6813 222.454 43.0355C221.949 44.3897 221.697 45.9839 221.697 47.8182ZM261.805 33.6364V38.8068H245.5V33.6364H261.805ZM249.525 26.8409H256.21V53.4688C256.21 54.3674 256.345 55.0568 256.616 55.5369C256.899 56.0047 257.269 56.3248 257.724 56.4972C258.18 56.6695 258.684 56.7557 259.238 56.7557C259.657 56.7557 260.038 56.7249 260.383 56.6634C260.74 56.6018 261.011 56.5464 261.196 56.4972L262.322 61.723C261.965 61.8461 261.454 61.9815 260.789 62.1293C260.137 62.277 259.337 62.3632 258.389 62.3878C256.715 62.437 255.207 62.1847 253.865 61.6307C252.523 61.0644 251.458 60.1903 250.67 59.0085C249.895 57.8267 249.513 56.3494 249.525 54.5767V26.8409ZM267.396 62V33.6364H274.08V62H267.396ZM270.756 29.6108C269.698 29.6108 268.787 29.2599 268.023 28.5582C267.26 27.8442 266.879 26.9886 266.879 25.9915C266.879 24.982 267.26 24.1264 268.023 23.4247C268.787 22.7107 269.698 22.3537 270.756 22.3537C271.827 22.3537 272.738 22.7107 273.489 23.4247C274.253 24.1264 274.634 24.982 274.634 25.9915C274.634 26.9886 274.253 27.8442 273.489 28.5582C272.738 29.2599 271.827 29.6108 270.756 29.6108ZM280.954 62V33.6364H287.343V38.456H287.676C288.267 36.831 289.245 35.563 290.612 34.652C291.978 33.7287 293.609 33.267 295.505 33.267C297.426 33.267 299.045 33.7348 300.362 34.6705C301.691 35.5937 302.627 36.8556 303.169 38.456H303.464C304.092 36.8802 305.151 35.6245 306.64 34.6889C308.142 33.741 309.921 33.267 311.977 33.267C314.587 33.267 316.717 34.0919 318.366 35.7415C320.016 37.3911 320.841 39.7978 320.841 42.9616V62H314.137V43.9957C314.137 42.2353 313.67 40.9489 312.734 40.1364C311.798 39.3116 310.654 38.8991 309.299 38.8991C307.687 38.8991 306.425 39.4039 305.514 40.4134C304.615 41.4105 304.166 42.7093 304.166 44.3097V62H297.61V43.7188C297.61 42.2538 297.167 41.0843 296.281 40.2102C295.407 39.3362 294.262 38.8991 292.846 38.8991C291.886 38.8991 291.012 39.1454 290.224 39.6378C289.436 40.1179 288.808 40.8011 288.341 41.6875C287.873 42.5616 287.639 43.5833 287.639 44.7528V62H280.954ZM327.622 62V33.6364H334.307V62H327.622ZM330.983 29.6108C329.924 29.6108 329.013 29.2599 328.25 28.5582C327.487 27.8442 327.105 26.9886 327.105 25.9915C327.105 24.982 327.487 24.1264 328.25 23.4247C329.013 22.7107 329.924 22.3537 330.983 22.3537C332.054 22.3537 332.965 22.7107 333.716 23.4247C334.479 24.1264 334.861 24.982 334.861 25.9915C334.861 26.9886 334.479 27.8442 333.716 28.5582C332.965 29.2599 332.054 29.6108 330.983 29.6108ZM340.811 62V57.7528L355.436 39.4162V39.1761H341.292V33.6364H363.617V38.1974L349.694 56.2202V56.4602H364.097V62H340.811ZM382.124 62.554C379.281 62.554 376.825 61.9631 374.756 60.7812C372.701 59.5871 371.119 57.9006 370.011 55.7216C368.903 53.5303 368.349 50.9512 368.349 47.9844C368.349 45.0668 368.903 42.5062 370.011 40.3026C371.131 38.0866 372.694 36.3632 374.701 35.1321C376.708 33.8887 379.065 33.267 381.773 33.267C383.522 33.267 385.171 33.5502 386.722 34.1165C388.286 34.6705 389.665 35.5322 390.859 36.7017C392.065 37.8712 393.013 39.3608 393.702 41.1705C394.392 42.9678 394.737 45.1098 394.737 47.5966V49.6463H371.488V45.1406H388.329C388.317 43.8603 388.04 42.7216 387.498 41.7244C386.956 40.715 386.199 39.9209 385.227 39.3423C384.266 38.7637 383.146 38.4744 381.866 38.4744C380.499 38.4744 379.299 38.8068 378.265 39.4716C377.231 40.1241 376.424 40.9858 375.846 42.0568C375.28 43.1155 374.99 44.2789 374.978 45.5469V49.4801C374.978 51.1297 375.28 52.5455 375.883 53.7273C376.486 54.8968 377.329 55.7955 378.413 56.4233C379.496 57.0388 380.764 57.3466 382.217 57.3466C383.189 57.3466 384.069 57.2112 384.857 56.9403C385.645 56.6572 386.328 56.2448 386.907 55.7031C387.486 55.1615 387.923 54.4905 388.218 53.6903L394.46 54.392C394.066 56.0417 393.315 57.482 392.207 58.7131C391.111 59.9318 389.708 60.8797 387.996 61.5568C386.285 62.2216 384.328 62.554 382.124 62.554Z" fill="#060606"/>
<path d="M110.131 62V62.5H110.484L110.602 62.1673L110.131 62ZM105.33 62L104.86 61.8277L104.613 62.5H105.33V62ZM119.216 24.1818V23.6818H118.867L118.747 24.0095L119.216 24.1818ZM123.943 24.1818L124.413 24.0095L124.292 23.6818H123.943V24.1818ZM137.83 62V62.5H138.546L138.299 61.8277L137.83 62ZM133.028 62L132.557 62.1673L132.675 62.5H133.028V62ZM121.727 30.1648L122.198 29.9975L122.08 29.6648H121.727V30.1648ZM121.432 30.1648V29.6648H121.079L120.961 29.9975L121.432 30.1648ZM111.903 47.2273V46.7273H111.403V47.2273H111.903ZM131.256 47.2273H131.756V46.7273H131.256V47.2273ZM131.256 51.2898V51.7898H131.756V51.2898H131.256ZM111.903 51.2898H111.403V51.7898H111.903V51.2898ZM110.131 62V61.5H105.33V62V62.5H110.131V62ZM105.33 62L105.799 62.1723L119.685 24.3542L119.216 24.1818L118.747 24.0095L104.86 61.8277L105.33 62ZM119.216 24.1818V24.6818H123.943V24.1818V23.6818H119.216V24.1818ZM123.943 24.1818L123.474 24.3542L137.36 62.1723L137.83 62L138.299 61.8277L124.413 24.0095L123.943 24.1818ZM137.83 62V61.5H133.028V62V62.5H137.83V62ZM133.028 62L133.5 61.8327L122.198 29.9975L121.727 30.1648L121.256 30.332L132.557 62.1673L133.028 62ZM121.727 30.1648V29.6648H121.432V30.1648V30.6648H121.727V30.1648ZM121.432 30.1648L120.961 29.9975L109.659 61.8327L110.131 62L110.602 62.1673L121.903 30.332L121.432 30.1648ZM111.903 47.2273V47.7273H131.256V47.2273V46.7273H111.903V47.2273ZM131.256 47.2273H130.756V51.2898H131.256H131.756V47.2273H131.256ZM131.256 51.2898V50.7898H111.903V51.2898V51.7898H131.256V51.2898ZM111.903 51.2898H112.403V47.2273H111.903H111.403V51.2898H111.903ZM147.58 60.7997L147.302 61.2157L147.304 61.217L147.58 60.7997ZM143.332 55.7031L142.879 55.9135L142.879 55.9144L143.332 55.7031ZM143.332 40.1364L142.879 39.9251V39.9251L143.332 40.1364ZM147.598 35.0582L147.324 34.6401V34.6401L147.598 35.0582ZM158.29 34.1903L158.041 34.6239L158.047 34.6272L158.29 34.1903ZM160.764 36.2585L160.36 36.5534L160.366 36.5606L160.764 36.2585ZM162.112 38.142L161.693 38.4145L161.841 38.642H162.112V38.142ZM162.482 38.142V38.642H162.982V38.142H162.482ZM162.482 24.1818V23.6818H161.982V24.1818H162.482ZM166.839 24.1818H167.339V23.6818H166.839V24.1818ZM166.839 62V62.5H167.339V62H166.839ZM162.629 62H162.129V62.5H162.629V62ZM162.629 57.642H163.129V57.142H162.629V57.642ZM162.112 57.642V57.142H161.834L161.687 57.3789L162.112 57.642ZM160.746 59.5994L161.143 59.9025L161.146 59.8994L160.746 59.5994ZM158.216 61.6861L158.457 62.1241L158.461 62.122L158.216 61.6861ZM158.862 57.3097L159.164 57.7087L159.166 57.7067L158.862 57.3097ZM161.614 53.4872L162.08 53.6674L162.08 53.6662L161.614 53.4872ZM161.632 42.2599L161.165 42.4394L161.166 42.4406L161.632 42.2599ZM158.899 38.5298L158.6 38.9308L158.603 38.9328L158.899 38.5298ZM149.814 38.6037L150.118 39.0003L150.119 38.9999L149.814 38.6037ZM147.062 42.4261L146.595 42.2478L146.595 42.2498L147.062 42.4261ZM147.081 53.321L146.612 53.4958L146.614 53.5L147.081 53.321ZM149.851 57.2358L149.539 57.6266L149.543 57.63L149.851 57.2358ZM153.839 62.5909V62.0909C151.565 62.0909 149.576 61.5177 147.855 60.3824L147.58 60.7997L147.304 61.217C149.203 62.47 151.387 63.0909 153.839 63.0909V62.5909ZM147.58 60.7997L147.857 60.3837C146.132 59.2336 144.773 57.6096 143.786 55.4918L143.332 55.7031L142.879 55.9144C143.935 58.1792 145.408 59.9529 147.302 61.2157L147.58 60.7997ZM143.332 55.7031L143.786 55.4928C142.801 53.3688 142.3 50.84 142.3 47.892H141.8H141.3C141.3 50.9517 141.82 53.6303 142.879 55.9135L143.332 55.7031ZM141.8 47.892H142.3C142.3 44.9693 142.801 42.4593 143.786 40.3477L143.332 40.1364L142.879 39.9251C141.82 42.196 141.3 44.8564 141.3 47.892H141.8ZM143.332 40.1364L143.786 40.3477C144.772 38.2311 146.136 36.6141 147.872 35.4764L147.598 35.0582L147.324 34.6401C145.416 35.8906 143.936 37.659 142.879 39.9251L143.332 40.1364ZM147.598 35.0582L147.872 35.4764C149.605 34.3408 151.613 33.767 153.913 33.767V33.267V32.767C151.437 32.767 149.235 33.3874 147.324 34.6401L147.598 35.0582ZM153.913 33.267V33.767C155.713 33.767 157.074 34.0683 158.041 34.6238L158.29 34.1903L158.539 33.7568C157.364 33.0814 155.807 32.767 153.913 32.767V33.267ZM158.29 34.1903L158.047 34.6272C159.084 35.2051 159.847 35.8506 160.36 36.5534L160.764 36.2585L161.168 35.9637C160.549 35.1153 159.662 34.382 158.533 33.7535L158.29 34.1903ZM160.764 36.2585L160.366 36.5606C160.941 37.3194 161.382 37.9365 161.693 38.4145L162.112 38.142L162.531 37.8696C162.202 37.3628 161.745 36.7242 161.163 35.9565L160.764 36.2585ZM162.112 38.142V38.642H162.482V38.142V37.642H162.112V38.142ZM162.482 38.142H162.982V24.1818H162.482H161.982V38.142H162.482ZM162.482 24.1818V24.6818H166.839V24.1818V23.6818H162.482V24.1818ZM166.839 24.1818H166.339V62H166.839H167.339V24.1818H166.839ZM166.839 62V61.5H162.629V62V62.5H166.839V62ZM162.629 62H163.129V57.642H162.629H162.129V62H162.629ZM162.629 57.642V57.142H162.112V57.642V58.142H162.629V57.642ZM162.112 57.642L161.687 57.3789C161.378 57.878 160.932 58.5171 160.346 59.2994L160.746 59.5994L161.146 59.8994C161.741 59.106 162.206 58.4402 162.537 57.9052L162.112 57.642ZM160.746 59.5994L160.348 59.2964C159.809 60.0045 159.024 60.6588 157.971 61.2502L158.216 61.6861L158.461 62.122C159.599 61.4823 160.501 60.7455 161.143 59.9025L160.746 59.5994ZM158.216 61.6861L157.975 61.2481C156.979 61.7962 155.613 62.0909 153.839 62.0909V62.5909V63.0909C155.71 63.0909 157.261 62.7823 158.457 62.1241L158.216 61.6861ZM154.43 58.6761V59.1761C156.27 59.1761 157.857 58.6951 159.164 57.7087L158.862 57.3097L158.561 56.9106C157.454 57.7462 156.087 58.1761 154.43 58.1761V58.6761ZM158.862 57.3097L159.166 57.7067C160.456 56.7197 161.424 55.3654 162.08 53.6674L161.614 53.4872L161.147 53.307C160.548 54.859 159.681 56.0531 158.558 56.9126L158.862 57.3097ZM161.614 53.4872L162.08 53.6662C162.735 51.9607 163.055 50.0083 163.055 47.8182H162.555H162.055C162.055 49.9122 161.748 51.7391 161.147 53.3082L161.614 53.4872ZM162.555 47.8182H163.055C163.055 45.6535 162.741 43.7371 162.098 42.0792L161.632 42.2599L161.166 42.4406C161.754 43.959 162.055 45.7481 162.055 47.8182H162.555ZM161.632 42.2599L162.099 42.0805C161.454 40.4041 160.489 39.0778 159.195 38.1269L158.899 38.5298L158.603 38.9328C159.722 39.7546 160.579 40.915 161.165 42.4394L161.632 42.2599ZM158.899 38.5298L159.198 38.1288C157.89 37.155 156.291 36.6818 154.43 36.6818V37.1818V37.6818C156.115 37.6818 157.495 38.1073 158.6 38.9308L158.899 38.5298ZM154.43 37.1818V36.6818C152.495 36.6818 150.843 37.1802 149.509 38.2075L149.814 38.6037L150.119 38.9999C151.247 38.1313 152.673 37.6818 154.43 37.6818V37.1818ZM149.814 38.6037L149.509 38.2071C148.209 39.2058 147.24 40.5597 146.595 42.2478L147.062 42.4261L147.53 42.6044C148.116 41.0672 148.982 39.8728 150.118 39.0003L149.814 38.6037ZM147.062 42.4261L146.595 42.2498C145.967 43.9151 145.658 45.7735 145.658 47.8182H146.158H146.658C146.658 45.8743 146.952 44.138 147.53 42.6025L147.062 42.4261ZM146.158 47.8182H145.658C145.658 49.8882 145.973 51.7827 146.613 53.4958L147.081 53.321L147.549 53.1462C146.958 51.5601 146.658 49.7861 146.658 47.8182H146.158ZM147.081 53.321L146.614 53.5C147.27 55.2099 148.242 56.5919 149.539 57.6266L149.851 57.2358L150.163 56.845C149.022 55.9347 148.148 54.7068 147.548 53.142L147.081 53.321ZM149.851 57.2358L149.543 57.63C150.876 58.6698 152.516 59.1761 154.43 59.1761V58.6761V58.1761C152.7 58.1761 151.287 57.7222 150.158 56.8415L149.851 57.2358ZM206.67 53.5611L206.228 53.3285L206.227 53.3292L206.67 53.5611ZM200.466 60.2088L200.213 59.7776L200.212 59.7781L200.466 60.2088ZM182.683 60.2088L182.428 60.6386L182.43 60.64L182.683 60.2088ZM176.479 53.5426L176.035 53.7737L176.036 53.776L176.479 53.5426ZM176.479 32.6392L176.036 32.4066L176.036 32.4073L176.479 32.6392ZM182.683 25.973L182.43 25.5418L182.429 25.5423L182.683 25.973ZM200.466 25.973L200.212 26.4037L200.213 26.4042L200.466 25.973ZM206.67 32.6392L206.227 32.8703L206.228 32.8725L206.67 32.6392ZM200.724 35.8338L200.268 36.0379L200.27 36.0413L200.724 35.8338ZM197.031 31.3466L196.759 31.7661L196.762 31.7676L197.031 31.3466ZM186.136 31.3466L186.406 31.7676L186.408 31.7661L186.136 31.3466ZM182.425 35.8338L181.969 35.6273L181.969 35.6286L182.425 35.8338ZM182.425 50.3665L181.968 50.5706L181.97 50.574L182.425 50.3665ZM186.136 54.8537L185.864 55.2732L185.867 55.2747L186.136 54.8537ZM197.031 54.8537L197.301 55.2747L197.303 55.2732L197.031 54.8537ZM200.724 50.3665L200.269 50.16L200.268 50.1613L200.724 50.3665ZM208.96 43.0909H208.46C208.46 47.1039 207.709 50.5102 206.228 53.3285L206.67 53.5611L207.113 53.7936C208.685 50.8013 209.46 47.2275 209.46 43.0909H208.96ZM206.67 53.5611L206.227 53.3292C204.753 56.1457 202.748 58.2896 200.213 59.7776L200.466 60.2088L200.719 60.64C203.428 59.0503 205.559 56.7625 207.113 53.7929L206.67 53.5611ZM200.466 60.2088L200.212 59.7781C197.686 61.2674 194.815 62.017 191.584 62.017V62.517V63.017C194.976 63.017 198.026 62.2279 200.72 60.6395L200.466 60.2088ZM191.584 62.517V62.017C188.353 62.017 185.475 61.2674 182.936 59.7776L182.683 60.2088L182.43 60.64C185.136 62.2279 188.191 63.017 191.584 63.017V62.517ZM182.683 60.2088L182.939 59.779C180.414 58.2785 178.408 56.1274 176.921 53.3093L176.479 53.5426L176.036 53.776C177.603 56.7438 179.733 59.0368 182.428 60.6386L182.683 60.2088ZM176.479 53.5426L176.922 53.3115C175.453 50.4927 174.707 47.0919 174.707 43.0909H174.207H173.707C173.707 47.2149 174.476 50.7819 176.035 53.7737L176.479 53.5426ZM174.207 43.0909H174.707C174.707 39.0772 175.453 35.6769 176.922 32.8711L176.479 32.6392L176.036 32.4073C174.476 35.3875 173.707 38.955 173.707 43.0909H174.207ZM176.479 32.6392L176.921 32.8718C178.408 30.0417 180.414 27.8914 182.937 26.4037L182.683 25.973L182.429 25.5423C179.733 27.1323 177.602 29.4261 176.036 32.4066L176.479 32.6392ZM182.683 25.973L182.936 26.4042C185.475 24.9144 188.353 24.1648 191.584 24.1648V23.6648V23.1648C188.191 23.1648 185.136 23.954 182.43 25.5418L182.683 25.973ZM191.584 23.6648V24.1648C194.815 24.1648 197.686 24.9144 200.212 26.4037L200.466 25.973L200.72 25.5423C198.026 23.9539 194.976 23.1648 191.584 23.1648V23.6648ZM200.466 25.973L200.213 26.4042C202.748 27.8918 204.753 30.0415 206.227 32.8703L206.67 32.6392L207.114 32.4081C205.56 29.4263 203.428 27.1318 200.719 25.5418L200.466 25.973ZM206.67 32.6392L206.228 32.8725C207.709 35.6781 208.46 39.0778 208.46 43.0909H208.96H209.46C209.46 38.9544 208.685 35.3863 207.113 32.4059L206.67 32.6392ZM202.072 43.0909H202.572C202.572 40.1731 202.116 37.6786 201.179 35.6263L200.724 35.8338L200.27 36.0413C201.13 37.9284 201.572 40.272 201.572 43.0909H202.072ZM200.724 35.8338L201.181 35.6297C200.261 33.5733 198.971 31.9956 197.301 30.9256L197.031 31.3466L196.762 31.7676C198.243 32.7165 199.415 34.1303 200.268 36.0379L200.724 35.8338ZM197.031 31.3466L197.303 30.9271C195.639 29.8478 193.727 29.3139 191.584 29.3139V29.8139V30.3139C193.553 30.3139 195.272 30.8018 196.759 31.7661L197.031 31.3466ZM191.584 29.8139V29.3139C189.441 29.3139 187.529 29.8478 185.864 30.9271L186.136 31.3466L186.408 31.7661C187.896 30.8018 189.615 30.3139 191.584 30.3139V29.8139ZM186.136 31.3466L185.867 30.9256C184.197 31.9952 182.901 33.572 181.969 35.6273L182.425 35.8338L182.88 36.0403C183.746 34.1316 184.924 32.7169 186.406 31.7676L186.136 31.3466ZM182.425 35.8338L181.969 35.6286C181.046 37.6803 180.595 40.1739 180.595 43.0909H181.095H181.595C181.595 40.2712 182.031 37.9267 182.881 36.039L182.425 35.8338ZM181.095 43.0909H180.595C180.595 46.0081 181.046 48.5073 181.968 50.5706L182.425 50.3665L182.881 50.1624C182.031 48.2617 181.595 45.9104 181.595 43.0909H181.095ZM182.425 50.3665L181.97 50.574C182.902 52.6168 184.197 54.1921 185.864 55.2732L186.136 54.8537L186.408 54.4342C184.924 53.4717 183.745 52.0555 182.88 50.1589L182.425 50.3665ZM186.136 54.8537L185.867 55.2747C187.531 56.3408 189.442 56.8679 191.584 56.8679V56.3679V55.8679C189.614 55.8679 187.893 55.3855 186.406 54.4327L186.136 54.8537ZM191.584 56.3679V56.8679C193.726 56.8679 195.637 56.3408 197.301 55.2747L197.031 54.8537L196.762 54.4327C195.274 55.3855 193.554 55.8679 191.584 55.8679V56.3679ZM197.031 54.8537L197.303 55.2732C198.971 54.1917 200.261 52.6155 201.18 50.5717L200.724 50.3665L200.268 50.1613C199.415 52.0568 198.243 53.4722 196.759 54.4342L197.031 54.8537ZM200.724 50.3665L201.18 50.573C202.116 48.5089 202.572 46.0089 202.572 43.0909H202.072H201.572C201.572 45.9097 201.131 48.26 200.269 50.16L200.724 50.3665ZM215.142 72.6364H214.642V73.1364H215.142V72.6364ZM215.142 33.6364V33.1364H214.642V33.6364H215.142ZM221.716 33.6364H222.216V33.1364H221.716V33.6364ZM221.716 38.3267H221.216V38.8267H221.716V38.3267ZM222.103 38.3267V38.8267H222.412L222.551 38.5503L222.103 38.3267ZM223.562 36.1293L223.951 36.4439L223.953 36.4409L223.562 36.1293ZM226.11 34.1165L226.34 34.5606L226.344 34.5585L226.11 34.1165ZM236.137 34.9474L235.869 35.3693L235.872 35.3714L236.137 34.9474ZM240.348 39.8778L239.896 40.0922L239.897 40.0953L240.348 39.8778ZM240.385 55.7955L239.932 55.5832V55.5832L240.385 55.7955ZM236.211 60.7812L236.484 61.2004L236.211 60.7812ZM226.184 61.6861L225.959 62.1323V62.1323L226.184 61.6861ZM223.599 59.7287L223.213 60.047L223.219 60.0536L223.599 59.7287ZM222.103 57.5312L222.547 57.3013L222.407 57.0312H222.103V57.5312ZM221.826 57.5312V57.0312H221.326V57.5312H221.826ZM221.826 72.6364V73.1364H222.326V72.6364H221.826ZM222.473 52.6378L222.004 52.8134L222.006 52.817L222.473 52.6378ZM224.744 55.8693L224.435 56.2622L224.44 56.2664L224.744 55.8693ZM232.075 55.8324L232.385 56.2247L232.388 56.2224L232.075 55.8324ZM234.328 52.5639L233.859 52.3897L233.858 52.392L234.328 52.5639ZM234.346 43.1278L234.815 42.9546V42.9546L234.346 43.1278ZM232.093 39.9148L232.4 39.5201V39.5201L232.093 39.9148ZM224.725 39.8778L225.026 40.2772V40.2772L224.725 39.8778ZM222.454 43.0355L221.987 42.8572L221.986 42.8609L222.454 43.0355ZM215.142 72.6364H215.642V33.6364H215.142H214.642V72.6364H215.142ZM215.142 33.6364V34.1364H221.716V33.6364V33.1364H215.142V33.6364ZM221.716 33.6364H221.216V38.3267H221.716H222.216V33.6364H221.716ZM221.716 38.3267V38.8267H222.103V38.3267V37.8267H221.716V38.3267ZM222.103 38.3267L222.551 38.5503C222.875 37.9011 223.339 37.1991 223.951 36.4439L223.562 36.1293L223.174 35.8147C222.529 36.6106 222.021 37.3735 221.656 38.1031L222.103 38.3267ZM223.562 36.1293L223.953 36.4409C224.529 35.7178 225.32 35.0885 226.34 34.5606L226.11 34.1165L225.881 33.6724C224.759 34.2524 223.851 34.965 223.171 35.8177L223.562 36.1293ZM226.11 34.1165L226.344 34.5585C227.321 34.0418 228.601 33.767 230.21 33.767V33.267V32.767C228.495 32.767 227.042 33.0586 225.877 33.6745L226.11 34.1165ZM230.21 33.267V33.767C232.311 33.767 234.193 34.3027 235.869 35.3693L236.137 34.9474L236.406 34.5256C234.561 33.3517 232.491 32.767 230.21 32.767V33.267ZM236.137 34.9474L235.872 35.3714C237.552 36.4214 238.896 37.9859 239.896 40.0922L240.348 39.8778L240.799 39.6635C239.731 37.4118 238.268 35.6894 236.402 34.5234L236.137 34.9474ZM240.348 39.8778L239.897 40.0953C240.903 42.1765 241.417 44.7565 241.417 47.8551H241.917H242.417C242.417 44.6507 241.886 41.9125 240.798 39.6604L240.348 39.8778ZM241.917 47.8551H241.417C241.417 50.9171 240.915 53.4872 239.932 55.5832L240.385 55.7955L240.837 56.0077C241.898 53.7458 242.417 51.0223 242.417 47.8551H241.917ZM240.385 55.7955L239.932 55.5832C238.944 57.6903 237.61 59.2751 235.939 60.3621L236.211 60.7812L236.484 61.2004C238.333 59.9976 239.782 58.2585 240.837 56.0077L240.385 55.7955ZM236.211 60.7812L235.939 60.3621C234.264 61.4509 232.366 61.9986 230.228 61.9986V62.4986V62.9986C232.547 62.9986 234.637 62.4013 236.484 61.2004L236.211 60.7812ZM230.228 62.4986V61.9986C228.655 61.9986 227.391 61.7359 226.41 61.2399L226.184 61.6861L225.959 62.1323C227.12 62.7196 228.551 62.9986 230.228 62.9986V62.4986ZM226.184 61.6861L226.41 61.2399C225.387 60.7224 224.581 60.108 223.979 59.4038L223.599 59.7287L223.219 60.0536C223.922 60.8759 224.84 61.5665 225.959 62.1323L226.184 61.6861ZM223.599 59.7287L223.985 59.4104C223.361 58.6546 222.884 57.9516 222.547 57.3013L222.103 57.5312L221.659 57.7612C222.037 58.4896 222.557 59.2516 223.213 60.047L223.599 59.7287ZM222.103 57.5312V57.0312H221.826V57.5312V58.0312H222.103V57.5312ZM221.826 57.5312H221.326V72.6364H221.826H222.326V57.5312H221.826ZM221.826 72.6364V72.1364H215.142V72.6364V73.1364H221.826V72.6364ZM221.697 47.8182H221.197C221.197 49.6982 221.462 51.3665 222.004 52.8133L222.473 52.6378L222.941 52.4622C222.449 51.1515 222.197 49.6067 222.197 47.8182H221.697ZM222.473 52.6378L222.006 52.817C222.562 54.2647 223.367 55.4216 224.435 56.2621L224.744 55.8693L225.053 55.4765C224.151 54.7659 223.442 53.7684 222.939 52.4586L222.473 52.6378ZM224.744 55.8693L224.44 56.2664C225.535 57.1048 226.852 57.5142 228.363 57.5142V57.0142V56.5142C227.043 56.5142 225.947 56.1603 225.048 55.4723L224.744 55.8693ZM228.363 57.0142V57.5142C229.934 57.5142 231.286 57.0933 232.385 56.2247L232.075 55.8324L231.765 55.4401C230.87 56.1472 229.747 56.5142 228.363 56.5142V57.0142ZM232.075 55.8324L232.388 56.2224C233.466 55.3571 234.266 54.1873 234.797 52.7358L234.328 52.5639L233.858 52.392C233.38 53.6982 232.678 54.7073 231.762 55.4424L232.075 55.8324ZM234.328 52.5639L234.796 52.7381C235.338 51.2816 235.603 49.6391 235.603 47.8182H235.103H234.603C234.603 49.5427 234.352 51.064 233.859 52.3897L234.328 52.5639ZM235.103 47.8182H235.603C235.603 46.0106 235.344 44.3867 234.815 42.9546L234.346 43.1278L233.877 43.3011C234.358 44.6019 234.603 46.1049 234.603 47.8182H235.103ZM234.346 43.1278L234.815 42.9546C234.283 41.5143 233.482 40.3612 232.4 39.5201L232.093 39.9148L231.786 40.3094C232.699 41.0194 233.4 42.0084 233.877 43.3011L234.346 43.1278ZM232.093 39.9148L232.4 39.5201C231.3 38.6646 229.943 38.2514 228.363 38.2514V38.7514V39.2514C229.762 39.2514 230.892 39.6138 231.786 40.3094L232.093 39.9148ZM228.363 38.7514V38.2514C226.843 38.2514 225.521 38.653 224.425 39.4784L224.725 39.8778L225.026 40.2772C225.925 39.6008 227.027 39.2514 228.363 39.2514V38.7514ZM224.725 39.8778L224.425 39.4784C223.341 40.2946 222.532 41.4296 221.987 42.8572L222.454 43.0355L222.921 43.2139C223.41 41.9331 224.116 40.963 225.026 40.2772L224.725 39.8778ZM222.454 43.0355L221.986 42.8609C221.455 44.2837 221.197 45.9396 221.197 47.8182H221.697H222.197C222.197 46.0282 222.444 44.4957 222.923 43.2101L222.454 43.0355ZM261.805 33.6364H262.305V33.1364H261.805V33.6364ZM261.805 38.8068V39.3068H262.305V38.8068H261.805ZM245.5 38.8068H245V39.3068H245.5V38.8068ZM245.5 33.6364V33.1364H245V33.6364H245.5ZM249.525 26.8409V26.3409H249.025V26.8409H249.525ZM256.21 26.8409H256.71V26.3409H256.21V26.8409ZM256.616 55.5369L256.181 55.7826L256.184 55.7893L256.188 55.7958L256.616 55.5369ZM257.724 56.4972L257.547 56.9648V56.9648L257.724 56.4972ZM260.383 56.6634L260.298 56.1706L260.295 56.1711L260.383 56.6634ZM261.196 56.4972L261.684 56.3918L261.574 55.8788L261.067 56.014L261.196 56.4972ZM262.322 61.723L262.485 62.1957L262.904 62.0511L262.811 61.6177L262.322 61.723ZM260.789 62.1293L260.681 61.6412L260.679 61.6416L260.789 62.1293ZM258.389 62.3878L258.376 61.888L258.374 61.888L258.389 62.3878ZM253.865 61.6307L253.67 62.0914L253.674 62.0928L253.865 61.6307ZM250.67 59.0085L250.252 59.2829L250.254 59.2859L250.67 59.0085ZM249.525 54.5767L250.025 54.5802V54.5767H249.525ZM261.805 33.6364H261.305V38.8068H261.805H262.305V33.6364H261.805ZM261.805 38.8068V38.3068H245.5V38.8068V39.3068H261.805V38.8068ZM245.5 38.8068H246V33.6364H245.5H245V38.8068H245.5ZM245.5 33.6364V34.1364H261.805V33.6364V33.1364H245.5V33.6364ZM249.525 26.8409V27.3409H256.21V26.8409V26.3409H249.525V26.8409ZM256.21 26.8409H255.71V53.4688H256.21H256.71V26.8409H256.21ZM256.21 53.4688H255.71C255.71 54.405 255.849 55.1943 256.181 55.7826L256.616 55.5369L257.052 55.2913C256.842 54.9193 256.71 54.3298 256.71 53.4688H256.21ZM256.616 55.5369L256.188 55.7958C256.522 56.3469 256.974 56.748 257.547 56.9648L257.724 56.4972L257.901 56.0295C257.563 55.9016 257.277 55.6626 257.044 55.278L256.616 55.5369ZM257.724 56.4972L257.547 56.9648C258.066 57.1613 258.632 57.2557 259.238 57.2557V56.7557V56.2557C258.737 56.2557 258.293 56.1777 257.901 56.0295L257.724 56.4972ZM259.238 56.7557V57.2557C259.681 57.2557 260.092 57.2232 260.471 57.1556L260.383 56.6634L260.295 56.1711C259.985 56.2266 259.633 56.2557 259.238 56.2557V56.7557ZM260.383 56.6634L260.468 57.1561C260.829 57.0938 261.118 57.0354 261.324 56.9803L261.196 56.4972L261.067 56.014C260.904 56.0574 260.651 56.1098 260.298 56.1706L260.383 56.6634ZM261.196 56.4972L260.707 56.6025L261.833 61.8284L262.322 61.723L262.811 61.6177L261.684 56.3918L261.196 56.4972ZM262.322 61.723L262.159 61.2503C261.829 61.3642 261.339 61.4949 260.681 61.6412L260.789 62.1293L260.898 62.6174C261.569 62.4682 262.101 62.328 262.485 62.1957L262.322 61.723ZM260.789 62.1293L260.679 61.6416C260.069 61.7798 259.303 61.8639 258.376 61.888L258.389 62.3878L258.402 62.8876C259.37 62.8625 260.205 62.7742 260.9 62.6169L260.789 62.1293ZM258.389 62.3878L258.374 61.888C256.76 61.9355 255.323 61.6918 254.055 61.1685L253.865 61.6307L253.674 62.0928C255.09 62.6775 256.67 62.9386 258.404 62.8876L258.389 62.3878ZM253.865 61.6307L254.059 61.17C252.805 60.6408 251.818 59.8293 251.086 58.7312L250.67 59.0085L250.254 59.2859C251.098 60.5513 252.241 61.488 253.67 62.0913L253.865 61.6307ZM250.67 59.0085L251.088 58.7342C250.379 57.6536 250.013 56.2793 250.025 54.5802L249.525 54.5767L249.025 54.5732C249.012 56.4195 249.41 57.9998 250.252 59.2829L250.67 59.0085ZM249.525 54.5767H250.025V26.8409H249.525H249.025V54.5767H249.525ZM267.396 62H266.896V62.5H267.396V62ZM267.396 33.6364V33.1364H266.896V33.6364H267.396ZM274.08 33.6364H274.58V33.1364H274.08V33.6364ZM274.08 62V62.5H274.58V62H274.08ZM268.023 28.5582L267.682 28.9234L267.685 28.9263L268.023 28.5582ZM268.023 23.4247L268.362 23.7928L268.365 23.7898L268.023 23.4247ZM273.489 23.4247L273.145 23.7871L273.151 23.7928L273.489 23.4247ZM273.489 28.5582L273.831 28.9236L273.831 28.9234L273.489 28.5582ZM267.396 62H267.896V33.6364H267.396H266.896V62H267.396ZM267.396 33.6364V34.1364H274.08V33.6364V33.1364H267.396V33.6364ZM274.08 33.6364H273.58V62H274.08H274.58V33.6364H274.08ZM274.08 62V61.5H267.396V62V62.5H274.08V62ZM270.756 29.6108V29.1108C269.82 29.1108 269.031 28.8051 268.362 28.1902L268.023 28.5582L267.685 28.9263C268.543 29.7148 269.575 30.1108 270.756 30.1108V29.6108ZM268.023 28.5582L268.365 28.1931C267.697 27.5685 267.379 26.8429 267.379 25.9915H266.879H266.379C266.379 27.1343 266.823 28.1199 267.682 28.9234L268.023 28.5582ZM266.879 25.9915H267.379C267.379 25.1261 267.698 24.4027 268.362 23.7928L268.023 23.4247L267.685 23.0566C266.822 23.8501 266.379 24.8379 266.379 25.9915H266.879ZM268.023 23.4247L268.365 23.7898C269.034 23.1637 269.823 22.8537 270.756 22.8537V22.3537V21.8537C269.573 21.8537 268.539 22.2577 267.682 23.0596L268.023 23.4247ZM270.756 22.3537V22.8537C271.704 22.8537 272.49 23.1647 273.145 23.7871L273.489 23.4247L273.834 23.0624C272.987 22.2567 271.951 21.8537 270.756 21.8537V22.3537ZM273.489 23.4247L273.151 23.7928C273.814 24.4027 274.134 25.1261 274.134 25.9915H274.634H275.134C275.134 24.8379 274.691 23.8501 273.828 23.0566L273.489 23.4247ZM274.634 25.9915H274.134C274.134 26.8429 273.815 27.5685 273.148 28.1931L273.489 28.5582L273.831 28.9234C274.69 28.1199 275.134 27.1343 275.134 25.9915H274.634ZM273.489 28.5582L273.148 28.1929C272.494 28.8041 271.707 29.1108 270.756 29.1108V29.6108V30.1108C271.948 30.1108 272.983 29.7157 273.831 28.9236L273.489 28.5582ZM280.954 62H280.454V62.5H280.954V62ZM280.954 33.6364V33.1364H280.454V33.6364H280.954ZM287.343 33.6364H287.843V33.1364H287.343V33.6364ZM287.343 38.456H286.843V38.956H287.343V38.456ZM287.676 38.456V38.956H288.026L288.146 38.6268L287.676 38.456ZM290.612 34.652L290.889 35.068L290.892 35.0663L290.612 34.652ZM300.362 34.6705L300.072 35.0781L300.077 35.0811L300.362 34.6705ZM303.169 38.456L302.695 38.6163L302.81 38.956H303.169V38.456ZM303.464 38.456V38.956H303.803L303.929 38.641L303.464 38.456ZM306.64 34.6889L306.906 35.1123L306.907 35.1117L306.64 34.6889ZM320.841 62V62.5H321.341V62H320.841ZM314.137 62H313.637V62.5H314.137V62ZM312.734 40.1364L312.403 40.5114L312.406 40.5139L312.734 40.1364ZM305.514 40.4134L305.143 40.0784L305.142 40.0786L305.514 40.4134ZM304.166 62V62.5H304.666V62H304.166ZM297.61 62H297.11V62.5H297.61V62ZM296.281 40.2102L295.927 40.5638L295.93 40.5662L296.281 40.2102ZM290.224 39.6378L290.484 40.0648L290.489 40.0618L290.224 39.6378ZM288.341 41.6875L288.781 41.9234L288.783 41.9209L288.341 41.6875ZM287.639 62V62.5H288.139V62H287.639ZM280.954 62H281.454V33.6364H280.954H280.454V62H280.954ZM280.954 33.6364V34.1364H287.343V33.6364V33.1364H280.954V33.6364ZM287.343 33.6364H286.843V38.456H287.343H287.843V33.6364H287.343ZM287.343 38.456V38.956H287.676V38.456V37.956H287.343V38.456ZM287.676 38.456L288.146 38.6268C288.702 37.0963 289.616 35.9166 290.889 35.068L290.612 34.652L290.335 34.236C288.874 35.2093 287.831 36.5656 287.206 38.2851L287.676 38.456ZM290.612 34.652L290.892 35.0663C292.164 34.2069 293.694 33.767 295.505 33.767V33.267V32.767C293.525 32.767 291.793 33.2505 290.332 34.2377L290.612 34.652ZM295.505 33.267V33.767C297.342 33.767 298.855 34.2132 300.072 35.0781L300.362 34.6705L300.651 34.2628C299.235 33.2565 297.509 32.767 295.505 32.767V33.267ZM300.362 34.6705L300.077 35.0811C301.314 35.9405 302.186 37.1126 302.695 38.6163L303.169 38.456L303.642 38.2957C303.068 36.5985 302.069 35.247 300.647 34.2598L300.362 34.6705ZM303.169 38.456V38.956H303.464V38.456V37.956H303.169V38.456ZM303.464 38.456L303.929 38.641C304.516 37.1676 305.503 35.9938 306.906 35.1123L306.64 34.6889L306.374 34.2655C304.799 35.2553 303.668 36.5928 303 38.2709L303.464 38.456ZM306.64 34.6889L306.907 35.1117C308.317 34.2218 310 33.767 311.977 33.767V33.267V32.767C309.842 32.767 307.967 33.2602 306.373 34.2661L306.64 34.6889ZM311.977 33.267V33.767C314.471 33.767 316.468 34.5507 318.013 36.095L318.366 35.7415L318.72 35.3879C316.965 33.633 314.702 32.767 311.977 32.767V33.267ZM318.366 35.7415L318.013 36.095C319.539 37.6214 320.341 39.8819 320.341 42.9616H320.841H321.341C321.341 39.7137 320.493 37.1608 318.72 35.3879L318.366 35.7415ZM320.841 42.9616H320.341V62H320.841H321.341V42.9616H320.841ZM320.841 62V61.5H314.137V62V62.5H320.841V62ZM314.137 62H314.637V43.9957H314.137H313.637V62H314.137ZM314.137 43.9957H314.637C314.637 42.1534 314.147 40.701 313.062 39.7588L312.734 40.1364L312.406 40.5139C313.193 41.1968 313.637 42.3172 313.637 43.9957H314.137ZM312.734 40.1364L313.065 39.7613C312.03 38.8488 310.764 38.3991 309.299 38.3991V38.8991V39.3991C310.543 39.3991 311.567 39.7743 312.403 40.5114L312.734 40.1364ZM309.299 38.8991V38.3991C307.574 38.3991 306.166 38.9442 305.143 40.0784L305.514 40.4134L305.885 40.7483C306.684 39.8635 307.799 39.3991 309.299 39.3991V38.8991ZM305.514 40.4134L305.142 40.0786C304.146 41.1847 303.666 42.6107 303.666 44.3097H304.166H304.666C304.666 42.8078 305.085 41.6363 305.885 40.7481L305.514 40.4134ZM304.166 44.3097H303.666V62H304.166H304.666V44.3097H304.166ZM304.166 62V61.5H297.61V62V62.5H304.166V62ZM297.61 62H298.11V43.7188H297.61H297.11V62H297.61ZM297.61 43.7188H298.11C298.11 42.1455 297.63 40.8388 296.632 39.8542L296.281 40.2102L295.93 40.5662C296.704 41.3298 297.11 42.3621 297.11 43.7188H297.61ZM296.281 40.2102L296.634 39.8567C295.653 38.875 294.374 38.3991 292.846 38.3991V38.8991V39.3991C294.15 39.3991 295.161 39.7973 295.927 40.5638L296.281 40.2102ZM292.846 38.8991V38.3991C291.796 38.3991 290.829 38.67 289.959 39.2138L290.224 39.6378L290.489 40.0618C291.195 39.6207 291.976 39.3991 292.846 39.3991V38.8991ZM290.224 39.6378L289.964 39.2108C289.092 39.7419 288.405 40.4951 287.898 41.4541L288.341 41.6875L288.783 41.9209C289.212 41.1072 289.78 40.4939 290.484 40.0648L290.224 39.6378ZM288.341 41.6875L287.9 41.4516C287.387 42.4102 287.139 43.5158 287.139 44.7528H287.639H288.139C288.139 43.6509 288.359 42.7129 288.781 41.9234L288.341 41.6875ZM287.639 44.7528H287.139V62H287.639H288.139V44.7528H287.639ZM287.639 62V61.5H280.954V62V62.5H287.639V62ZM327.622 62H327.122V62.5H327.622V62ZM327.622 33.6364V33.1364H327.122V33.6364H327.622ZM334.307 33.6364H334.807V33.1364H334.307V33.6364ZM334.307 62V62.5H334.807V62H334.307ZM328.25 28.5582L327.908 28.9234L327.912 28.9263L328.25 28.5582ZM328.25 23.4247L328.588 23.7928L328.592 23.7898L328.25 23.4247ZM333.716 23.4247L333.371 23.7871L333.378 23.7928L333.716 23.4247ZM333.716 28.5582L334.057 28.9236L334.057 28.9234L333.716 28.5582ZM327.622 62H328.122V33.6364H327.622H327.122V62H327.622ZM327.622 33.6364V34.1364H334.307V33.6364V33.1364H327.622V33.6364ZM334.307 33.6364H333.807V62H334.307H334.807V33.6364H334.307ZM334.307 62V61.5H327.622V62V62.5H334.307V62ZM330.983 29.6108V29.1108C330.047 29.1108 329.257 28.8051 328.588 28.1902L328.25 28.5582L327.912 28.9263C328.769 29.7148 329.802 30.1108 330.983 30.1108V29.6108ZM328.25 28.5582L328.592 28.1931C327.924 27.5685 327.605 26.8429 327.605 25.9915H327.105H326.605C326.605 27.1343 327.05 28.1199 327.908 28.9234L328.25 28.5582ZM327.105 25.9915H327.605C327.605 25.1261 327.925 24.4027 328.588 23.7928L328.25 23.4247L327.912 23.0566C327.049 23.8501 326.605 24.8379 326.605 25.9915H327.105ZM328.25 23.4247L328.592 23.7898C329.261 23.1637 330.049 22.8537 330.983 22.8537V22.3537V21.8537C329.799 21.8537 328.766 22.2577 327.908 23.0596L328.25 23.4247ZM330.983 22.3537V22.8537C331.931 22.8537 332.717 23.1647 333.371 23.7871L333.716 23.4247L334.06 23.0624C333.213 22.2567 332.177 21.8537 330.983 21.8537V22.3537ZM333.716 23.4247L333.378 23.7928C334.041 24.4027 334.361 25.1261 334.361 25.9915H334.861H335.361C335.361 24.8379 334.917 23.8501 334.054 23.0566L333.716 23.4247ZM334.861 25.9915H334.361C334.361 26.8429 334.042 27.5685 333.374 28.1931L333.716 28.5582L334.057 28.9234C334.916 28.1199 335.361 27.1343 335.361 25.9915H334.861ZM333.716 28.5582L333.375 28.1929C332.72 28.8041 331.933 29.1108 330.983 29.1108V29.6108V30.1108C332.175 30.1108 333.21 29.7157 334.057 28.9236L333.716 28.5582ZM340.811 62H340.311V62.5H340.811V62ZM340.811 57.7528L340.421 57.4411L340.311 57.5779V57.7528H340.811ZM355.436 39.4162L355.827 39.728L355.936 39.5912V39.4162H355.436ZM355.436 39.1761H355.936V38.6761H355.436V39.1761ZM341.292 39.1761H340.792V39.6761H341.292V39.1761ZM341.292 33.6364V33.1364H340.792V33.6364H341.292ZM363.617 33.6364H364.117V33.1364H363.617V33.6364ZM363.617 38.1974L364.013 38.5031L364.117 38.3681V38.1974H363.617ZM349.694 56.2202L349.298 55.9145L349.194 56.0495V56.2202H349.694ZM349.694 56.4602H349.194V56.9602H349.694V56.4602ZM364.097 56.4602H364.597V55.9602H364.097V56.4602ZM364.097 62V62.5H364.597V62H364.097ZM340.811 62H341.311V57.7528H340.811H340.311V62H340.811ZM340.811 57.7528L341.202 58.0646L355.827 39.728L355.436 39.4162L355.046 39.1044L340.421 57.4411L340.811 57.7528ZM355.436 39.4162H355.936V39.1761H355.436H354.936V39.4162H355.436ZM355.436 39.1761V38.6761H341.292V39.1761V39.6761H355.436V39.1761ZM341.292 39.1761H341.792V33.6364H341.292H340.792V39.1761H341.292ZM341.292 33.6364V34.1364H363.617V33.6364V33.1364H341.292V33.6364ZM363.617 33.6364H363.117V38.1974H363.617H364.117V33.6364H363.617ZM363.617 38.1974L363.221 37.8918L349.298 55.9145L349.694 56.2202L350.089 56.5258L364.013 38.5031L363.617 38.1974ZM349.694 56.2202H349.194V56.4602H349.694H350.194V56.2202H349.694ZM349.694 56.4602V56.9602H364.097V56.4602V55.9602H349.694V56.4602ZM364.097 56.4602H363.597V62H364.097H364.597V56.4602H364.097ZM364.097 62V61.5H340.811V62V62.5H364.097V62ZM374.756 60.7812L374.505 61.2136L374.508 61.2154L374.756 60.7812ZM370.011 55.7216L369.564 55.9472L369.565 55.9482L370.011 55.7216ZM370.011 40.3026L369.564 40.077L369.564 40.078L370.011 40.3026ZM374.701 35.1321L374.962 35.5583L374.964 35.5571L374.701 35.1321ZM386.722 34.1165L386.551 34.5862L386.555 34.5878L386.722 34.1165ZM390.859 36.7017L390.509 37.0589L390.511 37.0607L390.859 36.7017ZM393.702 41.1705L393.235 41.3485L393.236 41.3495L393.702 41.1705ZM394.737 49.6463V50.1463H395.237V49.6463H394.737ZM371.488 49.6463H370.988V50.1463H371.488V49.6463ZM371.488 45.1406V44.6406H370.988V45.1406H371.488ZM388.329 45.1406V45.6406H388.834L388.829 45.1358L388.329 45.1406ZM387.498 41.7244L387.057 41.9608L387.059 41.9631L387.498 41.7244ZM385.227 39.3423L384.969 39.7706L384.971 39.772L385.227 39.3423ZM378.265 39.4716L378.532 39.8945L378.535 39.8922L378.265 39.4716ZM375.846 42.0568L375.406 41.8192L375.405 41.821L375.846 42.0568ZM374.978 45.5469L374.478 45.542V45.5469H374.978ZM375.883 53.7273L375.437 53.9546L375.438 53.9565L375.883 53.7273ZM378.413 56.4233L378.162 56.8559L378.166 56.858L378.413 56.4233ZM384.857 56.9403L385.02 57.4132L385.026 57.4109L384.857 56.9403ZM386.907 55.7031L386.565 55.3381L386.907 55.7031ZM388.218 53.6903L388.274 53.1935L387.885 53.1497L387.749 53.5172L388.218 53.6903ZM394.46 54.392L394.946 54.5082L395.077 53.9583L394.515 53.8952L394.46 54.392ZM392.207 58.7131L391.835 58.3786L391.835 58.3788L392.207 58.7131ZM387.996 61.5568L388.178 62.0229L388.18 62.0217L387.996 61.5568ZM382.124 62.554V62.054C379.351 62.054 376.984 61.4781 375.004 60.3471L374.756 60.7812L374.508 61.2154C376.665 62.448 379.21 63.054 382.124 63.054V62.554ZM374.756 60.7812L375.008 60.3489C373.037 59.2046 371.522 57.5906 370.456 55.495L370.011 55.7216L369.565 55.9482C370.715 58.2105 372.364 59.9697 374.505 61.2136L374.756 60.7812ZM370.011 55.7216L370.457 55.496C369.391 53.3877 368.849 50.889 368.849 47.9844H368.349H367.849C367.849 51.0135 368.414 53.6729 369.564 55.9472L370.011 55.7216ZM368.349 47.9844H368.849C368.849 45.1306 369.39 42.6494 370.457 40.5272L370.011 40.3026L369.564 40.078C368.415 42.3629 367.849 45.003 367.849 47.9844H368.349ZM370.011 40.3026L370.457 40.5281C371.538 38.3902 373.039 36.7382 374.962 35.5583L374.701 35.1321L374.44 34.7059C372.35 35.9881 370.724 37.7831 369.564 40.077L370.011 40.3026ZM374.701 35.1321L374.964 35.5571C376.881 34.3696 379.144 33.767 381.773 33.767V33.267V32.767C378.986 32.767 376.534 33.4078 374.438 34.7071L374.701 35.1321ZM381.773 33.267V33.767C383.467 33.767 385.058 34.0411 386.551 34.5862L386.722 34.1165L386.894 33.6468C385.285 33.0593 383.577 32.767 381.773 32.767V33.267ZM386.722 34.1165L386.555 34.5878C388.05 35.1173 389.366 35.9399 390.509 37.0589L390.859 36.7017L391.209 36.3445C389.963 35.1245 388.522 34.2236 386.889 33.6452L386.722 34.1165ZM390.859 36.7017L390.511 37.0607C391.657 38.1721 392.568 39.5967 393.235 41.3485L393.702 41.1705L394.17 40.9925C393.458 39.1249 392.473 37.5703 391.207 36.3427L390.859 36.7017ZM393.702 41.1705L393.236 41.3495C393.898 43.0757 394.237 45.1541 394.237 47.5966H394.737H395.237C395.237 45.0656 394.886 42.8599 394.169 40.9914L393.702 41.1705ZM394.737 47.5966H394.237V49.6463H394.737H395.237V47.5966H394.737ZM394.737 49.6463V49.1463H371.488V49.6463V50.1463H394.737V49.6463ZM371.488 49.6463H371.988V45.1406H371.488H370.988V49.6463H371.488ZM371.488 45.1406V45.6406H388.329V45.1406V44.6406H371.488V45.1406ZM388.329 45.1406L388.829 45.1358C388.816 43.7844 388.523 42.5635 387.937 41.4858L387.498 41.7244L387.059 41.9631C387.556 42.8796 387.817 43.9362 387.829 45.1454L388.329 45.1406ZM387.498 41.7244L387.938 41.488C387.354 40.3996 386.534 39.5383 385.482 38.9126L385.227 39.3423L384.971 39.772C385.864 40.3036 386.558 41.0304 387.057 41.9608L387.498 41.7244ZM385.227 39.3423L385.485 38.9141C384.436 38.2822 383.224 37.9744 381.866 37.9744V38.4744V38.9744C383.068 38.9744 384.097 39.2453 384.969 39.7706L385.227 39.3423ZM381.866 38.4744V37.9744C380.414 37.9744 379.118 38.3287 377.995 39.051L378.265 39.4716L378.535 39.8922C379.48 39.2849 380.584 38.9744 381.866 38.9744V38.4744ZM378.265 39.4716L377.998 39.0487C376.892 39.7468 376.026 40.6722 375.406 41.8192L375.846 42.0568L376.286 42.2945C376.823 41.2994 377.57 40.5013 378.532 39.8945L378.265 39.4716ZM375.846 42.0568L375.405 41.821C374.799 42.9548 374.491 44.1981 374.478 45.542L374.978 45.5469L375.478 45.5517C375.49 44.3597 375.761 43.2763 376.287 42.2926L375.846 42.0568ZM374.978 45.5469H374.478V49.4801H374.978H375.478V45.5469H374.978ZM374.978 49.4801H374.478C374.478 51.1899 374.791 52.6873 375.437 53.9546L375.883 53.7273L376.328 53.5C375.769 52.4036 375.478 51.0695 375.478 49.4801H374.978ZM375.883 53.7273L375.438 53.9565C376.083 55.2063 376.992 56.1777 378.162 56.8559L378.413 56.4233L378.663 55.9907C377.667 55.4133 376.889 54.5872 376.327 53.4981L375.883 53.7273ZM378.413 56.4233L378.166 56.858C379.336 57.523 380.692 57.8466 382.217 57.8466V57.3466V56.8466C380.836 56.8466 379.656 56.5547 378.66 55.9886L378.413 56.4233ZM382.217 57.3466V57.8466C383.235 57.8466 384.172 57.7047 385.02 57.4132L384.857 56.9403L384.695 56.4675C383.967 56.7176 383.143 56.8466 382.217 56.8466V57.3466ZM384.857 56.9403L385.026 57.4109C385.875 57.106 386.618 56.659 387.249 56.0681L386.907 55.7031L386.565 55.3381C386.039 55.8306 385.416 56.2084 384.688 56.4698L384.857 56.9403ZM386.907 55.7031L387.249 56.0681C387.888 55.4693 388.367 54.731 388.687 53.8635L388.218 53.6903L387.749 53.5172C387.478 54.2501 387.083 54.8536 386.565 55.3381L386.907 55.7031ZM388.218 53.6903L388.162 54.1872L394.404 54.8889L394.46 54.392L394.515 53.8952L388.274 53.1935L388.218 53.6903ZM394.46 54.392L393.973 54.2759C393.598 55.8463 392.886 57.2111 391.835 58.3786L392.207 58.7131L392.578 59.0476C393.744 57.7529 394.533 56.237 394.946 54.5082L394.46 54.392ZM392.207 58.7131L391.835 58.3788C390.797 59.5333 389.461 60.4397 387.812 61.0919L387.996 61.5568L388.18 62.0217C389.955 61.3197 391.425 60.3303 392.579 59.0473L392.207 58.7131ZM387.996 61.5568L387.815 61.0908C386.172 61.7291 384.278 62.054 382.124 62.054V62.554V63.054C384.378 63.054 386.398 62.7141 388.178 62.0229L387.996 61.5568Z" fill="#060606"/>
</svg>
