<svg width="466" height="95" viewBox="0 0 466 95" fill="none" xmlns="http://www.w3.org/2000/svg">
<path d="M0.893555 40.3701C4.18325 15.234 27.2212 -2.43445 52.3506 0.90625C77.4801 4.24714 95.1851 27.3325 91.8955 52.4688C88.6058 77.6048 65.5678 95.2732 40.4385 91.9326C15.3089 88.5918 -2.39607 65.5064 0.893555 40.3701ZM51.5723 6.85547C29.7275 3.95131 9.70046 19.3105 6.84082 41.1611C3.98133 63.0117 19.3721 83.0792 41.2168 85.9834C63.0615 88.8875 83.0886 73.5283 85.9482 51.6777C88.8077 29.8272 73.4169 9.75965 51.5723 6.85547Z" fill="#ECFBA9"/>
<path d="M76.5322 25.1139L42.023 28.133L61.8922 56.5093L76.5322 25.1139ZM11 71L12.7207 73.4575L56.1358 43.0579L54.4151 40.6004L52.6943 38.143L9.27927 68.5425L11 71Z" fill="#ECFBA9"/>
<path d="M127.131 69H122.33L136.216 31.1818H140.943L154.83 69H150.028L138.727 37.1648H138.432L127.131 69ZM128.903 54.2273H148.256V58.2898H128.903V54.2273ZM170.839 69.5909C168.476 69.5909 166.389 68.9938 164.58 67.7997C162.77 66.5933 161.354 64.8944 160.332 62.7031C159.311 60.4995 158.8 57.8958 158.8 54.892C158.8 51.9129 159.311 49.3277 160.332 47.1364C161.354 44.9451 162.776 43.2524 164.598 42.0582C166.42 40.8641 168.525 40.267 170.913 40.267C172.76 40.267 174.219 40.5748 175.29 41.1903C176.373 41.7936 177.198 42.483 177.764 43.2585C178.343 44.0218 178.792 44.6496 179.112 45.142H179.482V31.1818H183.839V69H179.629V64.642H179.112C178.792 65.1591 178.337 65.8116 177.746 66.5994C177.155 67.375 176.312 68.0705 175.216 68.6861C174.12 69.2893 172.661 69.5909 170.839 69.5909ZM171.43 65.6761C173.179 65.6761 174.656 65.2206 175.862 64.3097C177.069 63.3864 177.986 62.1122 178.614 60.4872C179.241 58.8499 179.555 56.9602 179.555 54.8182C179.555 52.7008 179.248 50.848 178.632 49.2599C178.017 47.6596 177.106 46.4162 175.899 45.5298C174.693 44.6312 173.203 44.1818 171.43 44.1818C169.584 44.1818 168.045 44.6558 166.814 45.6037C165.595 46.5393 164.678 47.8134 164.062 49.4261C163.459 51.0265 163.158 52.8239 163.158 54.8182C163.158 56.8371 163.465 58.6714 164.081 60.321C164.709 61.9583 165.632 63.2633 166.851 64.2358C168.082 65.196 169.608 65.6761 171.43 65.6761ZM225.96 50.0909C225.96 54.1657 225.197 57.6558 223.67 60.5611C222.156 63.4541 220.088 65.67 217.466 67.2088C214.856 68.7476 211.895 69.517 208.584 69.517C205.272 69.517 202.305 68.7476 199.683 67.2088C197.073 65.6577 195.005 63.4356 193.479 60.5426C191.964 57.6373 191.207 54.1534 191.207 50.0909C191.207 46.0161 191.964 42.5322 193.479 39.6392C195.005 36.7339 197.073 34.5118 199.683 32.973C202.305 31.4342 205.272 30.6648 208.584 30.6648C211.895 30.6648 214.856 31.4342 217.466 32.973C220.088 34.5118 222.156 36.7339 223.67 39.6392C225.197 42.5322 225.96 46.0161 225.96 50.0909ZM219.072 50.0909C219.072 47.2225 218.623 44.8035 217.724 42.8338C216.838 40.8518 215.607 39.3561 214.031 38.3466C212.455 37.3248 210.64 36.8139 208.584 36.8139C206.528 36.8139 204.712 37.3248 203.136 38.3466C201.561 39.3561 200.323 40.8518 199.425 42.8338C198.538 44.8035 198.095 47.2225 198.095 50.0909C198.095 52.9593 198.538 55.3845 199.425 57.3665C200.323 59.3362 201.561 60.8319 203.136 61.8537C204.712 62.8632 206.528 63.3679 208.584 63.3679C210.64 63.3679 212.455 62.8632 214.031 61.8537C215.607 60.8319 216.838 59.3362 217.724 57.3665C218.623 55.3845 219.072 52.9593 219.072 50.0909ZM232.142 79.6364V40.6364H238.716V45.3267H239.103C239.448 44.6373 239.934 43.9048 240.562 43.1293C241.19 42.3414 242.039 41.6705 243.11 41.1165C244.181 40.5502 245.548 40.267 247.21 40.267C249.401 40.267 251.377 40.8272 253.137 41.9474C254.91 43.0554 256.314 44.6989 257.348 46.8778C258.394 49.0445 258.917 51.7036 258.917 54.8551C258.917 57.9697 258.406 60.6165 257.385 62.7955C256.363 64.9744 254.972 66.6364 253.211 67.7812C251.451 68.9261 249.457 69.4986 247.228 69.4986C245.603 69.4986 244.255 69.2277 243.184 68.6861C242.113 68.1444 241.252 67.492 240.599 66.7287C239.959 65.9531 239.46 65.2206 239.103 64.5312H238.826V79.6364H232.142ZM238.697 54.8182C238.697 56.6525 238.956 58.259 239.473 59.6378C240.002 61.0166 240.759 62.0937 241.744 62.8693C242.741 63.6326 243.948 64.0142 245.363 64.0142C246.841 64.0142 248.078 63.6203 249.075 62.8324C250.072 62.0322 250.823 60.9427 251.328 59.5639C251.845 58.1728 252.103 56.5909 252.103 54.8182C252.103 53.0578 251.851 51.4943 251.346 50.1278C250.842 48.7614 250.091 47.6903 249.093 46.9148C248.096 46.1392 246.853 45.7514 245.363 45.7514C243.935 45.7514 242.723 46.1269 241.725 46.8778C240.728 47.6288 239.971 48.6813 239.454 50.0355C238.949 51.3897 238.697 52.9839 238.697 54.8182ZM278.805 40.6364V45.8068H262.5V40.6364H278.805ZM266.525 33.8409H273.21V60.4688C273.21 61.3674 273.345 62.0568 273.616 62.5369C273.899 63.0047 274.269 63.3248 274.724 63.4972C275.18 63.6695 275.684 63.7557 276.238 63.7557C276.657 63.7557 277.038 63.7249 277.383 63.6634C277.74 63.6018 278.011 63.5464 278.196 63.4972L279.322 68.723C278.965 68.8461 278.454 68.9815 277.789 69.1293C277.137 69.277 276.337 69.3632 275.389 69.3878C273.715 69.437 272.207 69.1847 270.865 68.6307C269.523 68.0644 268.458 67.1903 267.67 66.0085C266.895 64.8267 266.513 63.3494 266.525 61.5767V33.8409ZM284.396 69V40.6364H291.08V69H284.396ZM287.756 36.6108C286.698 36.6108 285.787 36.2599 285.023 35.5582C284.26 34.8442 283.879 33.9886 283.879 32.9915C283.879 31.982 284.26 31.1264 285.023 30.4247C285.787 29.7107 286.698 29.3537 287.756 29.3537C288.827 29.3537 289.738 29.7107 290.489 30.4247C291.253 31.1264 291.634 31.982 291.634 32.9915C291.634 33.9886 291.253 34.8442 290.489 35.5582C289.738 36.2599 288.827 36.6108 287.756 36.6108ZM297.954 69V40.6364H304.343V45.456H304.676C305.267 43.831 306.245 42.563 307.612 41.652C308.978 40.7287 310.609 40.267 312.505 40.267C314.426 40.267 316.045 40.7348 317.362 41.6705C318.691 42.5937 319.627 43.8556 320.169 45.456H320.464C321.092 43.8802 322.151 42.6245 323.64 41.6889C325.142 40.741 326.921 40.267 328.977 40.267C331.587 40.267 333.717 41.0919 335.366 42.7415C337.016 44.3911 337.841 46.7978 337.841 49.9616V69H331.137V50.9957C331.137 49.2353 330.67 47.9489 329.734 47.1364C328.798 46.3116 327.654 45.8991 326.299 45.8991C324.687 45.8991 323.425 46.4039 322.514 47.4134C321.615 48.4105 321.166 49.7093 321.166 51.3097V69H314.61V50.7188C314.61 49.2538 314.167 48.0843 313.281 47.2102C312.407 46.3362 311.262 45.8991 309.846 45.8991C308.886 45.8991 308.012 46.1454 307.224 46.6378C306.436 47.1179 305.808 47.8011 305.341 48.6875C304.873 49.5616 304.639 50.5833 304.639 51.7528V69H297.954ZM344.622 69V40.6364H351.307V69H344.622ZM347.983 36.6108C346.924 36.6108 346.013 36.2599 345.25 35.5582C344.487 34.8442 344.105 33.9886 344.105 32.9915C344.105 31.982 344.487 31.1264 345.25 30.4247C346.013 29.7107 346.924 29.3537 347.983 29.3537C349.054 29.3537 349.965 29.7107 350.716 30.4247C351.479 31.1264 351.861 31.982 351.861 32.9915C351.861 33.9886 351.479 34.8442 350.716 35.5582C349.965 36.2599 349.054 36.6108 347.983 36.6108ZM357.811 69V64.7528L372.436 46.4162V46.1761H358.292V40.6364H380.617V45.1974L366.694 63.2202V63.4602H381.097V69H357.811ZM399.124 69.554C396.281 69.554 393.825 68.9631 391.756 67.7812C389.701 66.5871 388.119 64.9006 387.011 62.7216C385.903 60.5303 385.349 57.9512 385.349 54.9844C385.349 52.0668 385.903 49.5062 387.011 47.3026C388.131 45.0866 389.694 43.3632 391.701 42.1321C393.708 40.8887 396.065 40.267 398.773 40.267C400.522 40.267 402.171 40.5502 403.722 41.1165C405.286 41.6705 406.665 42.5322 407.859 43.7017C409.065 44.8712 410.013 46.3608 410.702 48.1705C411.392 49.9678 411.737 52.1098 411.737 54.5966V56.6463H388.488V52.1406H405.329C405.317 50.8603 405.04 49.7216 404.498 48.7244C403.956 47.715 403.199 46.9209 402.227 46.3423C401.266 45.7637 400.146 45.4744 398.866 45.4744C397.499 45.4744 396.299 45.8068 395.265 46.4716C394.231 47.1241 393.424 47.9858 392.846 49.0568C392.28 50.1155 391.99 51.2789 391.978 52.5469V56.4801C391.978 58.1297 392.28 59.5455 392.883 60.7273C393.486 61.8968 394.329 62.7955 395.413 63.4233C396.496 64.0388 397.764 64.3466 399.217 64.3466C400.189 64.3466 401.069 64.2112 401.857 63.9403C402.645 63.6572 403.328 63.2448 403.907 62.7031C404.486 62.1615 404.923 61.4905 405.218 60.6903L411.46 61.392C411.066 63.0417 410.315 64.482 409.207 65.7131C408.111 66.9318 406.708 67.8797 404.996 68.5568C403.285 69.2216 401.328 69.554 399.124 69.554Z" fill="#FCFCFC"/>
<path d="M127.131 69V69.5H127.484L127.602 69.1673L127.131 69ZM122.33 69L121.86 68.8277L121.613 69.5H122.33V69ZM136.216 31.1818V30.6818H135.867L135.747 31.0095L136.216 31.1818ZM140.943 31.1818L141.413 31.0095L141.292 30.6818H140.943V31.1818ZM154.83 69V69.5H155.546L155.299 68.8277L154.83 69ZM150.028 69L149.557 69.1673L149.675 69.5H150.028V69ZM138.727 37.1648L139.198 36.9975L139.08 36.6648H138.727V37.1648ZM138.432 37.1648V36.6648H138.079L137.961 36.9975L138.432 37.1648ZM128.903 54.2273V53.7273H128.403V54.2273H128.903ZM148.256 54.2273H148.756V53.7273H148.256V54.2273ZM148.256 58.2898V58.7898H148.756V58.2898H148.256ZM128.903 58.2898H128.403V58.7898H128.903V58.2898ZM127.131 69V68.5H122.33V69V69.5H127.131V69ZM122.33 69L122.799 69.1723L136.685 31.3542L136.216 31.1818L135.747 31.0095L121.86 68.8277L122.33 69ZM136.216 31.1818V31.6818H140.943V31.1818V30.6818H136.216V31.1818ZM140.943 31.1818L140.474 31.3542L154.36 69.1723L154.83 69L155.299 68.8277L141.413 31.0095L140.943 31.1818ZM154.83 69V68.5H150.028V69V69.5H154.83V69ZM150.028 69L150.5 68.8327L139.198 36.9975L138.727 37.1648L138.256 37.332L149.557 69.1673L150.028 69ZM138.727 37.1648V36.6648H138.432V37.1648V37.6648H138.727V37.1648ZM138.432 37.1648L137.961 36.9975L126.659 68.8327L127.131 69L127.602 69.1673L138.903 37.332L138.432 37.1648ZM128.903 54.2273V54.7273H148.256V54.2273V53.7273H128.903V54.2273ZM148.256 54.2273H147.756V58.2898H148.256H148.756V54.2273H148.256ZM148.256 58.2898V57.7898H128.903V58.2898V58.7898H148.256V58.2898ZM128.903 58.2898H129.403V54.2273H128.903H128.403V58.2898H128.903ZM164.58 67.7997L164.302 68.2157L164.304 68.217L164.58 67.7997ZM160.332 62.7031L159.879 62.9135L159.879 62.9144L160.332 62.7031ZM160.332 47.1364L159.879 46.9251V46.9251L160.332 47.1364ZM164.598 42.0582L164.324 41.6401V41.6401L164.598 42.0582ZM175.29 41.1903L175.041 41.6239L175.047 41.6272L175.29 41.1903ZM177.764 43.2585L177.36 43.5534L177.366 43.5606L177.764 43.2585ZM179.112 45.142L178.693 45.4145L178.841 45.642H179.112V45.142ZM179.482 45.142V45.642H179.982V45.142H179.482ZM179.482 31.1818V30.6818H178.982V31.1818H179.482ZM183.839 31.1818H184.339V30.6818H183.839V31.1818ZM183.839 69V69.5H184.339V69H183.839ZM179.629 69H179.129V69.5H179.629V69ZM179.629 64.642H180.129V64.142H179.629V64.642ZM179.112 64.642V64.142H178.834L178.687 64.3789L179.112 64.642ZM177.746 66.5994L178.143 66.9025L178.146 66.8994L177.746 66.5994ZM175.216 68.6861L175.457 69.1241L175.461 69.122L175.216 68.6861ZM175.862 64.3097L176.164 64.7087L176.166 64.7067L175.862 64.3097ZM178.614 60.4872L179.08 60.6674L179.08 60.6662L178.614 60.4872ZM178.632 49.2599L178.165 49.4394L178.166 49.4406L178.632 49.2599ZM175.899 45.5298L175.6 45.9308L175.603 45.9328L175.899 45.5298ZM166.814 45.6037L167.118 46.0003L167.119 45.9999L166.814 45.6037ZM164.062 49.4261L163.595 49.2478L163.595 49.2498L164.062 49.4261ZM164.081 60.321L163.612 60.4958L163.614 60.5L164.081 60.321ZM166.851 64.2358L166.539 64.6266L166.543 64.63L166.851 64.2358ZM170.839 69.5909V69.0909C168.565 69.0909 166.576 68.5177 164.855 67.3824L164.58 67.7997L164.304 68.217C166.203 69.47 168.387 70.0909 170.839 70.0909V69.5909ZM164.58 67.7997L164.857 67.3837C163.132 66.2336 161.773 64.6096 160.786 62.4918L160.332 62.7031L159.879 62.9144C160.935 65.1792 162.408 66.9529 164.302 68.2157L164.58 67.7997ZM160.332 62.7031L160.786 62.4928C159.801 60.3688 159.3 57.84 159.3 54.892H158.8H158.3C158.3 57.9517 158.82 60.6303 159.879 62.9135L160.332 62.7031ZM158.8 54.892H159.3C159.3 51.9693 159.801 49.4593 160.786 47.3477L160.332 47.1364L159.879 46.9251C158.82 49.196 158.3 51.8564 158.3 54.892H158.8ZM160.332 47.1364L160.786 47.3477C161.772 45.2311 163.136 43.6141 164.872 42.4764L164.598 42.0582L164.324 41.6401C162.416 42.8906 160.936 44.659 159.879 46.9251L160.332 47.1364ZM164.598 42.0582L164.872 42.4764C166.605 41.3408 168.613 40.767 170.913 40.767V40.267V39.767C168.437 39.767 166.235 40.3874 164.324 41.6401L164.598 42.0582ZM170.913 40.267V40.767C172.713 40.767 174.074 41.0683 175.041 41.6238L175.29 41.1903L175.539 40.7568C174.364 40.0814 172.807 39.767 170.913 39.767V40.267ZM175.29 41.1903L175.047 41.6272C176.084 42.2051 176.847 42.8506 177.36 43.5534L177.764 43.2585L178.168 42.9637C177.549 42.1153 176.662 41.382 175.533 40.7535L175.29 41.1903ZM177.764 43.2585L177.366 43.5606C177.941 44.3194 178.382 44.9365 178.693 45.4145L179.112 45.142L179.531 44.8696C179.202 44.3628 178.745 43.7242 178.163 42.9565L177.764 43.2585ZM179.112 45.142V45.642H179.482V45.142V44.642H179.112V45.142ZM179.482 45.142H179.982V31.1818H179.482H178.982V45.142H179.482ZM179.482 31.1818V31.6818H183.839V31.1818V30.6818H179.482V31.1818ZM183.839 31.1818H183.339V69H183.839H184.339V31.1818H183.839ZM183.839 69V68.5H179.629V69V69.5H183.839V69ZM179.629 69H180.129V64.642H179.629H179.129V69H179.629ZM179.629 64.642V64.142H179.112V64.642V65.142H179.629V64.642ZM179.112 64.642L178.687 64.3789C178.378 64.878 177.932 65.5171 177.346 66.2994L177.746 66.5994L178.146 66.8994C178.741 66.106 179.206 65.4402 179.537 64.9052L179.112 64.642ZM177.746 66.5994L177.348 66.2964C176.809 67.0045 176.024 67.6588 174.971 68.2502L175.216 68.6861L175.461 69.122C176.599 68.4823 177.501 67.7455 178.143 66.9025L177.746 66.5994ZM175.216 68.6861L174.975 68.2481C173.979 68.7962 172.613 69.0909 170.839 69.0909V69.5909V70.0909C172.71 70.0909 174.261 69.7823 175.457 69.1241L175.216 68.6861ZM171.43 65.6761V66.1761C173.27 66.1761 174.857 65.6951 176.164 64.7087L175.862 64.3097L175.561 63.9106C174.454 64.7462 173.087 65.1761 171.43 65.1761V65.6761ZM175.862 64.3097L176.166 64.7067C177.456 63.7197 178.424 62.3654 179.08 60.6674L178.614 60.4872L178.147 60.307C177.548 61.859 176.681 63.0531 175.558 63.9126L175.862 64.3097ZM178.614 60.4872L179.08 60.6662C179.735 58.9607 180.055 57.0083 180.055 54.8182H179.555H179.055C179.055 56.9122 178.748 58.7391 178.147 60.3082L178.614 60.4872ZM179.555 54.8182H180.055C180.055 52.6535 179.741 50.7371 179.098 49.0792L178.632 49.2599L178.166 49.4406C178.754 50.959 179.055 52.7481 179.055 54.8182H179.555ZM178.632 49.2599L179.099 49.0805C178.454 47.4041 177.489 46.0778 176.195 45.1269L175.899 45.5298L175.603 45.9328C176.722 46.7546 177.579 47.915 178.165 49.4394L178.632 49.2599ZM175.899 45.5298L176.198 45.1288C174.89 44.155 173.291 43.6818 171.43 43.6818V44.1818V44.6818C173.115 44.6818 174.495 45.1073 175.6 45.9308L175.899 45.5298ZM171.43 44.1818V43.6818C169.495 43.6818 167.843 44.1802 166.509 45.2075L166.814 45.6037L167.119 45.9999C168.247 45.1313 169.673 44.6818 171.43 44.6818V44.1818ZM166.814 45.6037L166.509 45.2071C165.209 46.2058 164.24 47.5597 163.595 49.2478L164.062 49.4261L164.53 49.6044C165.116 48.0672 165.982 46.8728 167.118 46.0003L166.814 45.6037ZM164.062 49.4261L163.595 49.2498C162.967 50.9151 162.658 52.7735 162.658 54.8182H163.158H163.658C163.658 52.8743 163.952 51.138 164.53 49.6025L164.062 49.4261ZM163.158 54.8182H162.658C162.658 56.8882 162.973 58.7827 163.613 60.4958L164.081 60.321L164.549 60.1462C163.958 58.5601 163.658 56.7861 163.658 54.8182H163.158ZM164.081 60.321L163.614 60.5C164.27 62.2099 165.242 63.5919 166.539 64.6266L166.851 64.2358L167.163 63.845C166.022 62.9347 165.148 61.7068 164.548 60.142L164.081 60.321ZM166.851 64.2358L166.543 64.63C167.876 65.6698 169.516 66.1761 171.43 66.1761V65.6761V65.1761C169.7 65.1761 168.287 64.7222 167.158 63.8415L166.851 64.2358ZM223.67 60.5611L223.228 60.3285L223.227 60.3292L223.67 60.5611ZM217.466 67.2088L217.213 66.7776L217.212 66.7781L217.466 67.2088ZM199.683 67.2088L199.428 67.6386L199.43 67.64L199.683 67.2088ZM193.479 60.5426L193.035 60.7737L193.036 60.776L193.479 60.5426ZM193.479 39.6392L193.036 39.4066L193.036 39.4073L193.479 39.6392ZM199.683 32.973L199.43 32.5418L199.429 32.5423L199.683 32.973ZM217.466 32.973L217.212 33.4037L217.213 33.4042L217.466 32.973ZM223.67 39.6392L223.227 39.8703L223.228 39.8725L223.67 39.6392ZM217.724 42.8338L217.268 43.0379L217.27 43.0413L217.724 42.8338ZM214.031 38.3466L213.759 38.7661L213.762 38.7676L214.031 38.3466ZM203.136 38.3466L203.406 38.7676L203.408 38.7661L203.136 38.3466ZM199.425 42.8338L198.969 42.6273L198.969 42.6286L199.425 42.8338ZM199.425 57.3665L198.968 57.5706L198.97 57.574L199.425 57.3665ZM203.136 61.8537L202.864 62.2732L202.867 62.2747L203.136 61.8537ZM214.031 61.8537L214.301 62.2747L214.303 62.2732L214.031 61.8537ZM217.724 57.3665L217.269 57.16L217.268 57.1613L217.724 57.3665ZM225.96 50.0909H225.46C225.46 54.1039 224.709 57.5102 223.228 60.3285L223.67 60.5611L224.113 60.7936C225.685 57.8013 226.46 54.2275 226.46 50.0909H225.96ZM223.67 60.5611L223.227 60.3292C221.753 63.1457 219.748 65.2896 217.213 66.7776L217.466 67.2088L217.719 67.64C220.428 66.0503 222.559 63.7625 224.113 60.7929L223.67 60.5611ZM217.466 67.2088L217.212 66.7781C214.686 68.2674 211.815 69.017 208.584 69.017V69.517V70.017C211.976 70.017 215.026 69.2279 217.72 67.6395L217.466 67.2088ZM208.584 69.517V69.017C205.353 69.017 202.475 68.2674 199.936 66.7776L199.683 67.2088L199.43 67.64C202.136 69.2279 205.191 70.017 208.584 70.017V69.517ZM199.683 67.2088L199.939 66.779C197.414 65.2785 195.408 63.1274 193.921 60.3093L193.479 60.5426L193.036 60.776C194.603 63.7438 196.733 66.0368 199.428 67.6386L199.683 67.2088ZM193.479 60.5426L193.922 60.3115C192.453 57.4927 191.707 54.0919 191.707 50.0909H191.207H190.707C190.707 54.2149 191.476 57.7819 193.035 60.7737L193.479 60.5426ZM191.207 50.0909H191.707C191.707 46.0772 192.453 42.6769 193.922 39.8711L193.479 39.6392L193.036 39.4073C191.476 42.3875 190.707 45.955 190.707 50.0909H191.207ZM193.479 39.6392L193.921 39.8718C195.408 37.0417 197.414 34.8914 199.937 33.4037L199.683 32.973L199.429 32.5423C196.733 34.1323 194.602 36.4261 193.036 39.4066L193.479 39.6392ZM199.683 32.973L199.936 33.4042C202.475 31.9144 205.353 31.1648 208.584 31.1648V30.6648V30.1648C205.191 30.1648 202.136 30.954 199.43 32.5418L199.683 32.973ZM208.584 30.6648V31.1648C211.815 31.1648 214.686 31.9144 217.212 33.4037L217.466 32.973L217.72 32.5423C215.026 30.9539 211.976 30.1648 208.584 30.1648V30.6648ZM217.466 32.973L217.213 33.4042C219.748 34.8918 221.753 37.0415 223.227 39.8703L223.67 39.6392L224.114 39.4081C222.56 36.4263 220.428 34.1318 217.719 32.5418L217.466 32.973ZM223.67 39.6392L223.228 39.8725C224.709 42.6781 225.46 46.0778 225.46 50.0909H225.96H226.46C226.46 45.9544 225.685 42.3863 224.113 39.4059L223.67 39.6392ZM219.072 50.0909H219.572C219.572 47.1731 219.116 44.6786 218.179 42.6263L217.724 42.8338L217.27 43.0413C218.13 44.9284 218.572 47.272 218.572 50.0909H219.072ZM217.724 42.8338L218.181 42.6297C217.261 40.5733 215.971 38.9956 214.301 37.9256L214.031 38.3466L213.762 38.7676C215.243 39.7165 216.415 41.1303 217.268 43.0379L217.724 42.8338ZM214.031 38.3466L214.303 37.9271C212.639 36.8478 210.727 36.3139 208.584 36.3139V36.8139V37.3139C210.553 37.3139 212.272 37.8018 213.759 38.7661L214.031 38.3466ZM208.584 36.8139V36.3139C206.441 36.3139 204.529 36.8478 202.864 37.9271L203.136 38.3466L203.408 38.7661C204.896 37.8018 206.615 37.3139 208.584 37.3139V36.8139ZM203.136 38.3466L202.867 37.9256C201.197 38.9952 199.901 40.572 198.969 42.6273L199.425 42.8338L199.88 43.0403C200.746 41.1316 201.924 39.7169 203.406 38.7676L203.136 38.3466ZM199.425 42.8338L198.969 42.6286C198.046 44.6803 197.595 47.1739 197.595 50.0909H198.095H198.595C198.595 47.2712 199.031 44.9267 199.881 43.039L199.425 42.8338ZM198.095 50.0909H197.595C197.595 53.0081 198.046 55.5073 198.968 57.5706L199.425 57.3665L199.881 57.1624C199.031 55.2617 198.595 52.9104 198.595 50.0909H198.095ZM199.425 57.3665L198.97 57.574C199.902 59.6168 201.197 61.1921 202.864 62.2732L203.136 61.8537L203.408 61.4342C201.924 60.4717 200.745 59.0555 199.88 57.1589L199.425 57.3665ZM203.136 61.8537L202.867 62.2747C204.531 63.3408 206.442 63.8679 208.584 63.8679V63.3679V62.8679C206.614 62.8679 204.893 62.3855 203.406 61.4327L203.136 61.8537ZM208.584 63.3679V63.8679C210.726 63.8679 212.637 63.3408 214.301 62.2747L214.031 61.8537L213.762 61.4327C212.274 62.3855 210.554 62.8679 208.584 62.8679V63.3679ZM214.031 61.8537L214.303 62.2732C215.971 61.1917 217.261 59.6155 218.18 57.5717L217.724 57.3665L217.268 57.1613C216.415 59.0568 215.243 60.4722 213.759 61.4342L214.031 61.8537ZM217.724 57.3665L218.18 57.573C219.116 55.5089 219.572 53.0089 219.572 50.0909H219.072H218.572C218.572 52.9097 218.131 55.26 217.269 57.16L217.724 57.3665ZM232.142 79.6364H231.642V80.1364H232.142V79.6364ZM232.142 40.6364V40.1364H231.642V40.6364H232.142ZM238.716 40.6364H239.216V40.1364H238.716V40.6364ZM238.716 45.3267H238.216V45.8267H238.716V45.3267ZM239.103 45.3267V45.8267H239.412L239.551 45.5503L239.103 45.3267ZM240.562 43.1293L240.951 43.4439L240.953 43.4409L240.562 43.1293ZM243.11 41.1165L243.34 41.5606L243.344 41.5585L243.11 41.1165ZM253.137 41.9474L252.869 42.3693L252.872 42.3714L253.137 41.9474ZM257.348 46.8778L256.896 47.0922L256.897 47.0953L257.348 46.8778ZM257.385 62.7955L256.932 62.5832V62.5832L257.385 62.7955ZM253.211 67.7812L253.484 68.2004L253.211 67.7812ZM243.184 68.6861L242.959 69.1323V69.1323L243.184 68.6861ZM240.599 66.7287L240.213 67.047L240.219 67.0536L240.599 66.7287ZM239.103 64.5312L239.547 64.3013L239.407 64.0312H239.103V64.5312ZM238.826 64.5312V64.0312H238.326V64.5312H238.826ZM238.826 79.6364V80.1364H239.326V79.6364H238.826ZM239.473 59.6378L239.004 59.8134L239.006 59.817L239.473 59.6378ZM241.744 62.8693L241.435 63.2622L241.44 63.2664L241.744 62.8693ZM249.075 62.8324L249.385 63.2247L249.388 63.2224L249.075 62.8324ZM251.328 59.5639L250.859 59.3897L250.858 59.392L251.328 59.5639ZM251.346 50.1278L251.815 49.9546V49.9546L251.346 50.1278ZM249.093 46.9148L249.4 46.5201V46.5201L249.093 46.9148ZM241.725 46.8778L242.026 47.2772V47.2772L241.725 46.8778ZM239.454 50.0355L238.987 49.8572L238.986 49.8609L239.454 50.0355ZM232.142 79.6364H232.642V40.6364H232.142H231.642V79.6364H232.142ZM232.142 40.6364V41.1364H238.716V40.6364V40.1364H232.142V40.6364ZM238.716 40.6364H238.216V45.3267H238.716H239.216V40.6364H238.716ZM238.716 45.3267V45.8267H239.103V45.3267V44.8267H238.716V45.3267ZM239.103 45.3267L239.551 45.5503C239.875 44.9011 240.339 44.1991 240.951 43.4439L240.562 43.1293L240.174 42.8147C239.529 43.6106 239.021 44.3735 238.656 45.1031L239.103 45.3267ZM240.562 43.1293L240.953 43.4409C241.529 42.7178 242.32 42.0885 243.34 41.5606L243.11 41.1165L242.881 40.6724C241.759 41.2524 240.851 41.965 240.171 42.8177L240.562 43.1293ZM243.11 41.1165L243.344 41.5585C244.321 41.0418 245.601 40.767 247.21 40.767V40.267V39.767C245.495 39.767 244.042 40.0586 242.877 40.6745L243.11 41.1165ZM247.21 40.267V40.767C249.311 40.767 251.193 41.3027 252.869 42.3693L253.137 41.9474L253.406 41.5256C251.561 40.3517 249.491 39.767 247.21 39.767V40.267ZM253.137 41.9474L252.872 42.3714C254.552 43.4214 255.896 44.9859 256.896 47.0922L257.348 46.8778L257.799 46.6635C256.731 44.4118 255.268 42.6894 253.402 41.5234L253.137 41.9474ZM257.348 46.8778L256.897 47.0953C257.903 49.1765 258.417 51.7565 258.417 54.8551H258.917H259.417C259.417 51.6507 258.886 48.9125 257.798 46.6604L257.348 46.8778ZM258.917 54.8551H258.417C258.417 57.9171 257.915 60.4872 256.932 62.5832L257.385 62.7955L257.837 63.0077C258.898 60.7458 259.417 58.0223 259.417 54.8551H258.917ZM257.385 62.7955L256.932 62.5832C255.944 64.6903 254.61 66.2751 252.939 67.3621L253.211 67.7812L253.484 68.2004C255.333 66.9976 256.782 65.2585 257.837 63.0077L257.385 62.7955ZM253.211 67.7812L252.939 67.3621C251.264 68.4509 249.366 68.9986 247.228 68.9986V69.4986V69.9986C249.547 69.9986 251.637 69.4013 253.484 68.2004L253.211 67.7812ZM247.228 69.4986V68.9986C245.655 68.9986 244.391 68.7359 243.41 68.2399L243.184 68.6861L242.959 69.1323C244.12 69.7196 245.551 69.9986 247.228 69.9986V69.4986ZM243.184 68.6861L243.41 68.2399C242.387 67.7224 241.581 67.108 240.979 66.4038L240.599 66.7287L240.219 67.0536C240.922 67.8759 241.84 68.5665 242.959 69.1323L243.184 68.6861ZM240.599 66.7287L240.985 66.4104C240.361 65.6546 239.884 64.9516 239.547 64.3013L239.103 64.5312L238.659 64.7612C239.037 65.4896 239.557 66.2516 240.213 67.047L240.599 66.7287ZM239.103 64.5312V64.0312H238.826V64.5312V65.0312H239.103V64.5312ZM238.826 64.5312H238.326V79.6364H238.826H239.326V64.5312H238.826ZM238.826 79.6364V79.1364H232.142V79.6364V80.1364H238.826V79.6364ZM238.697 54.8182H238.197C238.197 56.6982 238.462 58.3665 239.004 59.8133L239.473 59.6378L239.941 59.4622C239.449 58.1515 239.197 56.6067 239.197 54.8182H238.697ZM239.473 59.6378L239.006 59.817C239.562 61.2647 240.367 62.4216 241.435 63.2621L241.744 62.8693L242.053 62.4765C241.151 61.7659 240.442 60.7684 239.939 59.4586L239.473 59.6378ZM241.744 62.8693L241.44 63.2664C242.535 64.1048 243.852 64.5142 245.363 64.5142V64.0142V63.5142C244.043 63.5142 242.947 63.1603 242.048 62.4723L241.744 62.8693ZM245.363 64.0142V64.5142C246.934 64.5142 248.286 64.0933 249.385 63.2247L249.075 62.8324L248.765 62.4401C247.87 63.1472 246.747 63.5142 245.363 63.5142V64.0142ZM249.075 62.8324L249.388 63.2224C250.466 62.3571 251.266 61.1873 251.797 59.7358L251.328 59.5639L250.858 59.392C250.38 60.6982 249.678 61.7073 248.762 62.4424L249.075 62.8324ZM251.328 59.5639L251.796 59.7381C252.338 58.2816 252.603 56.6391 252.603 54.8182H252.103H251.603C251.603 56.5427 251.352 58.064 250.859 59.3897L251.328 59.5639ZM252.103 54.8182H252.603C252.603 53.0106 252.344 51.3867 251.815 49.9546L251.346 50.1278L250.877 50.3011C251.358 51.6019 251.603 53.1049 251.603 54.8182H252.103ZM251.346 50.1278L251.815 49.9546C251.283 48.5143 250.482 47.3612 249.4 46.5201L249.093 46.9148L248.786 47.3094C249.699 48.0194 250.4 49.0084 250.877 50.3011L251.346 50.1278ZM249.093 46.9148L249.4 46.5201C248.3 45.6646 246.943 45.2514 245.363 45.2514V45.7514V46.2514C246.762 46.2514 247.892 46.6138 248.786 47.3094L249.093 46.9148ZM245.363 45.7514V45.2514C243.843 45.2514 242.521 45.653 241.425 46.4784L241.725 46.8778L242.026 47.2772C242.925 46.6008 244.027 46.2514 245.363 46.2514V45.7514ZM241.725 46.8778L241.425 46.4784C240.341 47.2946 239.532 48.4296 238.987 49.8572L239.454 50.0355L239.921 50.2139C240.41 48.9331 241.116 47.963 242.026 47.2772L241.725 46.8778ZM239.454 50.0355L238.986 49.8609C238.455 51.2837 238.197 52.9396 238.197 54.8182H238.697H239.197C239.197 53.0282 239.444 51.4957 239.923 50.2101L239.454 50.0355ZM278.805 40.6364H279.305V40.1364H278.805V40.6364ZM278.805 45.8068V46.3068H279.305V45.8068H278.805ZM262.5 45.8068H262V46.3068H262.5V45.8068ZM262.5 40.6364V40.1364H262V40.6364H262.5ZM266.525 33.8409V33.3409H266.025V33.8409H266.525ZM273.21 33.8409H273.71V33.3409H273.21V33.8409ZM273.616 62.5369L273.181 62.7826L273.184 62.7893L273.188 62.7958L273.616 62.5369ZM274.724 63.4972L274.547 63.9648V63.9648L274.724 63.4972ZM277.383 63.6634L277.298 63.1706L277.295 63.1711L277.383 63.6634ZM278.196 63.4972L278.684 63.3918L278.574 62.8788L278.067 63.014L278.196 63.4972ZM279.322 68.723L279.485 69.1957L279.904 69.0511L279.811 68.6177L279.322 68.723ZM277.789 69.1293L277.681 68.6412L277.679 68.6416L277.789 69.1293ZM275.389 69.3878L275.376 68.888L275.374 68.888L275.389 69.3878ZM270.865 68.6307L270.67 69.0914L270.674 69.0928L270.865 68.6307ZM267.67 66.0085L267.252 66.2829L267.254 66.2859L267.67 66.0085ZM266.525 61.5767L267.025 61.5802V61.5767H266.525ZM278.805 40.6364H278.305V45.8068H278.805H279.305V40.6364H278.805ZM278.805 45.8068V45.3068H262.5V45.8068V46.3068H278.805V45.8068ZM262.5 45.8068H263V40.6364H262.5H262V45.8068H262.5ZM262.5 40.6364V41.1364H278.805V40.6364V40.1364H262.5V40.6364ZM266.525 33.8409V34.3409H273.21V33.8409V33.3409H266.525V33.8409ZM273.21 33.8409H272.71V60.4688H273.21H273.71V33.8409H273.21ZM273.21 60.4688H272.71C272.71 61.405 272.849 62.1943 273.181 62.7826L273.616 62.5369L274.052 62.2913C273.842 61.9193 273.71 61.3298 273.71 60.4688H273.21ZM273.616 62.5369L273.188 62.7958C273.522 63.3469 273.974 63.748 274.547 63.9648L274.724 63.4972L274.901 63.0295C274.563 62.9016 274.277 62.6626 274.044 62.278L273.616 62.5369ZM274.724 63.4972L274.547 63.9648C275.066 64.1613 275.632 64.2557 276.238 64.2557V63.7557V63.2557C275.737 63.2557 275.293 63.1777 274.901 63.0295L274.724 63.4972ZM276.238 63.7557V64.2557C276.681 64.2557 277.092 64.2232 277.471 64.1556L277.383 63.6634L277.295 63.1711C276.985 63.2266 276.633 63.2557 276.238 63.2557V63.7557ZM277.383 63.6634L277.468 64.1561C277.829 64.0938 278.118 64.0354 278.324 63.9803L278.196 63.4972L278.067 63.014C277.904 63.0574 277.651 63.1098 277.298 63.1706L277.383 63.6634ZM278.196 63.4972L277.707 63.6025L278.833 68.8284L279.322 68.723L279.811 68.6177L278.684 63.3918L278.196 63.4972ZM279.322 68.723L279.159 68.2503C278.829 68.3642 278.339 68.4949 277.681 68.6412L277.789 69.1293L277.898 69.6174C278.569 69.4682 279.101 69.328 279.485 69.1957L279.322 68.723ZM277.789 69.1293L277.679 68.6416C277.069 68.7798 276.303 68.8639 275.376 68.888L275.389 69.3878L275.402 69.8876C276.37 69.8625 277.205 69.7742 277.9 69.6169L277.789 69.1293ZM275.389 69.3878L275.374 68.888C273.76 68.9355 272.323 68.6918 271.055 68.1685L270.865 68.6307L270.674 69.0928C272.09 69.6775 273.67 69.9386 275.404 69.8876L275.389 69.3878ZM270.865 68.6307L271.059 68.17C269.805 67.6408 268.818 66.8293 268.086 65.7312L267.67 66.0085L267.254 66.2859C268.098 67.5513 269.241 68.488 270.67 69.0913L270.865 68.6307ZM267.67 66.0085L268.088 65.7342C267.379 64.6536 267.013 63.2793 267.025 61.5802L266.525 61.5767L266.025 61.5732C266.012 63.4195 266.41 64.9998 267.252 66.2829L267.67 66.0085ZM266.525 61.5767H267.025V33.8409H266.525H266.025V61.5767H266.525ZM284.396 69H283.896V69.5H284.396V69ZM284.396 40.6364V40.1364H283.896V40.6364H284.396ZM291.08 40.6364H291.58V40.1364H291.08V40.6364ZM291.08 69V69.5H291.58V69H291.08ZM285.023 35.5582L284.682 35.9234L284.685 35.9263L285.023 35.5582ZM285.023 30.4247L285.362 30.7928L285.365 30.7898L285.023 30.4247ZM290.489 30.4247L290.145 30.7871L290.151 30.7928L290.489 30.4247ZM290.489 35.5582L290.831 35.9236L290.831 35.9234L290.489 35.5582ZM284.396 69H284.896V40.6364H284.396H283.896V69H284.396ZM284.396 40.6364V41.1364H291.08V40.6364V40.1364H284.396V40.6364ZM291.08 40.6364H290.58V69H291.08H291.58V40.6364H291.08ZM291.08 69V68.5H284.396V69V69.5H291.08V69ZM287.756 36.6108V36.1108C286.82 36.1108 286.031 35.8051 285.362 35.1902L285.023 35.5582L284.685 35.9263C285.543 36.7148 286.575 37.1108 287.756 37.1108V36.6108ZM285.023 35.5582L285.365 35.1931C284.697 34.5685 284.379 33.8429 284.379 32.9915H283.879H283.379C283.379 34.1343 283.823 35.1199 284.682 35.9234L285.023 35.5582ZM283.879 32.9915H284.379C284.379 32.1261 284.698 31.4027 285.362 30.7928L285.023 30.4247L284.685 30.0566C283.822 30.8501 283.379 31.8379 283.379 32.9915H283.879ZM285.023 30.4247L285.365 30.7898C286.034 30.1637 286.823 29.8537 287.756 29.8537V29.3537V28.8537C286.573 28.8537 285.539 29.2577 284.682 30.0596L285.023 30.4247ZM287.756 29.3537V29.8537C288.704 29.8537 289.49 30.1647 290.145 30.7871L290.489 30.4247L290.834 30.0624C289.987 29.2567 288.951 28.8537 287.756 28.8537V29.3537ZM290.489 30.4247L290.151 30.7928C290.814 31.4027 291.134 32.1261 291.134 32.9915H291.634H292.134C292.134 31.8379 291.691 30.8501 290.828 30.0566L290.489 30.4247ZM291.634 32.9915H291.134C291.134 33.8429 290.815 34.5685 290.148 35.1931L290.489 35.5582L290.831 35.9234C291.69 35.1199 292.134 34.1343 292.134 32.9915H291.634ZM290.489 35.5582L290.148 35.1929C289.494 35.8041 288.707 36.1108 287.756 36.1108V36.6108V37.1108C288.948 37.1108 289.983 36.7157 290.831 35.9236L290.489 35.5582ZM297.954 69H297.454V69.5H297.954V69ZM297.954 40.6364V40.1364H297.454V40.6364H297.954ZM304.343 40.6364H304.843V40.1364H304.343V40.6364ZM304.343 45.456H303.843V45.956H304.343V45.456ZM304.676 45.456V45.956H305.026L305.146 45.6268L304.676 45.456ZM307.612 41.652L307.889 42.068L307.892 42.0663L307.612 41.652ZM317.362 41.6705L317.072 42.0781L317.077 42.0811L317.362 41.6705ZM320.169 45.456L319.695 45.6163L319.81 45.956H320.169V45.456ZM320.464 45.456V45.956H320.803L320.929 45.641L320.464 45.456ZM323.64 41.6889L323.906 42.1123L323.907 42.1117L323.64 41.6889ZM337.841 69V69.5H338.341V69H337.841ZM331.137 69H330.637V69.5H331.137V69ZM329.734 47.1364L329.403 47.5114L329.406 47.5139L329.734 47.1364ZM322.514 47.4134L322.143 47.0784L322.142 47.0786L322.514 47.4134ZM321.166 69V69.5H321.666V69H321.166ZM314.61 69H314.11V69.5H314.61V69ZM313.281 47.2102L312.927 47.5638L312.93 47.5662L313.281 47.2102ZM307.224 46.6378L307.484 47.0648L307.489 47.0618L307.224 46.6378ZM305.341 48.6875L305.781 48.9234L305.783 48.9209L305.341 48.6875ZM304.639 69V69.5H305.139V69H304.639ZM297.954 69H298.454V40.6364H297.954H297.454V69H297.954ZM297.954 40.6364V41.1364H304.343V40.6364V40.1364H297.954V40.6364ZM304.343 40.6364H303.843V45.456H304.343H304.843V40.6364H304.343ZM304.343 45.456V45.956H304.676V45.456V44.956H304.343V45.456ZM304.676 45.456L305.146 45.6268C305.702 44.0963 306.616 42.9166 307.889 42.068L307.612 41.652L307.335 41.236C305.874 42.2093 304.831 43.5656 304.206 45.2851L304.676 45.456ZM307.612 41.652L307.892 42.0663C309.164 41.2069 310.694 40.767 312.505 40.767V40.267V39.767C310.525 39.767 308.793 40.2505 307.332 41.2377L307.612 41.652ZM312.505 40.267V40.767C314.342 40.767 315.855 41.2132 317.072 42.0781L317.362 41.6705L317.651 41.2628C316.235 40.2565 314.509 39.767 312.505 39.767V40.267ZM317.362 41.6705L317.077 42.0811C318.314 42.9405 319.186 44.1126 319.695 45.6163L320.169 45.456L320.642 45.2957C320.068 43.5985 319.069 42.247 317.647 41.2598L317.362 41.6705ZM320.169 45.456V45.956H320.464V45.456V44.956H320.169V45.456ZM320.464 45.456L320.929 45.641C321.516 44.1676 322.503 42.9938 323.906 42.1123L323.64 41.6889L323.374 41.2655C321.799 42.2553 320.668 43.5928 320 45.2709L320.464 45.456ZM323.64 41.6889L323.907 42.1117C325.317 41.2218 327 40.767 328.977 40.767V40.267V39.767C326.842 39.767 324.967 40.2602 323.373 41.2661L323.64 41.6889ZM328.977 40.267V40.767C331.471 40.767 333.468 41.5507 335.013 43.095L335.366 42.7415L335.72 42.3879C333.965 40.633 331.702 39.767 328.977 39.767V40.267ZM335.366 42.7415L335.013 43.095C336.539 44.6214 337.341 46.8819 337.341 49.9616H337.841H338.341C338.341 46.7137 337.493 44.1608 335.72 42.3879L335.366 42.7415ZM337.841 49.9616H337.341V69H337.841H338.341V49.9616H337.841ZM337.841 69V68.5H331.137V69V69.5H337.841V69ZM331.137 69H331.637V50.9957H331.137H330.637V69H331.137ZM331.137 50.9957H331.637C331.637 49.1534 331.147 47.701 330.062 46.7588L329.734 47.1364L329.406 47.5139C330.193 48.1968 330.637 49.3172 330.637 50.9957H331.137ZM329.734 47.1364L330.065 46.7613C329.03 45.8488 327.764 45.3991 326.299 45.3991V45.8991V46.3991C327.543 46.3991 328.567 46.7743 329.403 47.5114L329.734 47.1364ZM326.299 45.8991V45.3991C324.574 45.3991 323.166 45.9442 322.143 47.0784L322.514 47.4134L322.885 47.7483C323.684 46.8635 324.799 46.3991 326.299 46.3991V45.8991ZM322.514 47.4134L322.142 47.0786C321.146 48.1847 320.666 49.6107 320.666 51.3097H321.166H321.666C321.666 49.8078 322.085 48.6363 322.885 47.7481L322.514 47.4134ZM321.166 51.3097H320.666V69H321.166H321.666V51.3097H321.166ZM321.166 69V68.5H314.61V69V69.5H321.166V69ZM314.61 69H315.11V50.7188H314.61H314.11V69H314.61ZM314.61 50.7188H315.11C315.11 49.1455 314.63 47.8388 313.632 46.8542L313.281 47.2102L312.93 47.5662C313.704 48.3298 314.11 49.3621 314.11 50.7188H314.61ZM313.281 47.2102L313.634 46.8567C312.653 45.875 311.374 45.3991 309.846 45.3991V45.8991V46.3991C311.15 46.3991 312.161 46.7973 312.927 47.5638L313.281 47.2102ZM309.846 45.8991V45.3991C308.796 45.3991 307.829 45.67 306.959 46.2138L307.224 46.6378L307.489 47.0618C308.195 46.6207 308.976 46.3991 309.846 46.3991V45.8991ZM307.224 46.6378L306.964 46.2108C306.092 46.7419 305.405 47.4951 304.898 48.4541L305.341 48.6875L305.783 48.9209C306.212 48.1072 306.78 47.4939 307.484 47.0648L307.224 46.6378ZM305.341 48.6875L304.9 48.4516C304.387 49.4102 304.139 50.5158 304.139 51.7528H304.639H305.139C305.139 50.6509 305.359 49.7129 305.781 48.9234L305.341 48.6875ZM304.639 51.7528H304.139V69H304.639H305.139V51.7528H304.639ZM304.639 69V68.5H297.954V69V69.5H304.639V69ZM344.622 69H344.122V69.5H344.622V69ZM344.622 40.6364V40.1364H344.122V40.6364H344.622ZM351.307 40.6364H351.807V40.1364H351.307V40.6364ZM351.307 69V69.5H351.807V69H351.307ZM345.25 35.5582L344.908 35.9234L344.912 35.9263L345.25 35.5582ZM345.25 30.4247L345.588 30.7928L345.592 30.7898L345.25 30.4247ZM350.716 30.4247L350.371 30.7871L350.378 30.7928L350.716 30.4247ZM350.716 35.5582L351.057 35.9236L351.057 35.9234L350.716 35.5582ZM344.622 69H345.122V40.6364H344.622H344.122V69H344.622ZM344.622 40.6364V41.1364H351.307V40.6364V40.1364H344.622V40.6364ZM351.307 40.6364H350.807V69H351.307H351.807V40.6364H351.307ZM351.307 69V68.5H344.622V69V69.5H351.307V69ZM347.983 36.6108V36.1108C347.047 36.1108 346.257 35.8051 345.588 35.1902L345.25 35.5582L344.912 35.9263C345.769 36.7148 346.802 37.1108 347.983 37.1108V36.6108ZM345.25 35.5582L345.592 35.1931C344.924 34.5685 344.605 33.8429 344.605 32.9915H344.105H343.605C343.605 34.1343 344.05 35.1199 344.908 35.9234L345.25 35.5582ZM344.105 32.9915H344.605C344.605 32.1261 344.925 31.4027 345.588 30.7928L345.25 30.4247L344.912 30.0566C344.049 30.8501 343.605 31.8379 343.605 32.9915H344.105ZM345.25 30.4247L345.592 30.7898C346.261 30.1637 347.049 29.8537 347.983 29.8537V29.3537V28.8537C346.799 28.8537 345.766 29.2577 344.908 30.0596L345.25 30.4247ZM347.983 29.3537V29.8537C348.931 29.8537 349.717 30.1647 350.371 30.7871L350.716 30.4247L351.06 30.0624C350.213 29.2567 349.177 28.8537 347.983 28.8537V29.3537ZM350.716 30.4247L350.378 30.7928C351.041 31.4027 351.361 32.1261 351.361 32.9915H351.861H352.361C352.361 31.8379 351.917 30.8501 351.054 30.0566L350.716 30.4247ZM351.861 32.9915H351.361C351.361 33.8429 351.042 34.5685 350.374 35.1931L350.716 35.5582L351.057 35.9234C351.916 35.1199 352.361 34.1343 352.361 32.9915H351.861ZM350.716 35.5582L350.375 35.1929C349.72 35.8041 348.933 36.1108 347.983 36.1108V36.6108V37.1108C349.175 37.1108 350.21 36.7157 351.057 35.9236L350.716 35.5582ZM357.811 69H357.311V69.5H357.811V69ZM357.811 64.7528L357.421 64.4411L357.311 64.5779V64.7528H357.811ZM372.436 46.4162L372.827 46.728L372.936 46.5912V46.4162H372.436ZM372.436 46.1761H372.936V45.6761H372.436V46.1761ZM358.292 46.1761H357.792V46.6761H358.292V46.1761ZM358.292 40.6364V40.1364H357.792V40.6364H358.292ZM380.617 40.6364H381.117V40.1364H380.617V40.6364ZM380.617 45.1974L381.013 45.5031L381.117 45.3681V45.1974H380.617ZM366.694 63.2202L366.298 62.9145L366.194 63.0495V63.2202H366.694ZM366.694 63.4602H366.194V63.9602H366.694V63.4602ZM381.097 63.4602H381.597V62.9602H381.097V63.4602ZM381.097 69V69.5H381.597V69H381.097ZM357.811 69H358.311V64.7528H357.811H357.311V69H357.811ZM357.811 64.7528L358.202 65.0646L372.827 46.728L372.436 46.4162L372.046 46.1044L357.421 64.4411L357.811 64.7528ZM372.436 46.4162H372.936V46.1761H372.436H371.936V46.4162H372.436ZM372.436 46.1761V45.6761H358.292V46.1761V46.6761H372.436V46.1761ZM358.292 46.1761H358.792V40.6364H358.292H357.792V46.1761H358.292ZM358.292 40.6364V41.1364H380.617V40.6364V40.1364H358.292V40.6364ZM380.617 40.6364H380.117V45.1974H380.617H381.117V40.6364H380.617ZM380.617 45.1974L380.221 44.8918L366.298 62.9145L366.694 63.2202L367.089 63.5258L381.013 45.5031L380.617 45.1974ZM366.694 63.2202H366.194V63.4602H366.694H367.194V63.2202H366.694ZM366.694 63.4602V63.9602H381.097V63.4602V62.9602H366.694V63.4602ZM381.097 63.4602H380.597V69H381.097H381.597V63.4602H381.097ZM381.097 69V68.5H357.811V69V69.5H381.097V69ZM391.756 67.7812L391.505 68.2136L391.508 68.2154L391.756 67.7812ZM387.011 62.7216L386.564 62.9472L386.565 62.9482L387.011 62.7216ZM387.011 47.3026L386.564 47.077L386.564 47.078L387.011 47.3026ZM391.701 42.1321L391.962 42.5583L391.964 42.5571L391.701 42.1321ZM403.722 41.1165L403.551 41.5862L403.555 41.5878L403.722 41.1165ZM407.859 43.7017L407.509 44.0589L407.511 44.0607L407.859 43.7017ZM410.702 48.1705L410.235 48.3485L410.236 48.3495L410.702 48.1705ZM411.737 56.6463V57.1463H412.237V56.6463H411.737ZM388.488 56.6463H387.988V57.1463H388.488V56.6463ZM388.488 52.1406V51.6406H387.988V52.1406H388.488ZM405.329 52.1406V52.6406H405.834L405.829 52.1358L405.329 52.1406ZM404.498 48.7244L404.057 48.9608L404.059 48.9631L404.498 48.7244ZM402.227 46.3423L401.969 46.7706L401.971 46.772L402.227 46.3423ZM395.265 46.4716L395.532 46.8945L395.535 46.8922L395.265 46.4716ZM392.846 49.0568L392.406 48.8192L392.405 48.821L392.846 49.0568ZM391.978 52.5469L391.478 52.542V52.5469H391.978ZM392.883 60.7273L392.437 60.9546L392.438 60.9565L392.883 60.7273ZM395.413 63.4233L395.162 63.8559L395.166 63.858L395.413 63.4233ZM401.857 63.9403L402.02 64.4132L402.026 64.4109L401.857 63.9403ZM403.907 62.7031L403.565 62.3381L403.907 62.7031ZM405.218 60.6903L405.274 60.1935L404.885 60.1497L404.749 60.5172L405.218 60.6903ZM411.46 61.392L411.946 61.5082L412.077 60.9583L411.515 60.8952L411.46 61.392ZM409.207 65.7131L408.835 65.3786L408.835 65.3788L409.207 65.7131ZM404.996 68.5568L405.178 69.0229L405.18 69.0217L404.996 68.5568ZM399.124 69.554V69.054C396.351 69.054 393.984 68.4781 392.004 67.3471L391.756 67.7812L391.508 68.2154C393.665 69.448 396.21 70.054 399.124 70.054V69.554ZM391.756 67.7812L392.008 67.3489C390.037 66.2046 388.522 64.5906 387.456 62.495L387.011 62.7216L386.565 62.9482C387.715 65.2105 389.364 66.9697 391.505 68.2136L391.756 67.7812ZM387.011 62.7216L387.457 62.496C386.391 60.3877 385.849 57.889 385.849 54.9844H385.349H384.849C384.849 58.0135 385.414 60.6729 386.564 62.9472L387.011 62.7216ZM385.349 54.9844H385.849C385.849 52.1306 386.39 49.6494 387.457 47.5272L387.011 47.3026L386.564 47.078C385.415 49.3629 384.849 52.003 384.849 54.9844H385.349ZM387.011 47.3026L387.457 47.5281C388.538 45.3902 390.039 43.7382 391.962 42.5583L391.701 42.1321L391.44 41.7059C389.35 42.9881 387.724 44.7831 386.564 47.077L387.011 47.3026ZM391.701 42.1321L391.964 42.5571C393.881 41.3696 396.144 40.767 398.773 40.767V40.267V39.767C395.986 39.767 393.534 40.4078 391.438 41.7071L391.701 42.1321ZM398.773 40.267V40.767C400.467 40.767 402.058 41.0411 403.551 41.5862L403.722 41.1165L403.894 40.6468C402.285 40.0593 400.577 39.767 398.773 39.767V40.267ZM403.722 41.1165L403.555 41.5878C405.05 42.1173 406.366 42.9399 407.509 44.0589L407.859 43.7017L408.209 43.3445C406.963 42.1245 405.522 41.2236 403.889 40.6452L403.722 41.1165ZM407.859 43.7017L407.511 44.0607C408.657 45.1721 409.568 46.5967 410.235 48.3485L410.702 48.1705L411.17 47.9925C410.458 46.1249 409.473 44.5703 408.207 43.3427L407.859 43.7017ZM410.702 48.1705L410.236 48.3495C410.898 50.0757 411.237 52.1541 411.237 54.5966H411.737H412.237C412.237 52.0656 411.886 49.8599 411.169 47.9914L410.702 48.1705ZM411.737 54.5966H411.237V56.6463H411.737H412.237V54.5966H411.737ZM411.737 56.6463V56.1463H388.488V56.6463V57.1463H411.737V56.6463ZM388.488 56.6463H388.988V52.1406H388.488H387.988V56.6463H388.488ZM388.488 52.1406V52.6406H405.329V52.1406V51.6406H388.488V52.1406ZM405.329 52.1406L405.829 52.1358C405.816 50.7844 405.523 49.5635 404.937 48.4858L404.498 48.7244L404.059 48.9631C404.556 49.8796 404.817 50.9362 404.829 52.1454L405.329 52.1406ZM404.498 48.7244L404.938 48.488C404.354 47.3996 403.534 46.5383 402.482 45.9126L402.227 46.3423L401.971 46.772C402.864 47.3036 403.558 48.0304 404.057 48.9608L404.498 48.7244ZM402.227 46.3423L402.485 45.9141C401.436 45.2822 400.224 44.9744 398.866 44.9744V45.4744V45.9744C400.068 45.9744 401.097 46.2453 401.969 46.7706L402.227 46.3423ZM398.866 45.4744V44.9744C397.414 44.9744 396.118 45.3287 394.995 46.051L395.265 46.4716L395.535 46.8922C396.48 46.2849 397.584 45.9744 398.866 45.9744V45.4744ZM395.265 46.4716L394.998 46.0487C393.892 46.7468 393.026 47.6722 392.406 48.8192L392.846 49.0568L393.286 49.2945C393.823 48.2994 394.57 47.5013 395.532 46.8945L395.265 46.4716ZM392.846 49.0568L392.405 48.821C391.799 49.9548 391.491 51.1981 391.478 52.542L391.978 52.5469L392.478 52.5517C392.49 51.3597 392.761 50.2763 393.287 49.2926L392.846 49.0568ZM391.978 52.5469H391.478V56.4801H391.978H392.478V52.5469H391.978ZM391.978 56.4801H391.478C391.478 58.1899 391.791 59.6873 392.437 60.9546L392.883 60.7273L393.328 60.5C392.769 59.4036 392.478 58.0695 392.478 56.4801H391.978ZM392.883 60.7273L392.438 60.9565C393.083 62.2063 393.992 63.1777 395.162 63.8559L395.413 63.4233L395.663 62.9907C394.667 62.4133 393.889 61.5872 393.327 60.4981L392.883 60.7273ZM395.413 63.4233L395.166 63.858C396.336 64.523 397.692 64.8466 399.217 64.8466V64.3466V63.8466C397.836 63.8466 396.656 63.5547 395.66 62.9886L395.413 63.4233ZM399.217 64.3466V64.8466C400.235 64.8466 401.172 64.7047 402.02 64.4132L401.857 63.9403L401.695 63.4675C400.967 63.7176 400.143 63.8466 399.217 63.8466V64.3466ZM401.857 63.9403L402.026 64.4109C402.875 64.106 403.618 63.659 404.249 63.0681L403.907 62.7031L403.565 62.3381C403.039 62.8306 402.416 63.2084 401.688 63.4698L401.857 63.9403ZM403.907 62.7031L404.249 63.0681C404.888 62.4693 405.367 61.731 405.687 60.8635L405.218 60.6903L404.749 60.5172C404.478 61.2501 404.083 61.8536 403.565 62.3381L403.907 62.7031ZM405.218 60.6903L405.162 61.1872L411.404 61.8889L411.46 61.392L411.515 60.8952L405.274 60.1935L405.218 60.6903ZM411.46 61.392L410.973 61.2759C410.598 62.8463 409.886 64.2111 408.835 65.3786L409.207 65.7131L409.578 66.0476C410.744 64.7529 411.533 63.237 411.946 61.5082L411.46 61.392ZM409.207 65.7131L408.835 65.3788C407.797 66.5333 406.461 67.4397 404.812 68.0919L404.996 68.5568L405.18 69.0217C406.955 68.3197 408.425 67.3303 409.579 66.0473L409.207 65.7131ZM404.996 68.5568L404.815 68.0908C403.172 68.7291 401.278 69.054 399.124 69.054V69.554V70.054C401.378 70.054 403.398 69.7141 405.178 69.0229L404.996 68.5568Z" fill="#FCFCFC"/>
</svg>
